<?xml version="1.0" standalone="no"?>
<!DOCTYPE svg PUBLIC "-//W3C//DTD SVG 20010904//EN"
 "http://www.w3.org/TR/2001/REC-SVG-20010904/DTD/svg10.dtd">
<svg version="1.0" xmlns="http://www.w3.org/2000/svg"
 width="746.000000pt" height="1280.000000pt" viewBox="0 0 746.000000 1280.000000"
 preserveAspectRatio="xMidYMid meet">
<metadata>
Created by potrace 1.15, written by Peter Selinger 2001-2017
</metadata>
<g transform="translate(0.000000,1280.000000) scale(0.100000,-0.100000)"
fill="#333333" stroke="none">
<path d="M2661 12758 c-60 -146 -80 -210 -89 -291 -7 -68 -14 -92 -30 -107
-12 -11 -31 -53 -43 -92 -26 -88 -42 -120 -85 -174 -21 -25 -34 -52 -34 -70 0
-36 -69 -165 -158 -297 -37 -55 -80 -125 -96 -156 -15 -31 -32 -58 -37 -62 -5
-3 -26 -45 -47 -95 -21 -49 -61 -134 -89 -188 l-50 -100 -6 325 c-4 178 -10
366 -13 417 -7 88 -8 92 -30 92 -13 0 -24 -4 -24 -10 0 -5 -4 -10 -9 -10 -6 0
-11 19 -13 43 -2 33 -7 43 -23 45 -18 2 -34 -41 -165 -453 -79 -250 -147 -455
-151 -455 -4 0 -22 19 -40 43 -56 73 -173 188 -212 208 -55 29 -148 35 -227
15 -180 -46 -316 -156 -419 -338 -54 -95 -114 -433 -81 -453 9 -5 22 2 38 21
l25 29 -7 -45 c-7 -49 13 -95 32 -75 5 6 71 96 147 200 76 105 140 192 141
194 2 2 9 -1 16 -6 7 -6 33 -13 57 -16 61 -8 92 -34 119 -101 38 -94 45 -157
39 -361 -4 -158 -8 -201 -26 -258 -32 -99 -115 -288 -170 -386 -60 -109 -68
-131 -76 -215 -3 -37 -15 -86 -26 -107 -10 -21 -22 -60 -26 -86 -3 -27 -9 -52
-13 -58 -11 -15 236 -471 253 -467 8 1 22 -14 33 -33 19 -36 41 -44 62 -23 16
16 15 4 -3 -56 -8 -27 -15 -66 -15 -88 0 -51 -17 -49 -78 10 -62 61 -116 170
-172 352 -42 134 -79 218 -127 292 -14 21 -29 36 -33 33 -4 -3 -18 11 -31 30
-13 19 -27 35 -31 35 -13 0 -78 -98 -109 -163 -42 -91 -58 -194 -59 -375 0
-126 4 -172 25 -268 38 -176 39 -170 -63 -295 -44 -54 -95 -148 -146 -271 -30
-69 -40 -78 -103 -78 -18 0 -44 -5 -58 -12 -32 -14 -105 -122 -105 -153 0 -13
22 -52 51 -87 28 -35 63 -84 77 -110 15 -27 34 -48 43 -48 8 0 23 -16 32 -35
9 -19 23 -35 32 -35 13 0 15 -19 15 -119 0 -186 49 -317 159 -425 58 -57 61
-58 90 -47 29 13 29 13 36 119 3 59 8 113 10 120 6 17 32 15 175 -12 151 -29
283 -40 351 -31 l50 7 -6 63 -7 63 88 7 c49 4 103 10 120 14 l31 6 -68 255
c-38 140 -69 261 -69 267 0 7 12 16 27 19 16 4 82 29 148 56 66 27 163 65 215
84 95 35 150 65 247 136 59 43 68 46 53 19 -20 -38 -13 -51 29 -51 l40 0 -6
-36 -6 -36 67 4 c36 1 66 1 66 -2 -1 -3 -32 -29 -71 -59 l-71 -53 40 -27 c21
-14 38 -30 36 -36 -4 -12 127 -95 150 -95 32 0 201 52 233 72 18 10 49 38 69
61 l36 42 -6 -70 c-10 -117 -55 -179 -194 -261 -38 -23 -54 -26 -133 -25 -99
1 -153 17 -164 50 -4 12 -13 20 -22 19 -9 -2 -23 12 -35 34 -17 33 -22 36 -46
28 -15 -5 -46 -14 -69 -20 -27 -7 -43 -17 -43 -26 0 -18 38 -95 90 -180 22
-35 40 -66 40 -68 0 -2 -30 -16 -66 -32 -91 -38 -109 -74 -49 -95 25 -9 35
-19 35 -34 0 -18 30 -33 215 -107 161 -64 217 -83 223 -73 5 8 49 14 142 18
153 6 206 19 292 72 33 21 62 34 66 31 14 -15 -50 -58 -153 -104 -99 -44 -179
-90 -442 -256 -98 -61 -289 -230 -387 -342 -113 -129 -250 -363 -231 -395 9
-14 39 -11 61 6 30 23 34 18 17 -25 -12 -30 -13 -44 -5 -52 17 -17 61 6 196
102 159 113 159 113 96 49 -72 -72 -247 -280 -297 -355 -87 -128 -215 -422
-243 -557 -27 -133 -43 -311 -38 -429 5 -122 39 -232 120 -397 41 -81 68 -120
123 -177 71 -74 81 -79 122 -68 22 6 22 7 16 202 -6 230 4 327 46 422 16 36
32 82 36 102 8 53 89 221 148 308 79 118 179 251 184 247 9 -9 -49 -436 -68
-497 -25 -80 -26 -160 -4 -220 9 -25 23 -89 31 -143 16 -107 100 -354 156
-460 63 -118 283 -323 422 -392 72 -37 111 -43 139 -23 15 12 6 41 -88 308
-89 252 -102 297 -90 306 11 8 15 33 15 93 l0 81 28 -6 c15 -4 65 -32 112 -64
87 -58 295 -163 408 -206 35 -13 75 -33 89 -43 14 -11 52 -26 85 -32 33 -7 72
-22 87 -34 18 -16 51 -27 106 -35 54 -8 86 -18 98 -31 17 -18 37 -26 87 -31
19 -2 1 -15 -83 -58 -167 -85 -208 -122 -261 -233 -53 -112 -114 -264 -132
-332 -10 -39 -11 -65 -3 -120 16 -102 16 -102 43 -76 l23 22 7 -51 c4 -27 11
-50 16 -50 10 0 41 37 133 160 106 143 223 214 375 229 39 4 72 4 72 1 0 -3
-31 -14 -70 -23 -145 -35 -225 -99 -257 -206 -26 -88 -21 -235 11 -346 37
-122 64 -177 85 -171 11 4 21 -5 33 -34 9 -22 21 -40 27 -40 15 0 64 89 102
184 46 114 81 145 204 185 117 39 174 39 251 0 72 -36 99 -93 99 -214 0 -78
-4 -97 -27 -141 -15 -29 -44 -66 -65 -83 -46 -38 -184 -111 -209 -111 -26 0
-212 59 -256 81 -41 21 -80 24 -108 9 -15 -8 -17 -15 -10 -38 5 -15 16 -52 24
-83 13 -45 28 -69 73 -116 69 -71 95 -89 146 -97 20 -4 46 -16 56 -27 10 -11
46 -27 80 -35 34 -7 73 -22 88 -31 39 -26 119 -21 210 13 70 26 87 38 170 120
136 135 148 157 308 534 108 256 195 377 317 442 39 21 56 23 173 22 124 0
135 -2 243 -38 62 -21 111 -41 109 -43 -3 -2 -58 5 -124 17 -66 11 -124 20
-128 20 -10 0 0 -70 20 -140 28 -101 11 -228 -45 -341 -48 -96 -173 -213 -350
-330 -80 -53 -156 -102 -169 -109 -33 -17 -460 -170 -476 -170 -7 0 -38 -13
-68 -29 -37 -19 -79 -32 -124 -37 -37 -4 -97 -16 -133 -26 -55 -17 -112 -21
-355 -28 -206 -6 -332 -14 -435 -30 -80 -11 -152 -23 -161 -26 -14 -4 -17 14
-21 148 -6 184 -17 221 -109 374 -111 186 -258 318 -428 383 -149 58 -246 60
-435 11 -221 -58 -379 -164 -536 -358 -36 -45 -67 -81 -70 -82 -3 0 -27 37
-54 83 -63 105 -193 240 -253 263 -63 24 -225 15 -262 -16 -14 -11 -51 -32
-81 -46 -94 -44 -110 -60 -160 -168 -53 -113 -100 -252 -100 -297 0 -16 12
-53 28 -82 l27 -52 0 -272 c0 -149 3 -274 7 -278 3 -4 -34 -124 -84 -268 -125
-364 -115 -327 -93 -344 11 -8 30 -12 42 -10 19 3 20 1 12 -19 -7 -20 -4 -27
17 -41 25 -16 28 -16 71 7 82 43 199 201 239 323 15 45 36 100 48 122 16 32
22 66 27 165 5 106 10 134 32 180 18 39 29 86 37 160 14 127 35 202 65 230 55
52 80 1 95 -192 10 -139 10 -139 80 -243 72 -109 97 -156 115 -217 20 -71 11
-93 -48 -109 -87 -23 -104 -35 -164 -124 -112 -165 -231 -312 -284 -351 l-52
-38 46 -19 c43 -18 62 -37 37 -37 -28 0 -3 -20 50 -40 52 -19 72 -22 136 -16
99 9 188 37 235 76 58 46 47 29 -27 -45 -91 -92 -118 -152 -112 -254 3 -59 13
-95 40 -159 47 -107 119 -227 128 -212 4 7 18 -7 35 -35 l27 -47 20 43 c14 32
20 70 21 146 3 118 -3 106 141 271 110 125 174 218 229 333 l41 86 443 -178
c298 -119 443 -173 443 -163 0 10 17 13 68 13 38 0 91 2 118 6 130 16 138 22
80 56 -19 11 -36 27 -38 37 -3 10 -166 114 -376 240 -205 123 -372 227 -372
232 0 10 9 11 275 46 170 22 223 25 355 21 153 -6 338 -32 448 -63 32 -9 143
-42 247 -74 309 -94 473 -120 771 -120 163 0 165 0 257 34 53 20 122 38 162
41 65 7 73 10 107 46 40 42 47 59 23 59 -31 0 -66 24 -62 42 4 13 -5 23 -37
37 -35 15 -76 19 -227 23 -184 5 -184 5 -279 43 -52 20 -142 53 -200 73 -203
68 -254 103 -171 117 78 13 309 7 491 -14 570 -63 940 -101 999 -101 195 1
491 54 636 114 97 40 519 282 533 306 9 14 25 36 36 49 l21 24 -62 -6 c-62 -5
-62 -5 -52 16 6 12 21 30 33 40 21 18 20 18 -44 13 -36 -3 -113 -15 -170 -26
-302 -58 -531 -74 -645 -46 -58 15 -51 18 80 37 44 6 107 20 140 31 33 11 164
47 290 79 201 52 244 66 345 118 63 32 140 64 170 71 44 10 59 18 72 40 8 15
62 58 118 95 105 71 290 242 349 324 47 67 39 137 -13 113 -25 -11 -26 -10
-26 21 0 67 -1 66 -260 -63 -134 -67 -246 -117 -249 -112 -3 5 -111 -20 -251
-58 -135 -37 -247 -66 -249 -64 -2 2 11 21 29 44 54 68 238 204 475 349 251
154 401 314 525 559 50 98 53 117 20 116 -14 -1 -34 -5 -44 -9 -17 -7 -18 -5
-13 17 4 15 10 33 13 42 5 12 0 16 -21 16 -40 0 -81 -23 -175 -98 -242 -193
-350 -261 -469 -296 -61 -18 -111 -21 -111 -7 0 5 -9 13 -20 16 -12 4 -51 21
-88 38 l-67 31 97 6 c70 5 108 12 140 28 24 12 68 26 99 32 33 7 113 39 190
78 129 64 137 70 206 151 64 75 164 223 208 310 9 18 19 58 22 88 l6 56 -36
-5 -37 -4 7 40 6 39 -42 -7 c-48 -7 -89 -28 -177 -89 -72 -49 -159 -99 -193
-109 -30 -9 -29 -8 99 88 130 97 259 224 288 285 36 74 26 139 -20 139 -10 0
-18 6 -18 14 0 8 -8 24 -19 37 -17 22 -21 22 -60 10 -23 -6 -78 -36 -122 -66
-43 -30 -92 -58 -107 -61 -15 -4 -72 -29 -126 -56 -90 -43 -126 -56 -126 -44
0 3 9 21 21 40 19 33 20 47 17 263 l-3 228 -32 49 c-18 27 -33 55 -33 61 0 7
-7 18 -15 25 -8 7 -35 42 -59 79 -52 77 -215 253 -275 296 -23 17 -60 45 -83
63 -22 17 -49 32 -59 32 -25 0 -71 23 -88 44 -9 10 -30 16 -57 16 -49 0 -91
14 -119 40 -13 12 -50 22 -110 30 -49 6 -124 21 -165 32 -109 30 -179 28 -225
-6 -30 -23 -44 -27 -93 -26 -127 3 -148 1 -183 -25 -19 -14 -49 -32 -68 -41
-18 -8 -35 -24 -38 -34 -3 -13 -17 -22 -39 -26 -62 -12 -164 -119 -164 -174 0
-13 -9 -24 -25 -30 -14 -5 -30 -21 -35 -35 -6 -15 -10 -127 -10 -251 l0 -224
-109 0 c-61 0 -112 4 -115 8 -10 16 15 96 39 123 13 16 26 39 30 51 3 13 17
46 30 73 47 97 59 473 20 619 -20 76 -23 81 -46 60 -18 -16 -19 -16 -19 0 0 9
-7 33 -16 54 l-15 37 -18 -24 c-10 -13 -24 -48 -31 -78 -6 -29 -22 -66 -36
-82 -15 -18 -27 -49 -32 -82 -5 -39 -12 -55 -25 -57 -13 -3 -17 4 -17 30 -1
37 -22 72 -42 66 -7 -3 -21 12 -31 34 -11 21 -22 38 -27 38 -4 0 -33 -28 -64
-63 -76 -83 -73 -80 -138 -142 -32 -30 -58 -59 -58 -64 0 -5 -30 -16 -66 -24
-36 -9 -74 -23 -83 -31 -23 -21 -31 -21 -150 13 -86 24 -107 34 -131 62 -27
31 -29 40 -30 115 0 64 4 85 17 95 27 23 43 74 43 137 0 49 4 62 24 81 14 13
30 45 36 72 7 27 16 52 21 55 18 11 9 -115 -11 -167 -13 -31 -20 -69 -18 -93
3 -36 6 -41 30 -44 21 -2 28 -9 30 -30 4 -35 40 -48 93 -33 31 9 54 27 102 84
66 78 143 186 143 201 0 5 13 30 29 55 16 25 32 57 36 71 4 14 16 35 27 47 11
12 31 43 44 70 l24 48 -3 -87 c-2 -74 -5 -90 -25 -110 -17 -19 -22 -36 -22
-80 0 -72 7 -88 35 -88 18 0 26 -8 35 -35 10 -31 15 -35 47 -35 38 0 118 46
159 91 12 13 50 40 85 59 34 19 79 51 98 70 48 47 182 213 203 252 24 43 38
56 38 35 0 -9 -13 -31 -29 -49 -55 -63 -88 -156 -62 -172 5 -3 22 1 37 9 34
17 38 15 23 -17 -8 -19 -8 -31 1 -47 10 -20 13 -21 33 -8 12 8 41 16 65 20 23
3 58 16 76 30 18 14 50 30 72 36 22 6 51 22 64 36 13 13 38 28 57 31 19 4 52
20 73 38 81 63 96 74 130 89 19 9 54 35 77 59 23 24 65 67 94 96 65 66 159
192 159 213 0 9 13 36 30 60 16 24 30 55 30 69 0 39 73 160 96 160 16 0 16 -2
18 -190 l1 -135 28 -3 c21 -3 27 -9 27 -26 0 -35 24 -49 72 -43 39 5 54 18
190 159 81 84 148 161 148 170 0 10 13 32 29 50 16 18 34 54 41 78 6 25 24 63
38 84 26 38 27 44 31 210 2 94 0 221 -4 283 -6 95 -11 119 -30 148 -13 19 -27
51 -31 72 -15 82 -291 369 -370 385 -10 2 58 30 151 62 239 83 218 72 205 96
-6 12 -22 26 -35 32 -14 6 -27 19 -31 30 -9 28 -52 45 -134 51 -54 4 -89 13
-127 32 -42 22 -72 29 -151 34 l-99 7 -142 93 c-78 52 -140 95 -138 97 2 2
190 -59 418 -136 l414 -140 22 -48 c41 -87 53 -158 53 -305 0 -152 12 -199 57
-220 12 -5 23 -14 23 -19 0 -13 51 -58 66 -58 24 0 53 42 74 105 12 35 29 70
39 79 11 10 24 44 30 79 7 34 23 90 37 124 19 48 24 80 24 147 0 47 4 86 9 86
18 0 64 -125 81 -223 31 -169 101 -340 131 -321 4 2 15 -8 23 -24 8 -16 21
-34 29 -40 17 -15 13 -23 69 138 39 113 40 118 45 285 l5 170 -36 145 c-20 80
-39 153 -42 163 -5 15 -1 18 16 15 18 -2 38 -32 92 -138 95 -185 117 -220 133
-220 7 0 23 -16 35 -35 45 -73 58 -35 59 180 1 154 0 162 -26 215 -18 37 -28
79 -33 131 -4 52 -12 84 -26 101 -233 306 -315 380 -639 578 -82 50 -162 105
-178 120 -16 17 -43 32 -65 36 -73 13 -501 286 -588 376 -65 67 -137 175 -166
247 -29 77 -32 229 -4 281 47 87 126 157 246 217 131 66 214 79 288 44 l49
-23 7 -61 c3 -35 2 -63 -4 -67 -5 -3 -61 -19 -124 -35 l-115 -29 -28 22 c-76
60 -92 62 -113 13 -9 -23 -8 -36 4 -65 8 -20 22 -36 31 -36 9 0 24 -13 33 -30
9 -16 28 -34 42 -39 69 -25 211 -62 258 -68 28 -3 52 -7 52 -8 0 -1 -7 -19
-15 -38 -20 -49 -20 -51 20 -73 20 -10 33 -24 31 -31 -7 -18 107 -79 184 -99
46 -12 109 -17 220 -18 243 -2 304 23 404 163 84 117 108 183 114 307 4 98 3
104 -30 181 -19 44 -72 151 -118 239 -78 146 -92 166 -175 249 -51 51 -114
103 -145 119 -30 16 -57 31 -60 33 -2 2 9 14 25 27 l29 23 -19 44 c-12 27 -58
82 -115 139 -102 103 -189 157 -292 184 -30 8 -77 25 -104 39 -68 34 -128 45
-359 62 -180 13 -295 33 -318 54 -4 5 105 14 242 21 l251 13 0 28 c0 47 -18
78 -83 142 -103 103 -91 101 -622 105 l-450 4 175 57 c149 48 175 60 178 78 3
18 -4 22 -50 29 -29 4 -45 9 -35 12 10 2 17 13 17 28 0 16 -6 24 -17 24 -10 0
-81 7 -158 15 -106 10 -178 12 -295 5 -163 -10 -237 -26 -307 -66 -24 -14 -43
-23 -43 -22 0 2 29 26 66 53 58 44 63 51 48 62 -10 7 -33 16 -51 19 -32 6 -33
7 -18 24 15 17 15 19 -2 28 -50 26 -83 24 -206 -14 -148 -45 -335 -124 -387
-162 -22 -16 -95 -91 -163 -168 -120 -135 -207 -218 -255 -243 -22 -12 -23
-11 -17 11 15 51 79 177 151 295 63 104 73 127 63 140 -8 9 -25 13 -46 11 -37
-4 -37 -4 -22 23 12 24 -3 49 -31 49 -60 0 -273 -149 -374 -261 -65 -72 -161
-272 -170 -353 -10 -88 -22 -99 -29 -26 -4 35 -7 90 -7 122 0 58 -1 59 -35 74
-24 9 -35 21 -35 34 0 21 -27 36 -82 47 -24 5 -28 2 -29 -18 -1 -13 -3 -17 -5
-9 -3 9 2 57 9 107 12 80 12 93 -1 98 -12 4 -13 24 -7 118 6 103 -7 239 -31
320 -7 24 -29 21 -41 -5 -9 -20 -11 -16 -18 35 -9 70 -28 75 -54 15z m136
-730 c-3 -8 -6 -5 -6 6 -1 11 2 17 5 13 3 -3 4 -12 1 -19z m2063 -289 c70 -6
132 -18 158 -30 24 -10 81 -25 126 -33 47 -8 127 -33 187 -59 57 -24 115 -48
129 -52 49 -15 221 -106 226 -120 3 -7 0 -24 -6 -37 -13 -24 -80 -98 -90 -98
-3 0 -7 11 -8 25 -3 44 -28 78 -112 159 -62 59 -102 88 -167 119 -83 39 -87
40 -132 28 -52 -14 -87 -42 -108 -86 -13 -29 -13 -28 -7 23 l6 52 -36 0 c-34
0 -36 1 -36 35 l0 35 -112 0 c-62 0 -150 3 -195 7 l-83 6 -1 -44 c0 -24 -4
-62 -8 -84 -8 -36 -9 -37 -10 -10 -1 37 -35 95 -56 95 -8 0 -15 5 -15 11 0 6
-14 24 -31 40 l-31 29 148 0 c82 0 201 -5 264 -11z m-655 -418 c14 -52 37
-115 50 -141 38 -75 307 -325 402 -374 49 -25 61 -21 69 22 10 55 13 56 44 15
44 -60 137 -143 159 -143 33 0 51 27 52 78 0 26 4 69 7 97 6 46 9 37 30 -105
13 -85 28 -160 33 -167 6 -6 20 -13 32 -15 15 -2 23 -11 25 -29 2 -21 11 -29
41 -38 21 -6 50 -11 63 -11 28 0 31 8 44 119 l7 64 18 -24 c24 -30 21 -43 -46
-199 -29 -69 -56 -143 -60 -165 -4 -22 -17 -76 -30 -120 -35 -120 -46 -180
-52 -290 -7 -120 8 -216 42 -282 15 -28 25 -62 25 -89 0 -64 14 -90 92 -170
77 -80 110 -93 128 -51 5 12 21 105 35 207 25 185 43 290 50 290 2 0 41 -37
87 -83 109 -107 257 -219 388 -291 57 -32 118 -69 135 -81 70 -54 126 -196
111 -280 -10 -53 -76 -119 -136 -135 -53 -15 -216 -8 -300 12 l-55 14 137 72
c76 40 139 76 141 80 2 4 -1 32 -7 62 -10 49 -14 55 -38 58 -20 2 -28 10 -33
32 -10 47 -12 47 -340 9 -121 -14 -195 -29 -257 -50 l-86 -29 -364 0 c-407 0
-427 -3 -604 -69 -62 -24 -110 -37 -112 -31 -2 5 -11 10 -20 10 -24 0 -38 12
-46 38 l-7 22 129 0 c111 0 133 3 153 19 13 10 59 35 102 54 82 38 185 107
226 150 l23 25 -30 16 c-17 9 -39 16 -49 16 -13 0 -14 3 -5 12 18 18 15 26
-20 44 -31 16 -97 15 -183 -2 -26 -6 -22 -1 25 31 119 82 149 114 189 199 91
190 112 354 42 317 -19 -11 -21 -9 -21 21 0 67 -9 67 -130 -5 -61 -37 -113
-67 -116 -67 -2 0 -4 46 -4 103 0 56 -3 166 -7 245 l-6 142 -29 0 c-21 0 -28
5 -29 20 -1 11 -2 26 -3 33 -1 9 -20 11 -71 8 -39 -2 -73 -5 -77 -7 -3 -2 -16
-36 -27 -74 -24 -79 -65 -132 -130 -168 l-41 -23 0 131 c0 95 -4 141 -15 168
-17 40 -102 133 -148 162 l-28 17 34 20 c60 36 143 62 279 87 169 32 248 56
248 77 0 4 -21 52 -46 106 -117 248 -134 295 -133 358 0 70 5 63 44 -74z
m-670 -242 l-53 -71 -56 -2 c-31 0 -56 1 -56 2 0 2 9 15 19 29 11 13 17 31 14
39 -3 8 1 14 10 14 39 0 118 23 138 41 43 37 37 18 -16 -52z m3164 -184 c37
-20 166 -154 186 -195 23 -45 32 -193 15 -246 -26 -81 -94 -142 -203 -183 -69
-25 -230 -40 -241 -22 -5 8 9 11 47 11 227 0 336 185 253 429 -24 71 -38 95
-88 148 -32 35 -56 68 -53 73 7 11 49 4 84 -15z m-3898 -110 c28 6 30 5 23
-21 -5 -20 -2 -30 10 -40 16 -11 6 -26 -93 -151 -61 -76 -125 -164 -143 -196
-18 -32 -43 -73 -55 -92 -11 -18 -26 -65 -32 -104 -7 -43 -20 -84 -35 -105
l-23 -35 -7 45 c-3 25 -26 84 -51 133 -44 83 -45 89 -36 133 27 119 92 214
200 292 44 31 104 84 132 117 50 58 52 59 66 39 12 -17 21 -20 44 -15z m833
-231 c-14 -38 -37 -89 -52 -114 -23 -39 -27 -59 -32 -160 l-5 -115 -82 -3 -83
-3 0 38 c0 30 18 67 80 168 67 109 188 270 198 261 1 -2 -9 -34 -24 -72z
m-859 -636 c-18 -92 -48 -138 -35 -55 6 41 25 87 36 87 3 0 3 -15 -1 -32z
m840 -135 c10 -3 28 -29 41 -57 27 -58 32 -159 12 -226 -12 -38 -16 -41 -113
-80 -55 -22 -104 -40 -110 -40 -5 0 -21 17 -35 37 -42 62 -130 145 -146 139
-34 -13 -46 -74 -42 -211 5 -162 19 -195 112 -280 37 -33 91 -84 121 -112 l55
-53 167 -2 c93 -1 179 2 193 6 21 7 17 0 -22 -42 -27 -28 -48 -59 -48 -69 0
-10 -14 -35 -30 -57 -16 -21 -32 -50 -35 -66 -3 -15 -15 -37 -25 -48 -24 -25
-80 -163 -80 -195 0 -29 18 -47 46 -47 17 0 23 -7 26 -26 5 -42 31 -52 74 -29
34 18 81 68 217 229 42 49 134 116 161 116 5 0 -22 -33 -60 -73 -100 -105
-171 -249 -280 -565 l-39 -114 24 -19 c15 -12 31 -17 43 -13 18 5 18 3 8 -16
-10 -18 -8 -24 7 -36 10 -7 26 -14 35 -14 9 0 121 105 250 234 223 224 237
236 318 274 131 63 218 77 460 77 165 0 216 -3 260 -17 69 -22 147 -71 160
-100 5 -13 25 -61 46 -107 42 -97 43 -139 2 -218 -14 -26 -28 -64 -32 -84 -3
-20 -16 -48 -29 -62 -12 -13 -38 -51 -58 -84 -31 -51 -47 -66 -120 -108 -46
-27 -126 -66 -178 -87 -107 -43 -141 -63 -141 -81 0 -22 133 -145 186 -171 29
-14 82 -34 118 -43 63 -17 69 -17 134 1 37 10 95 23 129 28 78 11 218 75 304
139 126 93 217 234 237 367 6 37 15 98 21 137 10 67 26 95 57 95 9 0 8 -9 -2
-37 -9 -26 -13 -91 -14 -199 0 -156 -1 -161 -24 -183 -13 -13 -27 -38 -30 -56
-9 -46 -82 -142 -146 -190 -29 -22 -67 -52 -85 -67 -18 -16 -37 -28 -42 -28
-5 0 -31 -14 -57 -30 -26 -17 -73 -37 -103 -45 -31 -8 -77 -25 -102 -37 -42
-21 -60 -23 -201 -23 -151 1 -156 1 -193 27 -20 14 -55 29 -77 33 -22 4 -58
21 -79 38 -38 31 -66 50 -140 93 -26 15 -38 30 -44 57 -5 21 -22 50 -38 65
-21 20 -29 36 -29 63 0 21 -11 52 -28 80 -16 24 -32 58 -36 74 -10 38 -24 55
-45 55 -9 0 -22 13 -28 30 -16 44 -41 49 -70 16 l-24 -28 3 -243 c3 -237 4
-244 26 -275 13 -17 30 -53 38 -81 8 -27 24 -65 35 -84 20 -33 20 -65 1 -65
-5 0 -12 14 -16 30 -7 37 -73 109 -182 201 -129 107 -132 109 -256 109 -68 0
-108 4 -110 11 -3 10 -278 -30 -763 -111 -60 -10 -111 -17 -112 -16 -2 1 26
44 62 96 83 119 113 214 134 424 4 46 11 88 14 93 3 5 -9 68 -28 139 -19 71
-35 137 -35 146 0 12 13 21 43 29 93 25 105 31 137 62 45 43 80 121 80 177 0
26 -11 70 -26 105 -15 33 -29 75 -31 92 -5 34 -4 36 50 47 24 6 27 11 27 44 0
55 -46 126 -137 213 -97 93 -155 119 -285 127 -49 2 -88 6 -88 7 0 1 9 31 21
66 28 88 120 277 173 357 24 37 51 82 60 100 32 63 224 232 297 261 28 11 80
14 104 4z m-916 -115 c-5 -31 -13 -67 -18 -80 -8 -19 -10 -15 -10 25 -1 42 23
126 33 116 2 -2 0 -29 -5 -61z m-949 -168 c-79 -72 -177 -151 -240 -194 l-55
-38 74 72 c63 60 255 209 271 209 3 0 -20 -22 -50 -49z m869 -79 c-6 -18 -13
-30 -15 -28 -2 2 1 18 7 36 6 18 13 30 15 28 2 -2 -1 -18 -7 -36z m-760 -342
c-18 -22 -44 -52 -58 -65 -14 -13 -53 -49 -86 -81 -65 -63 -127 -93 -134 -66
-1 9 4 20 12 25 9 4 39 33 68 63 50 52 164 135 186 135 6 0 16 7 23 15 28 34
19 12 -11 -26z m601 -71 c0 -18 11 -57 25 -87 27 -57 49 -234 43 -341 l-3 -55
-18 60 c-10 33 -27 90 -38 128 -18 60 -22 66 -39 57 -21 -11 -25 -8 -35 38 -8
40 -26 41 -59 1 -31 -37 -49 -77 -70 -156 -8 -32 -22 -74 -31 -93 l-16 -35 5
55 c6 80 58 204 119 286 28 38 63 94 76 122 28 60 41 66 41 20z m707 -412 c-2
-22 -17 -50 -44 -80 -34 -39 -46 -46 -77 -46 -20 0 -36 4 -36 10 0 18 64 100
82 106 10 3 23 14 28 25 6 10 20 19 31 19 16 0 19 -6 16 -34z m-2332 -1021 c5
-11 21 -38 37 -59 15 -21 28 -45 28 -52 0 -7 27 -42 60 -77 33 -36 60 -70 60
-77 0 -21 -101 -7 -161 23 -31 15 -61 38 -71 55 -31 53 -48 151 -48 284 0 127
0 128 38 204 l37 75 6 -178 c3 -98 9 -187 14 -198z m239 -307 c18 -25 7 -44
-18 -35 -17 7 -23 57 -7 57 6 0 17 -10 25 -22z m3301 -387 c-6 -5 -23 -12 -40
-15 -28 -6 -28 -5 5 8 43 18 46 18 35 7z m-180 -61 c-7 -11 -72 -30 -100 -29
-11 1 5 9 35 19 66 22 73 23 65 10z m-235 -75 c-14 -8 -32 -14 -40 -14 -8 0
-1 7 15 14 39 18 57 18 25 0z m-150 -70 c-7 -8 -24 -15 -39 -14 l-26 1 30 13
c40 18 50 18 35 0z m-135 -56 c-8 -12 -56 -32 -62 -25 -5 5 46 35 60 36 5 0 5
-5 2 -11z m-120 -69 c-3 -5 -12 -10 -18 -10 -7 0 -6 4 3 10 19 12 23 12 15 0z
m-75 -65 c0 -9 -9 -15 -22 -15 -22 1 -23 1 -4 15 25 19 26 19 26 0z m-310
-230 c-24 -25 -46 -45 -49 -45 -3 0 15 20 39 45 24 25 46 45 49 45 3 0 -15
-20 -39 -45z m-75 -94 c-3 -6 -11 -11 -17 -11 -6 0 -6 6 2 15 14 17 26 13 15
-4z m-286 -417 c-32 -34 -35 -22 -8 27 21 36 24 39 27 19 2 -13 -6 -32 -19
-46z m-6 -463 c15 -18 27 -44 27 -58 0 -16 13 -37 34 -57 18 -17 36 -42 39
-56 4 -14 20 -34 37 -45 16 -11 30 -24 30 -30 0 -5 25 -28 55 -50 31 -22 71
-52 90 -66 19 -15 52 -29 74 -33 26 -4 44 -14 55 -31 15 -22 23 -25 80 -25 74
0 146 -12 199 -35 36 -15 37 -16 22 -39 -13 -19 -26 -24 -75 -28 -45 -3 -66
-10 -85 -28 -14 -13 -25 -27 -25 -31 0 -15 211 -219 243 -235 18 -9 41 -24 52
-34 36 -33 159 -91 204 -97 30 -4 52 -14 65 -30 17 -19 36 -26 88 -33 37 -4
82 -17 100 -28 19 -12 68 -25 118 -32 47 -6 118 -23 159 -36 41 -14 104 -28
140 -31 36 -3 82 -14 102 -24 20 -10 65 -23 100 -29 89 -14 694 -13 722 1 44
23 67 52 67 85 0 28 -5 34 -35 45 -25 10 -35 19 -35 35 0 15 -9 25 -32 34 -77
28 -154 73 -198 115 l-30 29 0 138 0 137 71 70 c53 51 81 70 107 75 19 3 49
18 66 34 26 25 42 30 96 35 36 3 74 8 85 11 31 10 -105 -54 -150 -70 -124 -45
-165 -99 -173 -227 -4 -71 -2 -82 27 -141 59 -121 256 -283 384 -318 60 -16
62 -13 71 96 9 95 15 126 27 126 4 0 22 -20 39 -44 29 -43 30 -49 30 -146 0
-127 -9 -148 -106 -239 -97 -93 -127 -107 -242 -113 -78 -5 -103 -10 -155 -37
-53 -27 -76 -32 -162 -37 -95 -5 -106 -9 -205 -57 -82 -40 -116 -63 -159 -109
-30 -32 -58 -58 -62 -58 -4 0 -12 14 -19 31 -16 39 -112 137 -207 213 -39 31
-74 63 -76 70 -5 13 -100 63 -152 81 -16 5 -3 16 68 51 48 24 87 47 87 51 0
16 -36 43 -58 43 -20 0 -22 3 -13 14 9 11 7 18 -13 33 -19 15 -47 21 -115 26
-73 5 -99 11 -136 32 -35 21 -65 29 -133 34 -73 6 -101 14 -177 50 -225 107
-374 184 -416 215 -28 21 -81 82 -132 153 -80 110 -135 169 -355 373 -73 69
-133 152 -166 235 -17 42 -20 72 -20 180 1 72 5 162 10 200 8 63 9 53 14 -116
5 -184 5 -185 33 -218z m1517 -6 c0 -24 -5 -35 -15 -35 -17 0 -20 23 -5 51 15
27 20 24 20 -16z m1697 -355 c167 -65 258 -118 313 -180 28 -33 56 -74 62 -92
6 -18 16 -39 22 -47 6 -8 20 -46 31 -85 15 -52 26 -74 42 -81 21 -9 33 -42 33
-91 0 -24 28 -46 52 -42 7 2 14 -8 16 -22 2 -14 13 -32 24 -41 21 -16 21 -17
-18 -23 -21 -3 -57 -7 -78 -8 l-40 -3 -37 87 c-56 130 -109 205 -211 304 -82
79 -255 213 -313 241 -11 6 -44 13 -73 16 -29 4 -69 16 -87 27 -19 11 -53 24
-77 29 l-43 8 50 16 c31 10 88 16 152 16 90 1 110 -2 180 -29z m-3459 -2644
c75 -52 81 -63 92 -172 5 -54 21 -137 35 -183 27 -90 32 -155 14 -167 -6 -3
-54 -10 -105 -14 -72 -5 -101 -12 -122 -27 -18 -13 -56 -24 -106 -31 -61 -8
-103 -22 -182 -61 l-104 -50 0 32 c0 18 -12 54 -26 81 -31 59 -42 144 -33 276
13 182 87 301 210 339 19 6 91 9 161 7 119 -3 130 -4 166 -30z"/>
</g>
</svg>
