<?xml version="1.0" standalone="no"?>
<!DOCTYPE svg PUBLIC "-//W3C//DTD SVG 20010904//EN"
 "http://www.w3.org/TR/2001/REC-SVG-20010904/DTD/svg10.dtd">
<svg version="1.0" xmlns="http://www.w3.org/2000/svg"
 width="1228.000000pt" height="1280.000000pt" viewBox="0 0 1228.000000 1280.000000"
 preserveAspectRatio="xMidYMid meet">
<metadata>
Created by potrace 1.15, written by Peter Selinger 2001-2017
</metadata>
<g transform="translate(0.000000,1280.000000) scale(0.100000,-0.100000)"
fill="#333333" stroke="none">
<path d="M5505 12790 c-8 -13 12 -40 30 -40 12 0 47 -33 144 -134 l54 -57 -6
-53 c-5 -49 -26 -115 -90 -286 -14 -36 -46 -159 -72 -275 -88 -391 -164 -575
-331 -790 -150 -194 -375 -366 -629 -478 -321 -142 -725 -250 -1160 -309 -149
-20 -211 -23 -505 -23 -390 1 -487 10 -625 60 -53 19 -122 37 -153 40 -74 6
-162 -12 -162 -34 0 -13 16 -19 68 -27 43 -7 81 -20 100 -34 28 -21 49 -25
163 -32 97 -6 151 -15 207 -34 103 -34 322 -148 375 -194 23 -20 71 -58 107
-84 193 -139 497 -663 646 -1114 66 -199 77 -280 71 -507 -10 -335 -45 -491
-267 -1155 -174 -524 -235 -639 -482 -913 -39 -44 -50 -50 -121 -67 -54 -13
-92 -30 -126 -54 -79 -58 -72 -86 12 -51 20 8 52 15 72 15 20 0 57 12 88 29
28 16 84 41 122 56 39 15 90 35 115 45 64 26 269 91 395 126 28 7 97 27 155
44 92 27 116 31 190 26 193 -10 425 -137 578 -316 75 -88 261 -365 354 -530
89 -156 202 -384 221 -445 27 -87 50 -644 37 -890 -7 -131 -41 -390 -53 -402
-2 -1 -19 21 -38 49 -19 29 -40 54 -46 56 -18 5 -17 -51 2 -112 8 -27 15 -65
15 -84 0 -34 -1 -35 -19 -18 -11 10 -23 32 -26 50 -13 58 -65 154 -103 187
-51 45 -52 26 -7 -105 39 -111 40 -156 5 -134 -10 7 -21 28 -25 47 -11 58 -44
117 -93 166 -45 44 -47 45 -50 22 -2 -13 7 -48 19 -78 40 -100 49 -139 38
-161 -10 -19 -11 -18 -28 4 -10 13 -23 47 -30 76 -6 29 -20 72 -32 95 -21 42
-86 117 -101 117 -14 0 -8 -48 16 -127 35 -115 38 -131 24 -153 -15 -23 -38
-27 -38 -5 0 42 -46 132 -91 177 -85 85 -99 56 -39 -82 34 -78 42 -125 20
-125 -9 0 -28 27 -45 63 -34 71 -93 137 -132 146 -14 4 -28 5 -30 2 -3 -3 18
-55 47 -116 43 -90 50 -113 40 -125 -19 -23 -39 -18 -52 13 -48 118 -107 202
-143 202 -16 0 -7 -34 43 -158 28 -70 28 -75 13 -108 -8 -19 -18 -34 -22 -34
-4 0 -15 24 -25 53 -9 28 -27 68 -40 88 -23 36 -69 79 -85 79 -17 0 -9 -41 19
-108 37 -87 43 -114 31 -132 -11 -17 -8 -20 -61 66 -25 39 -87 84 -118 84 -17
0 -2 -37 46 -116 42 -67 54 -104 36 -104 -5 0 -23 22 -41 49 -21 33 -46 56
-74 70 -78 38 -87 21 -32 -55 19 -27 44 -62 55 -79 l20 -30 -23 -11 c-20 -11
-25 -9 -50 22 -16 19 -47 44 -69 55 l-41 21 7 -27 c4 -15 18 -45 32 -67 34
-54 16 -67 -39 -27 -38 28 -87 39 -87 20 0 -4 11 -25 25 -45 l25 -37 -24 -10
c-18 -8 -30 -7 -54 5 -44 23 -53 21 -42 -10 6 -14 10 -29 10 -33 0 -13 -49
-31 -82 -31 -49 0 -114 -36 -128 -71 -7 -16 -34 -44 -59 -61 -25 -17 -55 -39
-66 -49 -39 -35 -767 -433 -954 -521 -356 -169 -668 -271 -893 -294 -66 -7
-67 -6 -74 20 -7 28 -19 34 -27 14 -3 -7 -6 -4 -6 8 -1 20 -18 44 -32 44 -4 0
-10 -10 -14 -22 -6 -21 -8 -19 -14 12 -9 41 -28 80 -40 80 -12 0 -21 -26 -21
-58 0 -21 -2 -24 -10 -12 -5 8 -10 29 -10 45 0 31 -33 95 -49 95 -13 0 -20
-37 -14 -76 6 -38 -4 -43 -46 -21 -21 10 -25 20 -26 58 0 26 -8 58 -19 74 -18
27 -19 28 -32 10 -8 -10 -14 -31 -14 -46 0 -62 -64 -80 -66 -19 -1 19 -2 43
-3 52 -1 24 -61 89 -73 82 -6 -4 -7 -31 -3 -69 4 -42 3 -65 -5 -70 -18 -11
-40 15 -40 48 0 62 -77 174 -102 149 -5 -5 0 -44 12 -92 12 -45 19 -85 16 -88
-9 -9 -36 20 -36 39 0 61 -99 229 -135 229 -21 0 -19 -12 20 -124 37 -104 43
-140 23 -134 -13 5 -13 5 -57 100 -28 59 -89 128 -112 128 -11 0 9 -62 45
-141 19 -42 31 -80 28 -92 -5 -20 -6 -20 -19 -1 -8 10 -27 40 -43 66 -29 46
-104 107 -117 94 -7 -6 11 -44 62 -134 17 -31 22 -49 16 -65 -5 -12 -12 -22
-17 -21 -5 0 -27 24 -49 52 -42 55 -66 75 -102 86 -36 11 -29 -14 22 -83 25
-34 45 -68 45 -75 0 -33 -24 -25 -75 23 -36 34 -62 51 -79 51 -14 0 -26 -2
-26 -4 0 -2 20 -30 45 -62 25 -31 45 -60 45 -64 0 -3 -7 -16 -16 -28 -11 -17
-25 -22 -57 -22 l-42 -1 49 -45 c27 -24 47 -46 45 -48 -2 -2 -19 -11 -36 -20
-18 -9 -33 -21 -33 -26 0 -14 51 -12 96 4 34 11 84 7 84 -7 0 -2 -23 -19 -52
-36 -40 -25 -49 -35 -37 -42 19 -12 65 -2 118 27 93 51 110 15 29 -58 l-53
-47 34 -1 c39 0 120 35 128 56 6 17 43 19 43 3 0 -6 -20 -34 -45 -61 -48 -53
-54 -68 -30 -68 35 0 92 33 127 72 28 32 40 40 49 31 9 -9 2 -26 -28 -70 -58
-86 -57 -83 -30 -83 35 0 106 51 130 95 12 21 28 40 35 43 16 5 15 -23 -2 -51
-8 -12 -17 -32 -21 -44 -16 -54 85 -6 109 52 8 19 20 35 25 35 17 0 31 -34 20
-51 -15 -24 -10 -49 10 -49 30 0 72 39 69 64 -2 17 2 21 22 21 21 0 27 -7 38
-42 20 -61 56 -54 64 12 3 26 8 30 35 33 32 3 33 2 33 -32 0 -19 5 -38 12 -42
13 -8 58 39 59 64 1 10 4 7 8 -8 9 -32 41 -33 56 -3 11 21 13 21 28 6 15 -15
17 -15 23 1 4 11 13 15 25 11 12 -4 19 -2 19 7 0 10 36 17 148 26 521 41 1211
257 1942 607 118 56 266 121 327 144 208 76 480 138 709 161 97 10 115 9 201
-11 86 -20 103 -21 172 -10 108 16 134 14 202 -14 116 -49 222 -68 344 -61 61
3 134 9 163 13 l54 6 -30 -59 c-16 -32 -46 -100 -66 -150 -43 -104 -87 -164
-119 -164 -12 0 -42 14 -67 30 -57 38 -141 70 -183 70 -44 0 -120 -22 -190
-55 -69 -32 -166 -44 -202 -25 -14 7 -36 30 -51 51 -45 65 -60 63 -176 -25
-82 -63 -296 -176 -335 -178 -15 0 -69 3 -118 7 -76 6 -96 5 -123 -9 -19 -10
-32 -12 -32 -6 0 6 -4 8 -10 5 -12 -8 -13 -3 0 29 6 17 6 26 0 26 -14 0 -69
-119 -59 -126 5 -3 9 -30 9 -60 0 -31 5 -64 10 -74 16 -30 90 -76 142 -88 87
-22 107 -17 163 37 74 74 216 136 391 172 73 15 132 5 479 -75 379 -89 517
-111 606 -96 72 12 178 50 282 102 108 53 375 178 382 178 3 0 5 -6 5 -14 0
-20 39 -46 67 -46 26 0 28 -8 11 -45 -8 -19 -8 -31 1 -51 10 -23 9 -26 -4 -21
-8 4 -15 2 -15 -4 0 -6 21 -19 46 -31 37 -16 62 -19 123 -16 115 6 151 28 264
161 27 31 52 57 56 57 14 0 79 -147 121 -273 l42 -128 -57 -139 c-75 -182 -73
-180 -141 -180 -30 0 -74 4 -97 10 -23 5 -77 12 -119 15 -77 7 -78 7 -63 28
28 39 15 41 -23 4 -21 -20 -48 -37 -59 -37 -30 0 -38 -17 -14 -29 19 -11 19
-11 0 -61 -25 -66 -24 -85 6 -136 23 -40 32 -46 97 -65 l71 -22 75 37 c41 20
122 55 180 77 120 45 129 51 184 132 22 32 42 56 46 53 3 -3 -2 -14 -10 -23
-9 -10 -31 -45 -49 -78 -32 -58 -186 -233 -339 -385 -59 -59 -85 -78 -121 -87
-46 -12 -109 -60 -109 -83 0 -9 11 -11 38 -6 20 3 46 6 57 6 11 0 45 18 75 41
85 64 119 77 267 105 76 14 173 37 216 50 160 50 404 54 772 13 520 -58 839
-157 1140 -353 98 -64 254 -193 288 -238 78 -104 120 -282 103 -442 -6 -55
-13 -73 -42 -108 -57 -67 -89 -148 -60 -148 17 0 81 75 95 111 17 46 163 231
265 337 255 265 540 430 859 499 128 28 440 25 567 -6 299 -70 507 -172 815
-400 77 -57 170 -118 207 -137 87 -44 98 -61 98 -152 0 -56 3 -74 15 -79 9 -3
18 -3 21 0 9 8 22 138 34 330 6 94 22 226 36 302 l26 134 -166 331 c-91 181
-170 349 -177 373 -13 52 -32 73 -134 150 -44 34 -159 127 -255 206 -596 493
-755 604 -1385 967 -147 84 -203 122 -247 168 l-57 59 -53 -7 c-170 -21 -204
-19 -578 34 -201 28 -367 53 -369 55 -2 2 30 19 70 37 129 57 300 144 416 211
239 137 522 195 714 146 40 -10 49 -23 49 -74 0 -19 4 -36 8 -39 8 -5 94 50
185 118 22 16 31 18 46 9 15 -9 25 -6 54 18 45 37 98 61 212 94 124 36 265 56
307 44 47 -13 48 -13 48 27 0 39 11 65 46 107 22 26 23 31 10 56 -19 35 -92
108 -128 127 -15 8 -55 16 -89 19 -33 3 -77 9 -97 14 -21 6 -53 13 -73 16 -29
4 -39 12 -49 36 -10 23 -31 39 -84 66 -39 20 -90 49 -113 64 -47 33 -63 36
-63 14 0 -19 -40 -35 -88 -35 -27 0 -44 8 -69 32 -18 18 -33 27 -33 21 0 -6
-11 -8 -26 -5 -24 4 -25 3 -15 -17 14 -26 4 -27 -29 -1 -30 24 -40 25 -40 5 0
-17 -23 -11 -60 17 -15 12 -26 15 -28 9 -6 -19 -55 -12 -79 11 l-23 21 0 -21
c0 -26 -34 -30 -64 -7 -27 20 -35 19 -29 -5 8 -31 -17 -24 -59 17 -21 20 -40
34 -44 31 -7 -8 15 -73 38 -113 22 -37 26 -118 5 -95 -8 8 -22 36 -31 62 -30
83 -116 180 -116 131 0 -10 10 -38 21 -63 33 -71 49 -121 43 -132 -7 -11 -44
20 -44 37 0 26 -81 136 -120 161 -22 15 -43 25 -46 22 -2 -3 21 -55 53 -116
43 -84 55 -114 46 -123 -17 -17 -30 -4 -62 59 -34 67 -75 113 -119 136 -45 23
-42 8 22 -106 37 -64 53 -103 49 -117 -3 -12 -7 -21 -9 -21 -13 0 -47 46 -61
83 -9 23 -26 58 -38 77 -24 38 -99 110 -115 110 -16 0 -1 -48 47 -143 35 -69
43 -94 38 -117 -4 -17 -10 -30 -15 -30 -5 0 -21 24 -35 53 -41 80 -113 147
-160 147 -17 0 -2 -33 80 -173 19 -34 24 -52 17 -59 -15 -15 -27 -4 -68 58
-43 64 -87 101 -133 110 l-33 7 18 -34 c9 -19 39 -63 66 -98 35 -47 48 -73 48
-97 0 -23 -5 -34 -15 -34 -15 0 -20 7 -88 110 -23 35 -57 73 -75 83 -60 35
-56 8 18 -108 40 -63 50 -87 48 -114 -4 -49 -23 -49 -48 -1 -27 52 -85 117
-123 137 l-30 15 7 -29 c4 -15 27 -59 52 -97 39 -62 58 -127 37 -126 -5 1 -23
21 -41 45 -36 50 -64 71 -111 85 -44 12 -41 -6 12 -70 63 -78 82 -110 65 -110
-8 0 -27 14 -44 31 -16 17 -41 37 -56 45 -30 16 -78 19 -78 5 0 -5 21 -32 46
-60 l46 -51 -45 0 c-45 0 -45 0 -52 41 -4 25 -19 54 -37 73 l-29 31 7 -74 c5
-60 4 -73 -7 -69 -8 3 -17 26 -20 56 -7 51 -35 110 -47 97 -3 -3 -5 -35 -4
-71 2 -58 1 -65 -15 -62 -14 3 -19 17 -25 71 -7 70 -30 123 -49 111 -7 -4 -10
-36 -7 -83 3 -72 2 -76 -19 -79 -26 -4 -25 -8 -28 84 -3 72 -28 145 -45 128
-5 -5 -10 -45 -12 -89 -2 -47 -7 -79 -13 -77 -5 1 -15 35 -21 76 -11 71 -36
126 -56 126 -6 0 -8 -32 -4 -87 4 -49 3 -94 -2 -101 -14 -20 -23 11 -28 92 -4
76 -36 156 -61 156 -13 0 -14 -14 -8 -99 6 -82 4 -104 -8 -122 l-16 -22 -5 24
c-3 13 -7 54 -9 92 -3 46 -13 85 -32 122 -40 82 -84 428 -69 547 40 332 321
959 535 1192 69 76 171 146 212 146 18 0 39 5 47 10 12 8 11 12 -8 32 -19 21
-20 28 -11 63 15 54 5 124 -31 223 -23 63 -33 112 -40 205 -12 135 -15 154
-70 447 -21 113 -55 318 -75 455 -98 672 -215 1185 -446 1955 -130 432 -154
524 -170 649 -13 101 -11 97 -133 266 -66 90 -178 280 -316 530 -125 228 -513
876 -537 898 -11 9 -25 17 -31 17 -7 0 -67 49 -135 108 -319 281 -462 400
-713 592 -33 24 -99 82 -149 129 -122 114 -284 193 -310 151z m4285 -8479 c5
-11 10 -30 10 -42 0 -23 0 -23 -18 -3 -25 26 -34 64 -16 64 7 0 18 -9 24 -19z
m85 -21 c3 -5 2 -10 -4 -10 -5 0 -13 5 -16 10 -3 6 -2 10 4 10 5 0 13 -4 16
-10z m-3475 -1759 c0 -15 -10 -21 -41 -26 -54 -9 -59 -1 -12 24 48 25 53 25
53 2z m64 -126 c0 -5 -15 -18 -33 -29 -30 -18 -33 -18 -51 -1 -25 22 -25 32
-2 38 29 8 87 3 86 -8z m-2599 -98 c0 -20 -3 -37 -7 -37 -5 0 -8 11 -8 24 0
13 -3 32 -7 42 -4 12 -2 15 8 12 8 -3 14 -19 14 -41z m95 36 c0 -5 -5 -15 -10
-23 -8 -12 -10 -11 -10 8 0 12 5 22 10 22 6 0 10 -3 10 -7z m2579 -669 c36 -8
38 -13 11 -42 -31 -32 -53 -28 -66 13 -12 39 -8 41 55 29z"/>
</g>
</svg>
