<?xml version="1.0" standalone="no"?>
<!DOCTYPE svg PUBLIC "-//W3C//DTD SVG 20010904//EN"
 "http://www.w3.org/TR/2001/REC-SVG-20010904/DTD/svg10.dtd">
<svg version="1.0" xmlns="http://www.w3.org/2000/svg"
 width="1143.000000pt" height="1280.000000pt" viewBox="0 0 1143.000000 1280.000000"
 preserveAspectRatio="xMidYMid meet">
<metadata>
Created by potrace 1.15, written by Peter Selinger 2001-2017
</metadata>
<g transform="translate(0.000000,1280.000000) scale(0.100000,-0.100000)"
fill="#333333" stroke="none">
<path d="M3203 12649 c-44 -13 -41 -17 11 -17 24 0 57 -7 73 -16 62 -32 113
-114 113 -183 0 -12 9 -37 20 -56 l20 -34 -22 -15 c-31 -21 -72 -136 -63 -177
5 -23 3 -33 -8 -37 -9 -3 -13 -13 -10 -25 7 -24 -13 -49 -38 -49 -12 0 -19 -7
-19 -20 0 -11 -6 -20 -12 -20 -7 0 -46 -46 -85 -102 -60 -83 -73 -108 -73
-139 0 -43 -14 -58 -29 -32 -5 10 -11 16 -14 13 -20 -24 -117 -161 -126 -179
-7 -12 -15 -20 -19 -17 -9 10 -102 -86 -102 -105 0 -9 -10 -19 -23 -23 -13 -3
-77 -56 -143 -118 -66 -63 -162 -141 -217 -177 -53 -35 -97 -68 -97 -73 0 -15
-27 -38 -46 -38 -20 0 -158 -89 -150 -97 10 -10 -15 -32 -29 -27 -20 8 -113
-47 -119 -69 -3 -13 -10 -17 -20 -14 -17 7 -251 -128 -297 -169 -14 -13 -32
-24 -41 -24 -9 0 -19 -4 -22 -9 -11 -18 -73 -21 -122 -6 -74 22 -153 19 -205
-8 -47 -25 -89 -77 -89 -110 0 -16 5 -13 23 14 47 71 149 90 242 44 28 -13 56
-25 63 -25 6 0 22 -11 34 -25 12 -14 28 -25 35 -25 7 0 13 -5 13 -11 0 -7 7
-17 15 -23 26 -19 47 -114 45 -208 -1 -92 8 -112 39 -84 20 18 31 12 31 -16 0
-14 6 -18 28 -16 21 2 26 -1 25 -14 -2 -10 -4 -26 -5 -35 -2 -13 3 -17 20 -16
21 3 23 0 18 -35 -2 -20 -9 -51 -14 -68 -6 -18 -7 -36 -2 -40 4 -5 10 -28 14
-50 5 -35 2 -45 -19 -68 -14 -15 -30 -24 -36 -21 -5 4 -19 -1 -30 -11 -10 -9
-19 -13 -19 -8 0 5 -6 -2 -13 -15 -16 -32 -37 -39 -37 -12 0 21 -14 28 -24 13
-6 -9 -55 -375 -56 -417 -1 -16 2 -42 6 -57 5 -21 3 -28 -8 -28 -10 0 -20 -35
-37 -122 -13 -68 -27 -134 -32 -148 -4 -14 -20 -72 -34 -130 -26 -107 -75
-260 -101 -317 -8 -17 -14 -43 -14 -57 0 -14 -4 -26 -9 -26 -4 0 -20 -35 -35
-77 -108 -311 -146 -393 -182 -393 -19 0 -114 -62 -140 -91 -56 -62 -73 -163
-40 -228 20 -38 31 -36 16 3 -17 45 -12 80 19 127 35 56 72 86 125 101 22 6
48 17 57 25 13 11 21 7 54 -27 22 -22 45 -40 52 -40 7 0 13 -4 13 -8 0 -14
102 -122 113 -121 27 3 37 -2 37 -19 0 -10 16 -31 35 -46 19 -16 35 -34 35
-42 0 -8 8 -14 19 -14 10 0 24 -7 31 -15 7 -8 22 -15 34 -15 12 0 27 -5 34
-12 9 -9 17 -7 35 10 28 27 47 28 48 5 0 -11 3 -13 6 -5 2 6 9 12 14 12 12 0
44 -33 52 -55 9 -21 -9 -46 -27 -39 -20 8 -38 -23 -39 -64 -1 -46 7 -60 39
-73 14 -5 24 -15 22 -22 -2 -7 16 -36 40 -64 32 -37 48 -49 63 -46 19 5 49
-12 49 -28 0 -5 -8 -9 -17 -9 -14 0 -13 -3 5 -23 12 -13 22 -31 22 -41 0 -10
21 -46 48 -82 26 -35 57 -79 70 -97 15 -21 30 -31 43 -29 12 2 19 -3 19 -12 0
-10 8 -15 23 -13 19 2 22 -3 25 -35 2 -21 8 -38 14 -38 6 0 8 -10 4 -24 -4
-16 0 -29 14 -41 11 -10 20 -29 20 -43 0 -29 50 -122 66 -122 19 0 35 -25 23
-37 -13 -13 -1 -41 22 -54 13 -6 19 -21 19 -43 0 -18 9 -45 20 -59 11 -14 20
-30 20 -36 0 -6 17 -48 38 -93 21 -46 49 -109 62 -141 13 -31 34 -64 48 -73
19 -13 21 -18 11 -31 -11 -12 -9 -18 9 -32 15 -11 21 -23 17 -34 -4 -9 2 -31
14 -50 12 -19 21 -46 21 -61 0 -20 5 -27 18 -25 35 3 52 -1 52 -15 0 -8 -7
-16 -15 -20 -19 -7 -20 -26 -1 -26 25 0 30 -22 9 -39 -19 -16 -19 -17 13 -114
31 -96 33 -131 10 -152 -38 -34 -64 -145 -47 -198 12 -35 78 -104 89 -93 3 4
-1 12 -10 19 -60 48 -64 142 -8 202 10 11 20 31 22 45 2 19 8 24 23 22 11 -2
34 -4 51 -6 16 -2 42 -11 57 -20 14 -10 36 -16 49 -15 13 2 34 -4 48 -14 13
-9 29 -17 35 -17 5 0 89 -20 185 -46 358 -93 469 -139 707 -290 72 -46 137
-84 143 -84 7 0 40 -28 74 -63 33 -34 102 -101 151 -147 50 -47 160 -168 247
-270 86 -102 174 -202 196 -223 l40 -39 -28 -78 c-38 -107 -58 -132 -146 -181
-64 -35 -82 -41 -115 -36 -59 8 -176 91 -222 158 -43 62 -118 109 -176 109
-20 0 -94 -12 -166 -26 -84 -16 -145 -23 -171 -19 -52 7 -115 -19 -232 -98
-54 -37 -118 -69 -185 -93 -234 -83 -285 -117 -512 -341 -288 -283 -480 -607
-550 -928 -23 -105 -27 -111 -82 -129 -27 -9 -68 -30 -92 -46 -29 -20 -56 -30
-81 -30 -39 0 -72 -26 -84 -67 -4 -13 -34 -37 -71 -59 -97 -57 -86 -72 20 -29
35 15 80 25 108 25 36 0 57 6 80 24 31 23 137 69 144 62 9 -9 -27 -199 -41
-209 -8 -7 -24 -35 -36 -64 -14 -34 -38 -65 -66 -88 -73 -60 -54 -74 36 -25
30 16 58 29 63 30 4 0 7 -27 7 -60 0 -152 41 -398 92 -560 120 -375 342 -680
677 -930 308 -230 641 -302 1175 -255 218 20 207 17 1083 281 87 26 110 46 99
88 -12 50 -25 48 -486 -50 -482 -103 -557 -114 -757 -114 -405 1 -680 74 -884
238 -165 132 -380 388 -436 520 -20 48 -8 101 26 113 14 6 34 18 43 26 17 15
18 14 18 -5 0 -11 10 -28 22 -36 20 -14 21 -18 8 -42 -17 -30 -53 -47 -84 -39
-21 6 -21 6 -2 -9 11 -9 35 -16 54 -16 46 0 102 54 102 99 0 20 7 34 20 41 12
6 33 37 48 68 21 45 27 72 27 132 2 214 16 321 60 460 23 74 50 166 59 203 51
218 82 268 206 324 41 19 127 50 191 68 64 18 150 51 192 73 68 36 79 39 109
30 45 -13 164 21 198 57 19 20 30 24 54 19 36 -6 233 12 291 27 54 15 105 57
164 138 68 94 93 107 218 115 188 12 368 53 476 107 84 42 209 125 319 210 50
38 95 68 101 66 14 -4 36 -69 47 -135 8 -44 5 -69 -16 -150 -14 -53 -27 -104
-29 -112 -1 -8 -8 -28 -14 -45 -7 -16 -17 -52 -23 -80 -11 -55 -20 -69 -53
-88 -112 -62 -129 -69 -166 -65 -22 2 -39 0 -39 -4 0 -17 45 -30 81 -24 40 6
131 45 137 58 2 4 25 17 50 29 53 23 177 44 332 55 58 3 121 8 140 9 19 2 43
6 53 10 10 4 17 3 17 -4 0 -7 36 -10 109 -9 72 1 114 -2 124 -10 7 -6 17 -9
21 -5 4 4 10 3 14 -3 4 -6 38 -18 76 -29 75 -20 154 -58 229 -111 26 -19 52
-34 57 -34 6 0 10 -5 10 -10 0 -6 14 -3 33 6 23 12 10 -6 -53 -68 -86 -86
-167 -138 -215 -138 -17 0 -24 -4 -19 -11 22 -36 180 32 264 113 115 110 178
158 270 205 52 26 109 58 127 71 17 12 38 22 46 22 9 0 29 11 45 25 17 14 34
25 40 25 5 0 12 7 16 15 3 8 16 15 28 15 13 0 43 12 68 26 56 33 252 132 287
145 23 8 25 7 20 -11 -7 -29 8 -25 29 7 9 15 19 22 21 16 7 -19 -35 -91 -57
-98 -27 -9 -16 -25 13 -18 48 12 97 80 97 136 0 19 11 28 53 47 28 14 77 40
107 59 30 19 69 35 86 37 17 1 64 19 105 40 41 22 81 40 89 40 23 3 183 65
200 78 27 21 70 36 105 36 53 0 65 -9 65 -45 0 -40 -32 -81 -97 -124 -59 -39
-35 -40 33 -2 59 34 111 90 120 129 8 32 72 132 85 132 5 0 39 28 76 61 38 34
97 87 132 118 35 31 108 99 163 151 55 52 104 97 110 99 6 2 18 10 27 18 9 7
31 25 48 39 18 14 38 37 45 51 7 15 37 39 68 56 54 28 133 85 177 126 12 12
25 21 28 21 3 0 57 40 119 89 63 49 140 106 172 128 32 21 81 54 111 73 29 19
98 65 153 103 55 37 103 67 106 67 4 0 34 17 68 38 49 31 74 40 129 46 72 7
75 5 39 -36 -25 -29 2 -20 31 10 39 41 36 69 -8 78 -19 3 -41 4 -48 1 -20 -7
-84 23 -170 82 -84 56 -96 69 -76 82 19 12 52 11 44 -1 -3 -6 -2 -10 3 -10 12
0 24 29 17 40 -10 16 -467 -16 -625 -45 -47 -8 -105 -18 -130 -21 -90 -12
-418 -108 -483 -141 -16 -8 -35 -13 -44 -11 -12 2 -11 8 8 32 28 36 21 33 -72
-27 -78 -51 -113 -73 -589 -354 -712 -422 -1225 -704 -1507 -828 -94 -41 -176
-75 -181 -75 -12 0 -58 75 -123 199 -36 68 -64 103 -152 190 -107 104 -109
107 -104 146 2 22 14 60 26 85 41 81 98 253 120 356 11 56 23 109 27 117 3 9
31 35 62 58 32 23 71 55 89 70 33 29 62 30 84 3 9 -11 8 -18 -5 -32 -9 -10
-16 -24 -16 -31 0 -6 -16 -21 -35 -32 -19 -12 -35 -25 -35 -30 0 -4 19 -13 43
-19 90 -23 92 -25 98 -63 6 -39 -4 -57 -34 -57 -17 0 -17 -1 2 -29 12 -16 21
-33 21 -39 0 -5 6 -15 14 -21 14 -12 30 -124 29 -206 -1 -34 -9 -64 -27 -95
-14 -25 -26 -56 -26 -69 l0 -23 33 24 c81 62 107 60 99 -8 -5 -50 7 -57 32
-19 22 33 44 32 52 -2 3 -16 9 -39 14 -53 7 -24 9 -22 29 25 12 28 26 57 31
65 40 64 50 99 91 325 20 110 42 202 59 240 5 11 11 36 15 56 3 21 13 43 22
50 15 12 16 11 11 -8 -7 -27 0 -29 18 -5 16 21 19 0 4 -29 -14 -25 -2 -24 28
4 l25 22 -6 -22 c-6 -27 1 -29 20 -5 14 16 14 16 9 0 -7 -23 2 -23 27 -1 19
17 19 17 12 -7 -7 -20 -5 -23 6 -14 20 16 63 -1 55 -22 -4 -9 -2 -13 5 -8 8 4
9 -1 4 -15 -6 -19 -4 -21 12 -12 10 5 35 13 55 16 21 3 42 14 47 23 9 18 -3
206 -17 257 -6 20 -16 31 -30 33 -12 2 -22 -2 -22 -8 0 -18 -38 7 -45 31 -5
15 -1 25 14 35 37 27 18 109 -44 182 l-28 33 22 23 c28 30 27 36 -9 36 -17 0
-47 7 -67 15 -46 19 -78 19 -113 -1 -27 -17 -29 -16 -116 34 -85 49 -104 56
-166 66 -15 3 -48 21 -74 40 -59 45 -119 73 -269 126 -66 23 -148 57 -182 76
-34 19 -64 30 -67 25 -8 -13 62 -99 121 -149 64 -53 95 -121 91 -195 l-3 -51
-73 -28 c-77 -29 -141 -69 -207 -128 -22 -20 -65 -53 -95 -75 -30 -21 -113
-90 -183 -154 -70 -64 -140 -121 -155 -128 -31 -13 -223 -33 -313 -33 -45 0
-73 8 -132 36 -47 22 -109 41 -163 51 -56 9 -98 23 -118 37 -61 45 -212 96
-283 96 -48 0 -48 0 -57 100 -3 39 -19 83 -55 155 -58 115 -72 165 -48 165 10
0 20 -14 26 -35 5 -19 19 -47 30 -61 15 -19 21 -41 21 -75 0 -53 18 -73 73
-83 15 -2 36 -7 46 -11 27 -8 33 7 14 35 -51 72 -92 190 -93 263 0 15 -9 47
-19 70 -35 76 -36 96 -10 143 26 48 49 64 49 35 0 -70 47 -108 95 -77 35 23
38 21 30 -24 -8 -49 1 -52 21 -5 24 59 19 107 -17 138 -21 18 -29 32 -24 45 9
30 -12 71 -40 78 -18 4 -38 -2 -72 -24 -129 -80 -163 -88 -163 -37 0 28 -40
75 -65 75 -25 0 -55 -38 -55 -69 l0 -30 -57 26 c-32 14 -77 43 -100 65 -63 56
-91 50 -121 -31 -21 -54 -25 -86 -18 -136 7 -42 26 -64 26 -29 0 11 6 13 19 9
12 -4 29 3 47 18 l28 24 18 -33 c10 -19 18 -40 18 -48 0 -7 9 -25 20 -39 14
-17 20 -40 20 -75 0 -28 5 -63 11 -79 7 -18 8 -58 4 -108 l-8 -80 -49 55 c-27
30 -118 138 -203 240 -85 102 -202 241 -260 310 -150 176 -219 268 -268 357
l-42 78 -3 150 c-3 124 1 177 22 308 14 87 26 175 26 197 0 34 114 389 198
615 86 231 297 698 498 1099 147 293 228 467 235 500 13 71 52 106 117 106 50
0 122 16 122 28 0 4 -28 7 -63 7 -34 0 -74 4 -89 8 -56 15 -77 100 -77 315 -1
304 -48 623 -150 1007 -39 147 -221 700 -266 810 -18 44 -36 107 -40 140 -6
53 -12 65 -50 102 -34 34 -49 43 -76 42 l-34 0 35 -12 c48 -17 80 -68 80 -126
l-1 -46 -70 75 c-115 124 -494 595 -563 702 -9 14 -30 63 -46 108 -34 97 -65
141 -123 174 -51 29 -101 37 -144 25z m500 -9368 l30 -29 -36 -42 c-19 -23
-41 -54 -49 -68 -7 -15 -24 -44 -38 -64 l-25 -38 -81 0 c-101 0 -127 -16 -150
-96 -17 -58 -35 -81 -98 -121 -32 -21 -45 -24 -87 -18 -45 6 -51 5 -79 -23
-24 -24 -30 -39 -30 -72 0 -23 -4 -50 -10 -60 -5 -10 -16 -57 -25 -105 -16
-96 -44 -155 -106 -225 -47 -54 -48 -49 -19 102 10 57 26 145 34 196 19 124
90 270 171 357 84 90 120 135 144 182 22 44 79 78 168 102 23 6 66 23 95 37
73 34 148 29 191 -15z m-919 -793 c10 -40 6 -98 -9 -128 -19 -37 -11 -74 21
-99 l24 -19 -72 -35 c-102 -49 -108 -50 -108 -26 0 48 64 238 100 297 23 38
35 40 44 10z m54 -431 c16 -13 15 -42 -4 -79 -9 -17 -25 -63 -35 -101 -16 -56
-18 -76 -9 -103 6 -18 16 -34 22 -36 18 -6 -27 -91 -79 -148 -41 -45 -49 -50
-88 -50 l-43 0 -12 63 c-19 97 -26 393 -10 412 7 9 19 14 27 11 17 -7 63 10
77 29 6 7 20 15 31 18 28 6 108 -4 123 -16z m-70 -589 c-13 -19 -76 -43 -86
-33 -4 4 80 55 92 55 5 0 2 -10 -6 -22z"/>
</g>
</svg>
