<?xml version="1.0" standalone="no"?>
<!DOCTYPE svg PUBLIC "-//W3C//DTD SVG 20010904//EN"
 "http://www.w3.org/TR/2001/REC-SVG-20010904/DTD/svg10.dtd">
<svg version="1.0" xmlns="http://www.w3.org/2000/svg"
 width="1280.000000pt" height="1280.000000pt" viewBox="0 0 1280.000000 1280.000000"
 preserveAspectRatio="xMidYMid meet">
<metadata>
Created by potrace 1.15, written by Peter Selinger 2001-2017
</metadata>
<g transform="translate(0.000000,1280.000000) scale(0.100000,-0.100000)"
fill="#333333" stroke="none">
<path d="M7539 12494 c-101 -68 -356 -258 -473 -353 -22 -18 -154 -141 -293
-272 -470 -447 -543 -498 -968 -679 -240 -102 -463 -212 -512 -254 -22 -20
-48 -36 -56 -36 -20 0 -57 -47 -57 -71 0 -12 -7 -19 -19 -19 -24 0 -85 -115
-150 -287 -161 -424 -338 -759 -646 -1228 -50 -77 -103 -158 -117 -181 -32
-50 -118 -246 -118 -268 0 -23 -15 -20 -29 7 -20 37 -91 76 -152 83 -132 15
-347 -71 -474 -190 -73 -68 -71 -85 3 -47 49 25 175 51 278 58 80 6 81 5 118
-27 52 -46 60 -65 41 -92 -25 -36 -19 -90 15 -136 37 -51 57 -62 114 -62 39 0
46 -3 46 -20 0 -15 20 -30 82 -59 63 -30 105 -60 174 -125 77 -72 268 -284
311 -346 12 -17 2 -29 -99 -117 -107 -94 -182 -180 -209 -241 l-13 -29 -30 17
c-84 48 -222 29 -401 -55 -71 -33 -161 -93 -152 -101 2 -3 22 2 43 10 47 19
211 46 274 46 61 0 75 -11 72 -53 -3 -27 4 -43 28 -71 29 -32 92 -62 110 -51
4 3 13 -2 20 -10 6 -7 35 -21 63 -31 136 -44 275 -142 432 -306 164 -170 327
-359 335 -389 13 -45 -11 -126 -75 -245 -97 -183 -191 -307 -393 -517 -181
-188 -282 -328 -381 -524 -28 -57 -68 -131 -89 -165 -21 -35 -61 -110 -89
-168 -50 -104 -92 -158 -112 -145 -6 3 -11 15 -11 26 0 29 -23 33 -68 10 -22
-11 -66 -24 -96 -27 -48 -6 -56 -4 -56 10 0 20 -9 20 -34 1 -11 -8 -33 -15
-49 -15 -24 0 -28 3 -22 18 32 75 44 112 35 112 -13 0 -109 -57 -152 -92 -26
-21 -44 -27 -58 -23 -19 6 -17 10 22 45 24 21 41 40 38 43 -3 2 -35 -8 -71
-23 -52 -21 -70 -24 -82 -15 -14 10 -6 21 53 80 38 38 68 71 65 73 -2 2 -38
-14 -79 -37 -41 -22 -78 -41 -81 -41 -15 0 11 59 38 88 l31 32 -32 -6 c-56
-11 -39 22 65 127 59 60 90 99 80 99 -9 0 -46 -11 -83 -25 -36 -14 -68 -25
-70 -25 -2 0 -4 16 -4 35 0 37 13 55 80 108 l35 28 -50 -3 -50 -2 3 39 c4 47
5 48 60 64 23 7 64 21 90 33 l47 20 -30 14 c-16 7 -58 16 -92 19 -56 7 -63 10
-63 29 0 20 13 27 95 54 111 37 245 97 245 110 0 5 -46 12 -102 15 -57 3 -131
11 -165 17 -55 11 -63 15 -63 34 0 17 12 27 53 45 49 22 50 24 27 31 -14 4
-37 8 -51 9 -22 1 -28 7 -31 31 -4 28 -2 31 36 41 23 6 67 27 99 46 73 44 64
53 -55 53 -50 0 -88 4 -88 10 0 5 23 19 50 31 38 16 63 38 101 86 28 35 48 67
44 71 -9 9 -140 9 -182 0 -31 -7 -32 -6 -49 44 -15 47 -15 51 0 60 32 18 146
120 157 140 11 20 10 21 -41 14 -29 -4 -82 -17 -117 -28 -62 -21 -64 -21 -78
-2 -23 31 -18 40 48 91 66 51 107 91 107 104 0 5 -11 9 -25 9 -43 0 -179 -31
-202 -46 -32 -20 -36 -19 -72 26 l-32 40 21 27 c11 14 19 28 16 30 -2 2 -22
-3 -44 -10 -50 -17 -57 -13 -33 22 23 34 45 90 38 97 -6 6 -85 -32 -110 -54
-15 -14 -20 -13 -52 4 -25 13 -33 23 -29 34 14 33 24 104 15 113 -4 4 -28 -14
-54 -42 -57 -65 -70 -65 -61 -3 7 55 -11 135 -29 129 -7 -2 -30 -31 -52 -65
-22 -33 -44 -67 -50 -75 -7 -10 -22 -13 -47 -10 -30 4 -39 11 -47 34 -14 41
-50 89 -65 89 -16 0 -34 -38 -42 -90 -8 -48 -29 -53 -38 -9 -9 48 -45 121 -55
115 -9 -6 -33 -74 -45 -127 -5 -24 -8 -25 -68 -22 -35 2 -78 6 -97 9 -30 5
-33 8 -28 32 3 15 17 83 32 152 19 90 25 139 20 175 -8 71 -22 89 -30 39 -3
-21 -31 -103 -61 -181 -30 -78 -54 -144 -54 -148 0 -4 -16 -26 -36 -50 -31
-38 -64 -56 -107 -59 -4 -1 -11 -6 -15 -12 -4 -6 -21 -19 -39 -28 -35 -17 -83
-90 -83 -124 0 -24 -15 -37 -25 -22 -3 5 -10 10 -16 10 -17 0 -9 -33 16 -66
14 -18 25 -37 25 -42 0 -5 20 -36 43 -69 24 -32 46 -65 49 -73 27 -79 -217
-335 -338 -355 -73 -12 -71 -11 -67 -63 3 -26 -1 -81 -7 -122 -31 -188 -23
-236 50 -284 53 -36 83 -39 114 -15 22 17 42 22 101 23 80 1 121 20 69 31 -16
4 -40 11 -54 17 -23 10 -23 12 -5 15 11 2 27 7 35 10 13 4 13 6 -1 12 -27 10
-6 51 27 51 18 0 25 4 21 14 -9 23 21 55 55 58 32 3 53 28 24 28 -9 0 -16 3
-16 8 1 13 27 42 39 42 6 0 11 9 11 19 0 21 63 81 85 81 7 0 20 3 29 6 11 4
16 0 16 -14 0 -22 -49 -135 -61 -140 -4 -2 -5 -12 -2 -22 7 -25 -28 -28 -52
-4 -9 9 -18 14 -21 11 -8 -8 24 -65 43 -77 16 -9 15 -10 -4 -5 -25 7 -30 -4
-11 -23 9 -9 9 -12 -1 -12 -9 0 -6 -10 8 -34 12 -18 21 -42 21 -52 1 -11 11
-38 23 -62 l23 -43 61 56 c74 67 97 103 112 174 14 66 57 143 107 191 20 19
42 46 49 60 22 43 131 140 157 140 14 0 36 13 51 28 27 28 28 31 26 144 -1
110 8 158 31 158 5 0 12 -5 15 -10 4 -6 15 -8 25 -5 10 3 21 1 25 -5 3 -5 14
-10 25 -10 11 0 22 -11 29 -31 6 -17 15 -28 21 -24 6 3 18 -7 28 -24 9 -17 23
-31 31 -31 10 0 12 -8 8 -29 -4 -19 -1 -33 7 -41 11 -8 12 -19 4 -47 -7 -27
-7 -38 4 -44 10 -7 10 -14 0 -41 -24 -60 -25 -68 -8 -68 20 0 20 2 -4 -45 -17
-34 -18 -42 -6 -50 12 -9 12 -15 -1 -40 -9 -16 -17 -41 -18 -55 -1 -15 -14
-43 -29 -63 -15 -19 -31 -49 -36 -67 -8 -28 -7 -33 10 -37 18 -5 17 -9 -15
-47 -59 -72 -86 -169 -51 -182 12 -5 9 -15 -14 -53 -60 -97 -78 -195 -40 -209
19 -7 17 -13 -31 -97 -83 -143 -110 -209 -116 -277 l-6 -61 31 6 c31 6 32 5
32 -28 0 -18 -7 -67 -16 -107 -17 -79 -23 -216 -11 -262 7 -24 12 -28 38 -24
40 6 52 -17 83 -165 25 -116 47 -174 70 -183 7 -3 24 0 38 5 35 13 55 -10 112
-130 55 -115 72 -134 110 -119 15 5 32 8 37 4 5 -3 9 -38 9 -79 0 -41 5 -86
10 -101 9 -24 14 -26 45 -21 43 7 55 -10 55 -77 l0 -46 -52 0 c-54 0 -349 35
-402 48 -16 4 -35 16 -42 27 -12 18 -11 25 12 59 17 25 27 54 29 85 2 46 0 49
-59 108 -34 34 -74 66 -89 72 -30 12 -117 4 -117 -10 0 -5 17 -16 39 -25 59
-23 62 -42 30 -162 -39 -144 -42 -148 -130 -156 -40 -4 -102 -19 -137 -32
l-65 -24 -44 26 -44 26 -93 -16 c-129 -22 -187 -21 -219 4 -14 11 -29 29 -32
40 -10 32 -25 23 -25 -14 0 -44 13 -79 40 -106 11 -11 16 -20 11 -20 -5 0 -21
15 -35 33 l-26 32 0 -35 c0 -48 32 -97 77 -118 21 -9 44 -23 51 -30 7 -6 33
-12 57 -12 25 0 65 -7 90 -15 41 -14 47 -14 67 0 33 22 56 19 95 -15 24 -22
44 -30 71 -30 20 0 54 -5 74 -10 33 -10 45 -7 121 30 l85 40 128 0 c71 1 152
-3 179 -9 69 -13 202 -62 315 -114 137 -64 439 -176 507 -188 36 -7 67 -19 83
-34 14 -13 41 -31 62 -39 30 -13 37 -22 43 -54 3 -21 1 -51 -5 -66 -13 -36 -7
-43 23 -27 35 18 59 66 59 117 1 47 8 53 28 29 7 -8 39 -33 72 -55 72 -48 128
-55 128 -17 1 41 17 -4 24 -66 3 -32 35 -149 71 -261 70 -221 103 -355 106
-431 1 -28 -4 -115 -11 -195 -12 -136 -15 -146 -39 -167 -14 -12 -44 -25 -66
-29 -46 -7 -86 -26 -104 -48 -9 -11 -31 -16 -70 -16 -48 0 -61 -4 -81 -25 -13
-14 -29 -25 -36 -25 -7 0 -41 -24 -76 -54 -35 -29 -81 -65 -104 -79 -41 -25
-86 -95 -105 -161 -10 -34 6 -110 27 -127 12 -9 14 -4 14 29 0 23 4 44 10 47
6 3 10 -4 10 -17 0 -14 6 -32 13 -43 13 -16 15 -14 21 23 3 23 17 54 31 69
l25 28 20 -25 c20 -26 23 -23 20 21 -1 23 11 33 95 84 111 67 175 84 324 85
77 0 106 5 159 26 53 21 69 24 94 15 47 -16 94 -13 198 13 52 13 100 25 105
26 45 10 80 -2 117 -42 l38 -41 0 35 c0 19 -10 55 -23 81 l-24 45 86 6 c104 7
277 60 402 123 48 24 96 43 108 43 12 0 47 -13 79 -29 90 -45 232 -86 262 -74
50 18 99 -3 130 -57 15 -26 19 -7 9 45 -7 38 -17 57 -44 81 -19 17 -35 37 -35
45 0 54 -88 118 -162 119 l-37 0 21 48 c11 26 26 71 33 100 19 76 56 133 133
201 105 95 390 297 461 327 59 25 66 26 90 13 14 -8 35 -29 46 -46 27 -43 35
-41 35 9 0 46 -34 105 -77 133 -37 25 -22 28 28 7 25 -11 132 -47 239 -81 254
-80 280 -90 280 -107 0 -18 -261 -346 -292 -369 -13 -8 -69 -64 -124 -125 -84
-90 -110 -126 -150 -207 -43 -87 -68 -127 -119 -185 -9 -11 -29 -18 -50 -18
-30 0 -40 -6 -70 -49 -28 -38 -42 -50 -71 -54 -52 -9 -119 -43 -167 -87 -23
-21 -59 -53 -79 -70 -36 -30 -69 -102 -55 -116 4 -4 20 7 36 25 32 34 58 39
76 15 11 -16 15 -16 59 -1 45 15 47 15 40 -1 -17 -39 -28 -132 -17 -143 8 -8
17 -1 32 29 24 47 37 58 45 37 12 -31 68 -14 122 37 l32 30 7 -31 c9 -40 21
-39 34 2 10 30 14 32 59 32 42 0 57 6 103 41 39 30 67 43 103 48 26 3 87 23
135 44 l86 38 80 -28 c62 -22 95 -28 145 -26 63 3 65 2 85 -29 11 -18 23 -32
28 -33 16 0 6 96 -13 128 -11 18 -20 44 -20 59 0 51 -54 99 -142 127 -15 4
-15 9 -1 63 10 38 13 77 9 111 -4 30 -2 71 4 93 15 55 95 158 208 269 54 52
134 134 178 183 57 61 88 87 104 87 15 0 41 -18 72 -50 27 -28 53 -48 58 -45
17 10 11 78 -9 111 -11 17 -39 48 -64 69 -24 20 -72 70 -106 111 -77 90 -170
162 -281 216 -47 22 -107 60 -135 83 -63 54 -204 142 -259 162 -22 8 -92 25
-154 38 -112 23 -162 44 -162 68 0 6 15 62 34 122 68 217 97 321 106 377 6 40
19 69 44 102 19 26 51 79 71 120 l36 73 117 -44 c64 -24 148 -55 186 -70 79
-30 365 -200 415 -246 18 -18 138 -144 266 -282 278 -299 333 -353 535 -525
180 -154 240 -194 370 -251 52 -22 165 -72 251 -110 85 -37 218 -93 295 -123
178 -69 536 -175 617 -182 73 -7 533 11 659 26 112 13 388 65 458 87 61 19
401 184 495 241 33 19 117 78 186 129 103 75 145 115 221 206 129 153 214 264
347 449 107 149 114 163 165 305 30 81 79 218 111 303 115 313 115 313 131
545 14 198 14 210 -2 222 -23 17 -69 17 -81 1 -6 -7 -19 -98 -31 -203 -17
-157 -26 -202 -50 -260 -25 -61 -205 -457 -278 -614 -37 -79 -205 -281 -405
-486 -158 -161 -188 -187 -280 -241 -146 -86 -178 -102 -409 -194 -147 -58
-228 -85 -285 -93 -106 -16 -782 -14 -882 2 -95 15 -407 149 -648 278 -99 53
-234 125 -299 160 -133 71 -201 119 -246 175 l-31 38 21 41 c12 22 19 43 17
45 -2 3 -18 -7 -35 -21 -16 -14 -34 -25 -39 -25 -5 0 -32 27 -61 60 -53 59
-53 60 -37 90 17 33 11 39 -17 13 -17 -15 -20 -15 -49 13 -59 56 -112 133
-102 147 14 17 44 109 38 115 -2 3 -28 -7 -57 -21 -40 -20 -55 -23 -66 -15
-28 23 -32 45 -16 83 21 51 15 58 -28 37 l-36 -19 -72 89 c-63 77 -72 93 -66
118 6 33 4 35 -24 20 -14 -8 -21 -4 -35 16 -16 25 -16 29 13 98 33 81 46 126
35 126 -5 0 -40 -24 -80 -54 l-71 -54 -32 33 c-18 18 -56 50 -86 71 -43 31
-53 43 -49 59 15 50 28 145 22 151 -7 7 -77 -35 -113 -68 -31 -28 -36 -9 -13
52 11 29 19 62 17 72 -2 16 -12 11 -55 -32 l-52 -50 -73 46 c-40 26 -74 48
-76 49 -2 2 15 31 37 66 22 35 36 65 31 67 -5 2 -39 -17 -75 -42 -59 -41 -85
-54 -85 -42 0 2 7 20 15 40 18 43 11 45 -26 10 -26 -25 -31 -26 -59 -14 -16 7
-30 16 -30 20 0 4 9 33 20 66 12 32 28 86 36 119 8 33 17 68 20 78 4 11 0 17
-10 17 -14 0 -125 -125 -174 -197 -21 -30 -25 -31 -55 -21 -17 6 -33 11 -34
12 -1 1 5 25 13 55 7 30 12 57 9 60 -3 2 -20 -10 -38 -27 -18 -18 -35 -32 -38
-32 -3 0 5 39 17 88 13 48 23 100 23 116 1 29 1 29 -19 11 -11 -10 -49 -60
-83 -110 l-62 -92 -35 12 c-33 11 -34 14 -31 54 3 54 -8 123 -20 115 -5 -3
-24 -33 -42 -67 l-32 -62 -6 90 c-3 50 -4 92 -1 95 2 3 67 8 145 11 78 3 150
9 159 13 13 6 38 -9 99 -59 44 -37 83 -65 85 -62 6 5 -34 56 -93 118 l-43 45
17 34 c19 39 21 178 4 295 -6 39 -11 111 -11 161 l0 91 106 22 c58 12 124 31
148 42 l42 21 115 -57 c98 -49 111 -53 89 -29 -14 14 -58 51 -98 81 -63 47
-72 57 -65 76 16 45 5 192 -25 332 -17 77 -32 178 -34 224 l-3 84 120 110
c133 121 139 124 348 213 137 58 161 65 310 88 283 44 249 46 366 -20 56 -31
104 -54 108 -50 11 10 -58 67 -154 125 -226 138 -624 424 -676 485 -10 12 -31
40 -48 64 l-30 42 114 134 c120 143 127 149 477 398 134 95 138 97 430 213
l294 118 46 -24 c25 -13 73 -48 108 -77 47 -40 62 -48 62 -35 0 47 -82 123
-190 178 -19 10 -78 59 -130 109 -52 50 -149 140 -214 200 -113 102 -125 117
-231 285 l-112 176 -31 160 c-25 132 -32 195 -37 360 -6 199 -6 201 25 335 65
283 87 354 153 486 35 71 70 146 76 167 7 20 14 37 15 37 2 0 59 -11 126 -25
68 -14 125 -23 127 -21 11 11 -90 57 -162 74 -66 16 -87 27 -121 59 -32 31
-76 54 -195 102 -174 69 -186 76 -367 219 -120 95 -140 116 -248 259 -127 169
-133 181 -190 413 -24 97 -26 117 -21 258 l5 153 100 132 c86 114 111 140 176
183 69 45 89 64 68 64 -4 0 -60 -34 -123 -76z m-1119 -7549 c0 -30 -22 -115
-30 -115 -12 0 -17 114 -5 122 17 12 35 9 35 -7z m-140 -32 c0 -5 -4 -14 -9
-22 -7 -12 -15 -12 -33 -4 l-23 11 25 10 c31 13 40 14 40 5z m-495 -1692 c9
-18 14 -35 12 -37 -4 -5 -159 25 -166 31 -2 2 23 28 55 59 l59 54 11 -37 c7
-21 19 -52 29 -70z m-531 -226 c75 -71 108 -94 200 -140 61 -30 192 -81 291
-115 99 -34 184 -65 188 -69 5 -5 -13 -22 -40 -38 -26 -17 -101 -76 -167 -132
-65 -56 -146 -124 -180 -149 -75 -58 -201 -189 -247 -257 -18 -27 -53 -71 -77
-97 -37 -39 -51 -48 -79 -48 -19 0 -48 -7 -65 -16 -17 -9 -63 -20 -102 -26
-39 -5 -96 -21 -126 -35 -64 -31 -188 -154 -197 -195 -9 -46 -29 -53 -25 -9 2
20 -3 88 -12 151 -20 141 -20 225 -2 326 27 148 28 248 7 429 -11 94 -28 194
-36 223 -11 37 -13 57 -6 66 7 9 6 19 -4 34 -10 13 -11 23 -5 27 5 3 56 5 114
3 57 -2 108 1 112 5 5 4 3 16 -3 26 -7 11 -9 22 -6 25 4 3 50 6 103 6 65 0
102 4 115 13 12 10 14 16 7 21 -36 22 26 55 103 55 49 1 52 -1 139 -84z"/>
</g>
</svg>
