<?xml version="1.0" standalone="no"?>
<!DOCTYPE svg PUBLIC "-//W3C//DTD SVG 20010904//EN"
 "http://www.w3.org/TR/2001/REC-SVG-20010904/DTD/svg10.dtd">
<svg version="1.0" xmlns="http://www.w3.org/2000/svg"
 width="1280.000000pt" height="1280.000000pt" viewBox="0 0 1280.000000 1280.000000"
 preserveAspectRatio="xMidYMid meet">
<metadata>
Created by potrace 1.15, written by Peter Selinger 2001-2017
</metadata>
<g transform="translate(0.000000,1280.000000) scale(0.100000,-0.100000)"
fill="#333333" stroke="none">
<path d="M12670 12019 c-130 -94 -328 -219 -514 -323 -73 -41 -137 -87 -194
-140 -139 -127 -175 -150 -307 -196 -72 -24 -157 -63 -213 -96 -90 -54 -349
-182 -522 -259 -118 -52 -425 -158 -611 -210 -85 -25 -172 -51 -192 -60 -131
-55 -480 -270 -541 -334 -46 -48 -29 -54 120 -37 71 8 151 16 179 18 l49 2 18
-64 c9 -36 17 -90 17 -120 1 -49 -31 -371 -60 -610 -35 -295 -105 -587 -200
-844 -40 -105 -94 -261 -121 -346 -135 -426 -109 -384 -297 -479 -180 -91
-325 -150 -571 -234 -164 -55 -183 -60 -305 -68 -71 -4 -175 -15 -230 -24 -55
-8 -188 -18 -295 -22 -210 -6 -326 4 -409 37 l-46 18 -6 63 c-4 35 -10 94 -14
130 l-8 65 58 80 c31 43 74 115 95 159 70 148 75 185 24 185 l-26 0 35 48
c134 184 141 377 19 505 -20 20 -44 37 -53 37 -11 0 -32 -24 -55 -62 -59 -99
-100 -153 -149 -192 l-44 -37 -68 11 c-37 6 -78 13 -90 16 -36 7 -94 114 -98
180 -2 30 -11 67 -21 82 l-17 26 -28 -34 -28 -33 -36 31 c-87 77 -281 145
-451 157 -266 21 -587 -112 -716 -295 l-42 -60 -61 60 c-50 49 -64 58 -73 48
-21 -26 -25 -93 -8 -151 22 -74 12 -98 -52 -125 -28 -12 -59 -22 -69 -22 -10
0 -35 -9 -56 -20 l-38 -20 -45 30 c-44 31 -86 79 -151 173 -39 57 -60 59 -102
12 -120 -137 -99 -338 54 -504 l56 -60 -58 2 c-53 2 -58 0 -61 -20 -8 -52 134
-243 247 -333 l43 -35 2 -140 c2 -77 6 -147 10 -156 7 -15 2 -16 -41 -7 -111
23 -197 79 -423 273 -69 59 -231 197 -360 305 -423 355 -658 573 -846 786
-146 165 -205 218 -359 314 -55 34 -136 93 -180 130 -132 112 -329 311 -371
375 -50 74 -107 175 -103 179 2 2 33 0 69 -5 36 -5 112 -10 170 -12 140 -3
140 5 8 115 -119 98 -237 219 -278 285 -16 25 -41 76 -55 112 -37 98 -120 173
-281 254 -81 41 -184 75 -549 182 -768 226 -916 281 -1509 561 -121 57 -223
104 -228 104 -4 0 -8 -366 -8 -814 l0 -815 68 5 c131 9 524 24 617 24 l94 0
31 -97 c64 -204 77 -456 30 -590 -26 -76 -65 -109 -208 -179 -65 -32 -111 -60
-109 -67 4 -13 15 -13 203 -2 118 7 137 6 201 -13 107 -33 149 -63 667 -472
559 -441 1101 -823 1651 -1165 149 -92 312 -195 364 -228 l93 -60 -35 -18
c-38 -20 -61 -61 -72 -128 -6 -38 -19 -55 -111 -146 -66 -66 -105 -113 -109
-131 -4 -16 -13 -45 -20 -66 -33 -87 -57 -204 -52 -253 3 -34 1 -57 -9 -70
-26 -35 -17 -80 26 -130 22 -25 40 -52 40 -58 0 -7 21 -34 45 -60 25 -26 45
-51 45 -55 0 -5 39 -42 86 -83 47 -41 95 -90 107 -109 31 -50 94 -116 157
-165 30 -23 62 -55 70 -69 28 -54 97 -82 235 -96 139 -14 198 -39 262 -109 64
-71 161 -146 222 -173 90 -38 163 -43 301 -18 199 35 200 35 256 7 92 -47 193
-156 252 -272 36 -71 34 -79 -35 -124 -116 -78 -377 -365 -492 -540 -69 -107
-143 -256 -170 -345 -17 -53 -33 -81 -69 -120 -107 -114 -126 -178 -113 -388
7 -138 7 -153 -16 -235 -44 -166 -41 -278 17 -566 17 -81 30 -163 30 -182 0
-20 -13 -64 -29 -99 -16 -36 -34 -88 -40 -117 -6 -29 -21 -69 -34 -88 -21 -35
-146 -187 -312 -381 -45 -52 -119 -142 -165 -200 -177 -222 -419 -453 -519
-497 -66 -29 -65 -28 -133 -74 -29 -19 -80 -53 -113 -74 -77 -50 -234 -211
-270 -277 -33 -60 -26 -60 63 0 85 58 113 70 154 65 52 -7 97 11 156 61 45 39
244 146 270 146 5 0 30 9 56 20 43 20 47 20 71 4 14 -9 25 -21 25 -27 0 -6
-35 -47 -78 -92 -140 -147 -260 -305 -262 -343 0 -7 -12 -31 -26 -54 -15 -23
-39 -73 -55 -110 l-28 -68 26 0 c19 0 47 20 99 70 53 52 79 70 99 70 50 0 95
32 178 128 45 52 90 105 100 118 11 13 51 51 91 83 58 47 82 61 122 67 48 8
66 7 91 -1 15 -5 3 -47 -32 -115 -13 -25 -33 -79 -46 -120 -12 -41 -39 -111
-60 -155 -21 -44 -42 -95 -45 -113 l-7 -32 125 0 125 0 30 73 c17 39 34 83 38
97 4 14 20 50 35 80 15 30 39 92 54 137 22 66 33 86 59 102 18 12 52 34 77 51
49 34 100 40 100 13 0 -9 7 -40 17 -69 15 -49 15 -56 0 -96 -32 -82 -15 -142
53 -195 19 -15 18 -93 -2 -150 -15 -40 -14 -43 1 -43 35 0 94 106 117 212 14
60 16 134 16 418 l-1 344 39 141 c21 77 49 181 62 230 24 95 177 422 223 477
32 38 45 88 45 178 l0 76 48 45 c26 25 76 66 112 91 121 85 185 166 226 288
27 81 24 263 -5 344 -12 33 -20 61 -18 62 2 2 19 -1 38 -6 49 -14 116 -12 179
6 32 9 151 21 280 29 124 7 232 16 240 19 11 4 34 -31 90 -136 89 -169 128
-214 295 -340 134 -101 170 -118 257 -118 77 0 122 26 264 153 147 131 180
174 263 342 l63 130 112 -3 c61 -1 145 1 186 5 54 6 92 5 135 -5 67 -16 220
-11 269 8 23 8 31 8 38 -2 13 -20 -1 -115 -29 -198 -51 -151 -38 -330 35 -480
45 -91 146 -201 272 -295 96 -72 155 -140 169 -194 5 -20 12 -72 16 -116 4
-58 13 -91 30 -120 87 -146 173 -357 186 -458 6 -45 19 -138 29 -207 19 -131
15 -273 -9 -350 -6 -19 -11 -58 -11 -86 0 -28 -7 -73 -15 -100 -20 -66 -21
-245 -2 -300 23 -62 39 -84 65 -84 21 0 22 3 16 50 l-6 49 41 17 c56 22 81 56
81 111 0 24 -5 53 -10 64 -9 15 -6 26 10 48 11 16 20 36 20 45 0 9 12 21 27
27 30 11 57 6 152 -29 62 -23 69 -33 111 -157 36 -106 72 -163 116 -181 19 -8
37 -21 41 -29 4 -11 22 -15 67 -15 l61 0 0 98 c0 90 -3 104 -38 190 -21 52
-37 96 -34 98 3 3 42 0 88 -7 77 -11 89 -10 135 8 l51 20 34 -26 c19 -14 54
-47 78 -73 59 -65 113 -80 183 -53 13 5 35 -10 83 -56 36 -34 68 -60 71 -56 9
9 -34 131 -59 169 -12 18 -28 45 -34 60 -7 15 -29 46 -49 68 l-38 42 40 -7
c98 -15 160 -40 209 -82 69 -60 102 -69 169 -48 63 20 67 18 156 -56 34 -28
64 -49 67 -46 13 13 -58 118 -122 180 -70 69 -194 157 -219 157 -8 0 -44 16
-80 35 -50 26 -79 35 -115 35 -46 0 -54 4 -144 80 -110 92 -229 219 -356 380
-50 63 -142 178 -204 255 -160 197 -183 231 -201 302 -8 34 -30 91 -47 125
-81 160 -80 154 -77 501 4 423 -14 527 -128 746 -43 83 -53 111 -49 135 8 38
-29 323 -50 393 -8 28 -37 79 -63 114 -60 80 -55 70 -92 169 -35 92 -109 223
-188 335 -122 173 -418 459 -516 500 l-37 16 6 72 c3 40 15 101 27 137 21 64
95 220 121 252 15 19 35 16 212 -33 203 -56 303 -43 453 58 37 24 92 51 122
59 30 8 143 19 250 24 359 17 351 14 475 179 27 35 58 87 69 115 12 28 36 77
54 108 67 116 66 228 -3 395 -67 162 -78 208 -80 338 -2 99 -7 133 -28 192
-62 176 -154 298 -283 372 -56 33 -144 107 -144 122 0 4 133 121 297 261 690
590 640 551 704 534 27 -7 45 -6 65 2 24 12 26 16 21 58 -6 57 13 84 160 225
220 210 445 364 808 552 359 186 448 249 802 575 225 205 381 334 530 435 l92
62 1 1158 c0 636 -1 1157 -3 1157 -1 0 -58 -41 -127 -91z m-3753 -5325 c34
-23 45 -25 100 -21 93 7 95 -1 38 -131 -26 -59 -56 -125 -65 -147 -10 -22 -26
-68 -35 -103 -16 -56 -21 -63 -39 -58 -11 3 -51 11 -89 18 -80 15 -91 26 -131
132 -14 37 -38 89 -53 116 -15 27 -25 50 -23 52 3 2 49 36 103 76 87 65 127
89 149 91 4 1 24 -11 45 -25z m-4752 -126 c39 10 42 9 150 -58 60 -37 163 -98
228 -135 64 -37 117 -69 117 -72 0 -3 -5 -23 -12 -44 l-11 -39 -62 0 c-68 0
-52 -9 -213 117 -70 55 -180 126 -309 200 -26 15 -43 32 -43 43 0 18 2 18 58
-2 47 -17 64 -19 97 -10z"/>
</g>
</svg>
