<?xml version="1.0" standalone="no"?>
<!DOCTYPE svg PUBLIC "-//W3C//DTD SVG 20010904//EN"
 "http://www.w3.org/TR/2001/REC-SVG-20010904/DTD/svg10.dtd">
<svg version="1.0" xmlns="http://www.w3.org/2000/svg"
 width="853.000000pt" height="1280.000000pt" viewBox="0 0 853.000000 1280.000000"
 preserveAspectRatio="xMidYMid meet">
<metadata>
Created by potrace 1.15, written by Peter Selinger 2001-2017
</metadata>
<g transform="translate(0.000000,1280.000000) scale(0.100000,-0.100000)"
fill="#333333" stroke="none">
<path d="M3744 12181 c7 -49 0 -54 -70 -52 -29 0 -55 -3 -58 -7 -2 -4 -20 -7
-38 -7 -18 1 -39 -5 -46 -12 -7 -7 -27 -12 -45 -10 -30 2 -33 6 -41 50 -4 26
-12 47 -17 47 -18 0 -21 -30 -6 -73 l15 -44 -77 24 c-102 32 -139 32 -168 -1
-12 -14 -27 -26 -32 -26 -13 0 -31 -33 -31 -57 0 -27 29 -62 37 -44 12 30 43
49 91 56 28 4 56 4 61 1 6 -4 -7 -23 -29 -42 -49 -45 -74 -107 -68 -173 5 -48
5 -48 -21 -42 -14 4 -30 17 -36 29 -14 31 -51 39 -75 17 -18 -17 -21 -16 -61
4 -35 18 -40 19 -35 6 3 -9 6 -19 6 -21 0 -2 9 -4 19 -4 32 0 52 -12 62 -36 6
-18 16 -24 37 -24 15 0 32 4 38 10 6 6 25 5 54 -4 50 -15 43 -20 -42 -32 -40
-5 -79 -28 -70 -41 7 -10 0 -23 -12 -23 -8 0 -19 -12 -24 -27 -8 -22 -43 -46
-173 -117 -90 -49 -188 -103 -218 -120 -58 -34 -324 -277 -356 -325 -16 -25
-29 -32 -67 -37 -53 -7 -61 -20 -22 -34 14 -6 24 -13 22 -18 -32 -71 -56 -95
-155 -148 -57 -31 -103 -58 -103 -61 0 -3 34 -3 75 0 41 4 75 5 75 2 0 -2 -5
-15 -11 -28 -8 -18 -26 -29 -71 -41 -56 -15 -213 -81 -231 -96 -4 -4 19 -7 52
-7 65 -1 164 -21 159 -32 -3 -8 -143 -140 -233 -218 -32 -29 -56 -53 -53 -53
3 0 40 11 82 25 42 14 93 25 114 25 l37 0 -50 -29 c-27 -16 -78 -54 -112 -84
-34 -31 -70 -60 -80 -65 -10 -6 -15 -13 -12 -16 9 -9 107 -26 149 -26 20 0 39
-3 43 -6 3 -4 -38 -35 -91 -71 -149 -99 -150 -96 4 -88 129 7 194 2 194 -15 0
-5 -15 -12 -32 -16 -46 -9 -92 -43 -150 -108 -58 -65 -52 -68 64 -36 40 11 86
20 103 20 36 0 75 -10 75 -19 0 -3 -40 -28 -88 -55 -95 -54 -210 -157 -249
-223 -38 -65 -26 -101 61 -192 40 -42 90 -82 114 -93 33 -15 41 -23 33 -32 -8
-10 5 -15 56 -25 74 -14 205 -64 223 -86 9 -11 5 -17 -23 -29 -46 -19 -197
-123 -190 -130 4 -3 48 -6 98 -6 146 0 193 -15 118 -38 -21 -6 -69 -36 -108
-67 -38 -30 -87 -68 -107 -83 -21 -15 -37 -31 -38 -36 0 -5 52 -5 118 -1 140
8 121 8 154 6 29 -1 64 -29 51 -41 -4 -4 -24 -13 -43 -19 -41 -13 -88 -58
-159 -151 -59 -77 -53 -82 49 -46 75 27 138 33 171 16 36 -20 21 -44 -54 -93
-65 -43 -215 -192 -204 -203 2 -3 15 -1 28 4 13 5 54 13 92 16 79 9 207 -18
207 -43 0 -8 -18 -30 -40 -48 -22 -19 -61 -62 -87 -96 -26 -34 -61 -74 -78
-89 -36 -33 -27 -34 50 -8 86 30 140 27 176 -9 47 -48 40 -73 -41 -148 -69
-64 -82 -83 -57 -83 6 0 41 -14 76 -30 56 -27 62 -33 56 -53 -4 -12 -9 -48
-12 -80 -5 -54 -9 -60 -55 -102 -28 -25 -54 -45 -59 -45 -5 0 -9 -4 -9 -10 0
-6 28 -10 63 -10 l64 0 11 -51 c7 -29 11 -53 10 -55 -2 -1 -41 -41 -87 -88
-81 -83 -83 -85 -57 -92 15 -3 52 1 85 10 78 22 121 21 121 -2 0 -10 7 -28 16
-40 15 -22 14 -25 -29 -71 -25 -27 -55 -68 -68 -92 -12 -24 -32 -58 -45 -75
-13 -17 -24 -34 -24 -37 0 -10 52 9 117 42 34 17 64 31 67 31 2 0 6 -12 9 -27
3 -16 9 -40 13 -56 5 -23 0 -35 -38 -75 -24 -26 -64 -75 -88 -109 -29 -42 -65
-77 -109 -106 -101 -68 -329 -275 -417 -379 -140 -167 -283 -404 -372 -618
-57 -137 -152 -400 -168 -468 -20 -84 -34 -457 -22 -597 25 -300 110 -591 219
-752 95 -140 308 -358 403 -412 68 -38 287 -111 390 -131 109 -20 265 -7 371
31 48 17 88 30 89 28 2 -2 11 -71 20 -154 9 -82 35 -260 56 -395 50 -309 60
-398 60 -534 0 -60 5 -126 11 -147 9 -30 9 -42 0 -53 -17 -21 -25 -156 -13
-236 11 -74 0 -191 -24 -260 -15 -42 -23 -97 -39 -250 -4 -36 -13 -82 -22
-102 -11 -25 -14 -56 -11 -99 4 -53 3 -59 -9 -43 -12 16 -13 16 -13 1 0 -15
-11 -22 -32 -18 -5 0 -8 -3 -8 -9 0 -5 -7 -6 -17 -3 -11 4 -14 3 -9 -5 5 -8
-1 -12 -16 -12 -16 0 -19 -3 -10 -9 11 -6 9 -9 -6 -13 -27 -7 -38 -65 -16 -89
12 -13 12 -18 2 -22 -11 -4 -11 -6 0 -6 7 -1 10 -6 7 -11 -6 -9 8 -14 28 -11
5 1 6 -3 2 -9 -3 -5 -1 -10 5 -10 7 0 10 -7 6 -15 -4 -12 6 -15 57 -15 54 0
69 -4 113 -34 67 -45 132 -66 205 -66 112 0 194 59 229 166 l22 64 114 0 c64
0 113 3 111 8 -3 4 8 7 24 8 16 1 29 -3 29 -7 0 -5 5 -9 11 -9 6 0 8 10 5 23
-3 12 -3 16 0 10 3 -7 14 -13 25 -13 10 0 19 -4 19 -10 0 -5 4 -10 10 -10 5 0
7 7 4 15 -4 8 -1 15 5 15 6 0 11 -3 11 -7 0 -13 64 -13 72 0 5 9 14 8 37 -6
32 -19 56 -23 46 -7 -3 6 -1 10 4 10 6 0 11 -4 11 -10 0 -5 5 -10 11 -10 5 0
7 5 3 12 -5 8 -3 8 7 2 8 -5 91 -10 184 -11 191 -2 204 -2 225 -10 8 -4 18 -7
23 -8 4 -2 9 -4 12 -5 3 -1 8 -3 13 -5 4 -1 15 -5 25 -10 10 -4 20 -5 23 -3 2
3 30 -1 62 -8 68 -16 168 -18 209 -4 32 12 58 42 92 107 25 50 26 59 5 98 -9
17 -16 46 -15 67 1 28 -8 48 -39 90 -23 29 -48 77 -56 107 -9 29 -24 61 -35
72 -10 10 -21 29 -23 41 -3 13 -16 75 -30 138 -68 309 -86 492 -75 773 4 126
10 252 14 280 3 29 23 241 46 472 41 426 49 613 35 806 l-8 105 59 -4 c46 -3
69 0 99 16 44 23 94 66 94 82 0 24 29 5 90 -59 46 -49 76 -72 103 -79 20 -6
52 -22 69 -37 24 -20 38 -25 60 -21 15 3 41 9 57 12 49 10 65 38 62 103 l-1
25 -30 -29 c-30 -29 -30 -29 -65 -12 -20 9 -41 17 -49 17 -7 0 -23 12 -37 26
-13 15 -39 33 -57 41 -38 16 -48 37 -70 151 -14 70 -14 96 -4 176 6 51 21 115
32 141 11 25 20 62 20 81 0 27 5 37 25 46 14 6 31 21 39 33 8 12 31 26 52 33
22 6 54 27 72 46 19 21 51 41 75 47 58 17 62 23 31 48 -34 27 -97 28 -123 2
-10 -10 -37 -22 -60 -26 -22 -4 -53 -16 -68 -28 -14 -12 -45 -31 -67 -42 -23
-11 -51 -36 -64 -55 -34 -52 -42 -49 -38 15 3 40 10 63 25 79 12 12 21 33 21
47 0 34 23 64 61 79 29 13 30 14 13 27 -41 30 -134 5 -134 -37 0 -10 -8 -21
-19 -25 -30 -9 -54 -43 -71 -98 -12 -39 -21 -52 -35 -53 -41 -3 -103 -25 -108
-38 -8 -19 8 -129 22 -154 18 -33 13 -40 -30 -49 -33 -6 -46 -15 -59 -41 l-18
-33 5 63 c7 84 33 232 81 463 22 105 54 291 72 415 17 124 35 236 39 249 7 24
7 24 29 -13 12 -20 22 -52 22 -71 0 -19 5 -37 10 -40 6 -4 10 14 10 47 l1 53
28 -58 c39 -79 56 -94 30 -26 -28 73 -32 89 -25 89 9 0 93 -178 102 -215 4
-16 10 -32 14 -35 4 -3 19 -27 33 -55 14 -27 26 -42 27 -32 0 10 -11 40 -25
67 -28 56 -58 140 -52 146 2 2 17 -26 33 -63 47 -107 73 -159 74 -145 0 7 -4
20 -10 30 -18 32 -60 163 -51 157 12 -7 55 -100 65 -139 5 -22 10 -26 16 -16
6 9 11 0 18 -31 8 -37 10 -39 11 -14 1 17 -4 46 -10 65 -19 63 -27 100 -20 95
8 -5 23 -39 72 -165 21 -53 51 -108 81 -145 27 -33 46 -64 44 -71 -2 -6 2 -11
9 -11 9 0 3 18 -16 54 -16 30 -26 59 -23 65 5 7 2 8 -6 3 -8 -5 -11 -3 -8 6 3
8 1 22 -4 31 -16 31 0 19 22 -17 12 -19 26 -34 32 -32 6 1 13 -5 15 -13 4 -13
3 -13 -7 0 -9 12 -11 12 -8 1 5 -18 38 -24 38 -7 0 18 -40 129 -52 144 -6 7
-8 15 -5 18 3 3 10 -4 17 -15 6 -12 16 -18 22 -15 6 4 8 3 4 -4 -3 -6 2 -25
13 -43 11 -17 17 -39 14 -48 -4 -14 -3 -14 6 -1 8 12 11 12 17 -3 3 -9 10 -17
15 -17 5 0 2 11 -7 25 -9 14 -18 36 -19 49 -7 56 -95 184 -117 170 -7 -5 -8
-2 -4 5 5 8 -7 25 -31 46 l-38 34 32 -4 c30 -4 32 -2 21 15 -14 22 -3 39 14
22 28 -28 8 -59 -29 -45 -11 4 -14 3 -9 -5 4 -7 13 -12 19 -12 7 0 18 -9 24
-20 7 -10 22 -24 34 -31 15 -8 19 -8 15 0 -11 18 6 13 29 -9 17 -16 22 -17 22
-6 0 8 -3 13 -7 11 -4 -2 -24 14 -45 35 -34 35 -37 45 -13 41 13 -1 1 30 -22
54 -13 14 -25 33 -26 42 -2 8 0 12 4 7 4 -5 22 -25 40 -45 18 -20 35 -44 36
-54 1 -10 10 -19 20 -21 14 -2 15 0 5 12 -6 8 -9 18 -5 21 7 8 -113 133 -127
133 -5 0 -4 -7 3 -15 7 -8 9 -15 5 -15 -4 0 -2 -7 5 -15 7 -8 9 -15 5 -15 -4
0 -2 -7 5 -15 15 -18 0 -20 -20 -2 -12 10 -12 9 -1 -5 7 -10 9 -18 5 -18 -17
0 -35 38 -22 46 7 5 8 3 3 -6 -6 -9 -4 -11 4 -6 9 6 8 13 -5 27 -17 19 -17 20
1 13 14 -6 16 -4 9 7 -5 8 -9 17 -9 21 0 4 -29 40 -65 80 -72 80 -66 81 25 4
65 -55 64 -53 -35 67 -19 23 -26 35 -15 25 24 -19 63 -27 66 -13 1 6 -12 17
-29 25 -16 8 -46 32 -64 53 -34 37 -119 97 -138 97 -5 0 -14 8 -19 19 -6 10
-33 33 -60 50 -42 28 -73 61 -55 61 3 0 42 -27 85 -60 43 -32 79 -55 79 -50 0
5 -38 39 -85 76 -88 70 -109 102 -30 46 47 -33 61 -34 23 -1 -19 15 -20 18 -6
19 9 0 20 -4 23 -10 3 -5 16 -15 28 -20 14 -7 9 1 -13 20 -19 16 -42 30 -51
30 -9 0 -26 8 -37 18 -18 15 -21 32 -25 160 -2 78 0 145 4 148 5 3 9 18 9 34
0 32 -55 356 -76 446 -7 33 -23 123 -34 200 -22 155 -66 394 -80 437 -7 24 -6
28 6 23 9 -3 29 -6 45 -6 26 0 29 -3 27 -30 -1 -16 -3 -30 -4 -30 -2 0 -14 4
-28 10 -40 15 -31 -4 11 -24 29 -14 34 -20 22 -27 -9 -6 -10 -9 -2 -9 14 0 46
-59 57 -104 4 -16 40 -83 80 -150 96 -159 105 -177 132 -266 12 -41 31 -100
42 -130 26 -72 39 -126 57 -229 8 -46 17 -91 19 -100 3 -9 12 -60 20 -115 20
-131 51 -195 114 -233 46 -28 50 -28 202 -28 88 1 172 6 195 13 26 7 59 31 94
66 l53 54 6 113 c8 175 5 228 -17 299 -12 36 -21 85 -21 110 0 65 31 202 50
225 29 33 47 76 75 174 24 87 65 175 107 230 10 13 15 28 12 33 -3 5 5 6 20 2
51 -12 86 -8 86 10 0 8 6 17 13 19 6 3 -1 6 -18 7 -16 1 -39 5 -50 10 -19 9
-19 9 3 16 12 3 22 12 22 19 0 7 6 15 13 18 6 2 9 7 5 11 -3 4 -16 2 -28 -4
-20 -10 -21 -9 -18 12 2 17 9 22 23 20 12 -2 16 0 8 5 -26 18 -19 69 11 77 35
9 136 127 136 159 0 14 5 29 10 32 6 3 7 17 4 31 -4 17 -2 24 8 24 8 0 20 11
26 25 18 38 15 41 -13 15 -39 -37 -29 -10 13 33 22 22 29 35 18 31 -16 -6 -17
-4 -11 17 4 13 15 29 24 36 14 11 14 12 -3 13 -11 0 -28 -7 -38 -17 -46 -42 7
63 63 124 22 24 39 48 39 54 0 7 -14 -6 -31 -27 -47 -59 -80 -75 -55 -26 24
46 37 105 25 113 -7 4 -4 30 10 81 20 72 27 148 15 161 -4 3 -23 -7 -43 -23
-19 -17 -39 -30 -43 -30 -5 0 -8 18 -8 41 0 51 -25 49 -26 -2 -1 -58 -3 -66
-24 -90 l-20 -24 12 35 c6 19 16 41 22 49 8 11 8 13 -1 8 -6 -4 -14 -1 -16 5
-3 7 -6 1 -6 -14 -1 -16 -5 -28 -11 -28 -5 0 -19 -22 -31 -49 -11 -27 -30 -58
-42 -69 l-22 -21 0 62 c-1 36 -9 82 -19 110 -24 60 -30 56 -11 -8 25 -81 16
-192 -18 -239 -12 -16 -13 -14 -11 20 3 35 2 36 -4 9 -8 -29 -8 -29 -14 -6 -8
29 2 124 14 132 5 3 5 39 -1 85 -6 52 -6 80 0 82 6 3 4 10 -3 20 -10 11 -13
72 -12 251 0 130 3 248 7 262 l7 26 94 -5 c111 -6 191 15 321 81 44 23 83 43
86 45 4 2 19 -17 33 -42 15 -25 37 -51 49 -57 12 -6 30 -18 39 -27 17 -14 17
-16 0 -28 -16 -13 -16 -13 1 -14 13 0 16 -6 11 -24 -3 -13 -1 -27 5 -30 16
-10 13 -26 -4 -26 -8 0 -15 -5 -15 -10 0 -7 13 -8 34 -5 l33 7 12 -129 c21
-217 41 -435 46 -495 l5 -58 -39 0 c-34 0 -38 -3 -34 -19 3 -12 11 -17 19 -14
8 3 20 3 28 0 20 -8 8 -57 -13 -57 -10 0 -21 -3 -25 -7 -4 -5 -26 -12 -49 -18
-39 -9 -42 -12 -40 -41 2 -26 -2 -34 -25 -43 -15 -6 -60 -43 -101 -81 -64 -59
-72 -71 -61 -84 7 -9 18 -16 24 -16 7 0 10 -18 7 -52 -7 -114 35 -420 71 -504
6 -16 12 -39 12 -51 1 -22 96 -113 118 -113 6 0 25 -11 42 -24 18 -13 40 -25
51 -27 16 -3 21 -14 23 -48 3 -34 10 -51 33 -72 16 -15 27 -33 24 -41 -3 -7
-28 -28 -55 -46 -32 -20 -50 -39 -50 -52 0 -26 37 -50 78 -50 20 0 31 -4 27
-10 -3 -6 3 -10 14 -10 14 0 21 -6 21 -19 0 -10 3 -33 6 -50 6 -26 3 -33 -12
-37 -16 -4 -19 -13 -17 -47 2 -43 26 -72 50 -62 7 3 20 8 28 11 12 5 15 -2 15
-30 0 -29 -4 -36 -20 -36 -11 0 -20 -4 -20 -10 0 -5 4 -10 9 -10 6 0 6 -12 1
-30 -5 -17 -5 -30 0 -30 5 0 10 -10 12 -22 2 -17 11 -24 31 -26 35 -4 59 15
52 39 -4 12 -1 19 7 19 9 0 9 3 2 8 -14 9 -25 52 -13 52 5 0 9 5 9 10 0 6 -11
10 -24 10 -20 0 -25 6 -28 33 -4 33 -3 33 37 33 40 -1 40 -1 37 34 -1 19 -2
42 -3 52 0 9 -9 18 -20 21 -12 3 -19 14 -19 29 0 12 -3 33 -6 46 -5 16 -2 22
10 22 9 0 16 6 16 14 0 7 13 16 30 19 37 8 72 41 63 63 -3 8 -31 28 -62 43
-63 30 -73 52 -41 86 18 19 20 30 15 68 -6 38 -4 46 12 51 19 7 111 92 156
145 29 35 34 56 17 66 -8 5 -7 11 1 21 28 34 20 352 -14 519 -11 56 -11 61 8
77 20 17 20 17 -5 41 -33 32 -181 109 -197 103 -9 -4 -13 5 -13 28 0 38 -17
50 -56 40 -13 -4 -31 -1 -39 6 -8 7 -21 10 -30 6 -16 -6 -40 28 -30 44 3 6 17
10 30 10 40 0 19 28 -23 32 l-37 3 -8 90 c-4 50 -14 160 -22 245 -8 85 -18
194 -21 241 l-6 87 31 7 c30 6 44 25 19 25 -8 0 -13 14 -14 35 0 19 3 35 8 35
16 0 8 19 -9 22 -15 3 -12 9 16 33 41 37 61 75 63 120 1 41 4 42 34 14 15 -14
29 -19 43 -14 30 9 89 85 93 120 2 22 9 31 25 33 20 3 21 1 12 -35 -14 -61
-11 -120 7 -138 28 -27 38 -12 56 81 10 49 21 103 24 121 6 30 4 33 -56 70
-35 21 -78 53 -96 71 -23 22 -43 32 -63 32 -20 0 -39 9 -55 26 -22 24 -28 26
-68 19 -23 -4 -65 -8 -93 -7 -43 1 -57 -4 -100 -37 -27 -21 -59 -41 -70 -46
-11 -4 -103 -11 -205 -15 -195 -8 -400 5 -400 25 0 6 27 67 60 135 33 68 60
129 60 136 0 6 7 17 15 24 9 7 12 16 7 19 -5 3 -7 22 -4 43 3 26 18 52 54 92
54 60 54 68 2 35 -48 -29 -42 -10 9 28 23 18 58 46 77 63 l35 30 -70 -30 c-38
-16 -72 -27 -74 -24 -3 3 28 38 69 79 41 41 71 75 66 75 -5 0 -29 -11 -53 -25
-57 -34 -55 -24 3 15 25 18 44 34 41 36 -2 2 -32 -4 -66 -15 -33 -10 -61 -17
-61 -15 0 2 36 30 79 64 44 33 83 65 86 70 9 15 -36 3 -103 -27 -29 -13 -55
-23 -58 -23 -3 0 6 15 19 33 33 45 80 128 75 133 -3 2 -33 -14 -67 -36 -34
-22 -64 -40 -67 -40 -3 0 6 15 20 33 13 17 38 55 54 83 l30 52 -64 -29 c-95
-43 -102 -38 -44 36 27 35 50 67 50 70 0 2 -28 -11 -63 -30 -82 -45 -98 -46
-91 -2 3 17 8 38 10 46 3 11 -4 12 -37 7 -44 -7 -44 -7 -7 46 26 37 23 40 -18
23 -20 -8 -38 -15 -41 -15 -7 0 16 37 52 85 20 26 34 49 31 52 -3 3 -24 -2
-48 -12 -24 -9 -50 -20 -58 -23 -8 -3 6 17 31 45 39 41 99 124 99 136 0 2 -30
-11 -67 -29 -38 -18 -79 -35 -92 -39 -22 -7 -23 -5 -17 21 4 16 16 47 26 68
11 22 18 41 17 42 -2 2 -31 -15 -65 -38 -34 -22 -64 -39 -66 -37 -2 2 5 33 16
69 17 55 26 79 56 143 4 8 -9 6 -112 -19 -86 -21 -91 -5 -16 50 34 25 59 46
56 46 -4 0 -34 -11 -68 -25 -34 -14 -63 -24 -64 -22 -2 2 24 27 57 56 33 29
58 55 56 57 -2 2 -37 -7 -77 -21 -40 -14 -79 -25 -86 -25 -14 0 -63 69 -99
139 -36 72 -97 143 -188 221 -76 66 -198 140 -230 140 -7 0 -24 12 -38 26 -13
14 -60 51 -104 81 -44 30 -105 72 -135 94 -58 42 -131 69 -189 69 -35 0 -83
23 -186 88 -36 23 -69 34 -120 41 -63 8 -131 34 -205 76 -47 27 -119 16 -160
-25 -29 -29 -58 -38 -103 -32 -31 3 -37 8 -36 26 4 41 -1 56 -17 56 -14 0 -15
-7 -10 -39z m416 -347 c0 -2 -26 -3 -57 -3 l-56 2 33 17 c31 16 37 16 57 3 13
-9 23 -17 23 -19z m100 -1108 c28 -1 52 -6 54 -13 3 -7 22 -15 43 -18 47 -8
141 -45 167 -65 11 -8 35 -30 54 -47 19 -18 38 -33 41 -33 17 0 99 -88 105
-111 10 -45 227 -201 325 -234 43 -14 49 -21 89 -98 36 -70 45 -101 62 -209
11 -70 27 -143 35 -162 18 -43 19 -76 3 -76 -21 0 -181 90 -194 109 -20 28
-217 115 -399 176 -190 62 -293 115 -414 211 -92 72 -129 129 -140 209 -4 30
-15 63 -25 74 -17 18 -16 25 3 135 20 117 41 165 73 166 9 0 20 5 23 11 5 7
14 4 26 -7 12 -11 37 -17 69 -18z m-805 -250 c-14 -14 -25 -35 -25 -46 0 -29
-23 -70 -57 -102 -59 -57 -238 -121 -396 -143 l-47 -6 21 35 c11 19 30 38 41
42 28 9 96 72 114 106 8 15 20 28 27 28 20 0 131 76 145 99 7 12 19 21 27 21
24 0 107 45 140 76 l30 28 3 -56 c3 -49 0 -59 -23 -82z m1324 -1266 c62 -162
80 -240 91 -385 6 -77 14 -160 16 -185 4 -37 -1 -59 -29 -119 l-33 -74 -12 44
c-6 24 -15 69 -21 99 l-10 55 4 -55 c2 -30 7 -95 11 -144 5 -65 4 -87 -5 -82
-10 6 -16 -6 -12 -27 1 -4 -7 -3 -18 3 -11 5 -22 10 -26 10 -3 0 -4 -31 -1
-70 3 -40 1 -70 -5 -70 -5 0 -9 -17 -9 -37 -1 -34 -2 -36 -14 -20 -27 35 -48
149 -47 247 1 61 -2 91 -8 85 -5 -6 -12 -21 -14 -35 -3 -14 -4 16 -2 65 4 102
-8 90 -26 -26 -8 -50 -8 -89 0 -137 34 -209 41 -258 41 -276 -1 -19 -1 -20
-11 -3 -6 10 -11 32 -11 50 -1 18 -7 46 -15 62 l-13 30 6 -39 c5 -28 4 -37 -5
-32 -6 4 -11 18 -11 31 0 13 -7 28 -15 33 -11 6 -16 28 -18 80 -1 39 -5 72 -8
72 -9 0 -19 -56 -18 -104 0 -39 27 -127 28 -96 1 13 2 13 11 0 13 -20 12 -33
-2 -24 -7 5 -8 3 -4 -5 7 -10 56 -197 56 -210 0 -3 -25 21 -56 53 l-57 58 -4
111 c-4 82 2 174 21 347 30 262 47 349 83 430 52 114 63 194 43 300 -5 29 -7
56 -4 61 3 5 27 9 54 9 l48 0 31 -80z m221 43 c52 -13 98 -28 103 -32 4 -4 0
-27 -9 -52 -8 -24 -24 -80 -34 -124 -10 -44 -27 -116 -38 -160 -11 -44 -23
-104 -27 -132 -4 -29 -10 -55 -14 -58 -12 -7 -39 99 -51 198 -12 97 -42 190
-100 309 l-38 77 56 0 c32 -1 100 -12 152 -26z m1722 -64 c12 -6 32 -24 46
-40 16 -20 33 -29 54 -29 26 0 29 -3 22 -22 -15 -50 -36 -70 -63 -62 -35 9
-61 7 -89 -7 -20 -11 -26 -9 -55 19 l-32 32 40 -3 c33 -2 41 2 54 25 14 25 14
29 -6 57 -21 27 -20 34 5 40 2 1 13 -4 24 -10z m-795 -150 c32 -12 61 -24 64
-28 9 -8 -22 -234 -55 -415 -14 -77 -26 -142 -26 -145 0 -3 -16 18 -35 47 -20
28 -38 52 -41 52 -6 0 -4 -3 38 -69 33 -53 34 -81 9 -176 -19 -69 -19 -69 -19
-25 0 32 -12 69 -41 130 -22 47 -40 78 -41 70 0 -13 -1 -13 -10 0 -5 8 -7 22
-4 32 2 9 0 19 -5 23 -7 4 -8 -1 -4 -11 4 -11 2 -15 -4 -11 -6 4 -13 16 -16
27 -3 13 -1 18 6 13 6 -3 3 4 -6 18 -9 13 -17 34 -17 46 0 21 61 270 96 391
18 61 25 62 111 31z m-1008 -544 c1 -41 -45 -140 -64 -140 -14 0 -18 72 -7
104 6 14 18 48 27 75 17 48 18 49 31 25 7 -13 13 -42 13 -64z m800 -97 c-1
-122 -2 -127 -20 -117 -14 7 -19 21 -19 50 0 24 4 38 10 34 6 -4 10 29 10 92
0 68 3 93 10 83 6 -8 10 -72 9 -142z m31 70 c0 -6 16 -32 35 -58 40 -54 63
-141 49 -187 -7 -26 -9 -24 -14 22 l-7 50 -1 -42 c-1 -24 -4 -43 -8 -43 -3 0
-21 12 -40 28 l-34 27 0 113 c0 73 4 111 10 107 6 -3 10 -11 10 -17z m280
-106 c0 -20 -4 -31 -10 -27 -6 4 -10 -12 -10 -39 0 -27 -5 -46 -11 -46 -7 0
-9 12 -5 33 3 17 8 56 12 85 7 58 24 53 24 -6z m-1115 -139 c-6 -27 -27 -31
-24 -5 1 9 -3 35 -9 56 -10 34 -8 46 11 90 l22 51 3 -85 c2 -47 0 -95 -3 -107z
m-85 37 c0 -13 -1 -13 -10 0 -5 8 -10 22 -10 30 0 13 1 13 10 0 5 -8 10 -22
10 -30z m-57 -150 c3 -25 2 -38 -2 -30 -5 8 -11 38 -15 65 -3 31 -2 42 3 30 4
-11 11 -40 14 -65z m144 23 c-3 -10 -5 -2 -5 17 0 19 2 27 5 18 2 -10 2 -26 0
-35z m-304 -67 c1 -14 6 -26 10 -26 5 0 6 -4 2 -9 -3 -5 -1 -12 5 -16 5 -3 10
-15 10 -26 0 -39 -30 7 -40 62 -12 65 -12 65 1 52 6 -6 12 -23 12 -37z m214
-133 c-3 -10 -5 -2 -5 17 0 19 2 27 5 18 2 -10 2 -26 0 -35z m-156 10 c13 -16
12 -17 -3 -4 -10 7 -18 15 -18 17 0 8 8 3 21 -13z m32 -83 c-6 -6 -33 30 -33
44 0 6 9 0 20 -14 10 -14 16 -27 13 -30z m-126 -15 c17 -1 53 -26 53 -37 0 -6
-11 -1 -25 12 -14 13 -25 18 -25 12 0 -6 23 -30 51 -52 58 -46 52 -55 -7 -11
-53 38 -71 61 -79 96 l-6 30 15 -25 c8 -14 18 -25 23 -25z m113 -299 c6 -8 27
-20 47 -27 34 -11 34 -11 13 -26 -11 -8 -27 -12 -35 -9 -9 3 -15 -1 -15 -10 0
-20 -19 -8 -29 19 -21 56 -22 67 -8 67 8 0 20 -7 27 -14z m1480 -1 c-7 -8 -17
-15 -23 -15 -6 0 -2 7 9 15 25 19 30 19 14 0z m826 -909 c5 -39 4 -48 -7 -44
-9 3 -15 24 -17 59 -4 67 13 56 24 -15z m-45 22 c0 -18 2 -41 4 -50 2 -10 -3
-18 -11 -18 -10 0 -14 14 -14 50 0 54 20 71 21 18z m-4301 -487 c0 -23 -11
-37 -53 -70 -66 -50 -130 -125 -151 -174 -17 -42 -16 -42 39 -22 48 17 87 18
137 5 54 -15 52 -37 -9 -103 -30 -32 -65 -82 -79 -110 -15 -29 -40 -67 -57
-84 -17 -18 -28 -35 -26 -38 3 -3 28 -7 55 -10 57 -7 164 -35 164 -44 -1 -3
-20 -22 -43 -41 -23 -19 -71 -64 -107 -101 -36 -36 -83 -78 -104 -94 l-39 -30
34 -7 c19 -4 77 -10 129 -14 52 -4 104 -10 115 -14 17 -6 16 -9 -15 -25 -48
-25 -143 -112 -191 -177 -35 -46 -109 -177 -109 -193 0 -3 26 8 58 24 63 32
141 51 205 51 42 0 127 -27 127 -40 0 -8 -110 -174 -137 -207 -10 -12 -37 -29
-60 -38 -50 -20 -53 -27 -18 -43 36 -16 122 -15 181 3 50 15 94 20 94 9 0 -3
-15 -17 -32 -32 -73 -61 -228 -205 -228 -212 0 -5 35 -6 79 -3 43 3 104 2 135
-1 l57 -8 -48 -51 c-26 -29 -59 -68 -72 -88 -13 -20 -45 -49 -69 -64 l-45 -29
29 -8 c16 -5 50 -6 77 -2 53 7 150 -4 145 -16 -5 -14 -91 -79 -142 -107 -27
-16 -63 -41 -80 -56 l-31 -28 104 6 c84 6 102 4 99 -7 -3 -7 -27 -20 -54 -29
-27 -9 -64 -24 -81 -33 -18 -9 -43 -16 -58 -16 -14 0 -25 -4 -25 -9 0 -11 35
-21 73 -21 42 0 32 -16 -29 -46 l-57 -28 -110 13 c-61 6 -129 20 -152 30 -22
10 -89 66 -151 127 -89 87 -118 122 -142 174 -91 194 -125 386 -120 670 4 188
5 198 35 285 17 50 41 126 53 170 47 178 182 471 292 636 79 119 297 353 351
378 56 26 57 26 57 -8z m1240 -182 c0 -36 27 -245 75 -589 58 -407 79 -650 58
-650 -4 0 -33 7 -65 16 l-58 17 -26 85 c-28 94 -29 127 -4 357 6 61 11 121 11
135 -2 49 -31 126 -56 150 -18 17 -25 34 -25 63 0 21 -13 72 -30 113 -29 73
-29 74 -17 161 12 83 15 89 48 111 18 13 43 32 54 43 27 27 35 24 35 -12z
m1177 -244 c34 -17 102 -85 85 -85 -15 0 -180 122 -181 133 -1 5 15 -1 34 -13
19 -12 47 -27 62 -35z m-186 -216 c11 -22 18 -50 16 -62 -3 -18 -9 -11 -30 33
-42 86 -29 113 14 29z m187 -124 c-3 -3 -9 2 -12 12 -6 14 -5 15 5 6 7 -7 10
-15 7 -18z m308 -47 l29 -33 -32 29 c-31 28 -38 36 -30 36 2 0 16 -15 33 -32z
m-42 -7 c14 -15 15 -21 4 -27 -7 -4 -10 -3 -5 1 4 5 0 17 -10 27 -9 10 -14 18
-11 18 3 0 13 -9 22 -19z m17 -88 c13 -16 12 -17 -3 -4 -10 7 -18 15 -18 17 0
8 8 3 21 -13z m-5 -90 c-7 -7 -26 7 -26 19 0 6 6 6 15 -2 9 -7 13 -15 11 -17z
m-54 -94 c5 -29 4 -30 -9 -14 -14 21 -18 59 -4 51 5 -3 11 -20 13 -37z m13
-47 c-2 -3 0 -13 6 -23 14 -27 4 -24 -14 4 -13 20 -13 24 -1 24 8 0 12 -2 9
-5z m-583 -846 c8 -14 -48 -101 -65 -101 -8 0 -13 31 -15 100 l-3 100 38 -44
c21 -24 41 -49 45 -55z m-742 17 c0 -42 33 -119 74 -172 32 -43 33 -70 6 -285
-34 -269 -25 -451 35 -731 68 -321 143 -938 126 -1043 -6 -38 -18 -61 -48 -96
-22 -24 -45 -62 -51 -84 -14 -47 -15 -194 -2 -392 5 -80 12 -203 16 -275 l7
-130 -42 1 c-22 1 -41 -1 -41 -5 0 -3 -20 -7 -45 -8 -25 -1 -45 2 -45 7 0 5
-7 7 -15 4 -8 -4 -12 -10 -9 -15 3 -5 -2 -6 -10 -3 -8 3 -21 2 -28 -2 -18 -12
-32 -12 -40 1 -5 7 -8 6 -8 -1 0 -7 -13 -11 -35 -8 -19 1 -38 -2 -41 -8 -4 -7
-2 -8 4 -4 7 4 12 3 12 -2 0 -14 -43 -20 -68 -11 -17 6 -22 5 -22 -7 0 -9 5
-12 12 -8 7 4 8 3 4 -4 -5 -9 -15 -8 -37 3 -27 14 -29 14 -29 -2 0 -10 -4 -14
-8 -8 -4 6 -32 10 -62 9 -71 -1 -78 -3 -62 -13 11 -7 10 -9 -3 -14 -10 -4 -14
-3 -9 4 4 6 -1 9 -12 8 -11 -2 -25 0 -31 4 -7 4 -22 3 -33 -3 -17 -9 -20 -8
-20 9 0 11 -10 40 -22 63 -23 42 -23 50 -25 435 -1 216 -6 401 -11 410 -15 30
-14 397 3 603 18 226 24 277 70 540 45 254 53 357 47 575 -5 209 2 260 52 333
19 29 40 77 47 109 7 32 22 78 34 103 12 25 25 57 28 71 6 25 7 25 94 22 79
-3 95 0 158 26 39 16 73 29 78 30 4 1 7 -16 7 -36z m-380 -3293 c0 -5 -2 -10
-4 -10 -3 0 -8 5 -11 10 -3 6 -1 10 4 10 6 0 11 -4 11 -10z m327 -162 c-3 -8
-6 -5 -6 6 -1 11 2 17 5 13 3 -3 4 -12 1 -19z"/>
<path d="M3485 930 c-3 -5 1 -10 10 -10 9 0 13 5 10 10 -3 6 -8 10 -10 10 -2
0 -7 -4 -10 -10z"/>
<path d="M6411 8274 c-6 -15 -9 -29 -7 -32 3 -2 10 8 16 23 6 15 9 29 7 31 -2
2 -9 -8 -16 -22z"/>
<path d="M6269 7473 c-13 -16 -12 -17 4 -4 9 7 17 15 17 17 0 8 -8 3 -21 -13z"/>
<path d="M6163 7423 c9 -2 15 -9 12 -14 -10 -15 1 -10 15 6 11 13 8 15 -16 14
-17 -1 -22 -3 -11 -6z"/>
<path d="M6149 7273 c-13 -15 -12 -15 9 -4 23 12 28 21 13 21 -5 0 -15 -7 -22
-17z"/>
<path d="M6058 7273 c6 -2 18 -2 25 0 6 3 1 5 -13 5 -14 0 -19 -2 -12 -5z"/>
<path d="M5027 5909 c7 -7 15 -10 18 -7 3 3 -2 9 -12 12 -14 6 -15 5 -6 -5z"/>
<path d="M5460 4976 c0 -2 7 -19 15 -37 11 -27 14 -29 15 -12 0 28 -10 53 -21
53 -5 0 -9 -2 -9 -4z"/>
<path d="M2716 687 c3 -10 9 -15 12 -12 3 3 0 11 -7 18 -10 9 -11 8 -5 -6z"/>
</g>
</svg>
