<?xml version="1.0" standalone="no"?>
<!DOCTYPE svg PUBLIC "-//W3C//DTD SVG 20010904//EN"
 "http://www.w3.org/TR/2001/REC-SVG-20010904/DTD/svg10.dtd">
<svg version="1.0" xmlns="http://www.w3.org/2000/svg"
 width="1280.000000pt" height="1280.000000pt" viewBox="0 0 1280.000000 1280.000000"
 preserveAspectRatio="xMidYMid meet">
<metadata>
Created by potrace 1.15, written by Peter Selinger 2001-2017
</metadata>
<g transform="translate(0.000000,1280.000000) scale(0.100000,-0.100000)"
fill="#333333" stroke="none">
<path d="M11250 10024 c-119 -25 -324 -145 -440 -256 -55 -53 -114 -91 -326
-207 -237 -130 -523 -263 -892 -415 -126 -52 -320 -133 -431 -180 -112 -47
-207 -86 -213 -86 -16 0 26 61 67 97 47 40 112 80 163 100 l37 14 -48 -4 c-92
-9 -236 -100 -287 -182 -12 -20 -43 -50 -68 -67 -75 -50 -125 -97 -234 -219
-56 -63 -210 -224 -344 -359 -285 -289 -364 -375 -531 -575 -68 -82 -146 -175
-173 -205 -28 -30 -65 -77 -84 -105 -164 -236 -244 -359 -306 -470 -40 -71
-75 -132 -76 -134 -2 -2 -21 11 -42 28 -22 17 -45 31 -51 31 -6 0 -11 5 -11
12 0 20 -203 219 -211 206 -5 -8 -14 -7 -31 4 -13 8 -39 19 -58 23 -63 12 -89
28 -96 58 -3 15 -18 35 -32 44 -15 9 -29 19 -32 21 -3 2 3 8 13 13 9 6 17 20
17 32 0 18 2 19 10 7 7 -11 10 -4 10 27 0 47 13 60 86 82 34 11 51 10 104 -3
34 -9 85 -28 113 -41 27 -14 52 -24 54 -21 7 7 -84 66 -145 93 -42 19 -84 28
-157 33 -91 7 -108 12 -185 52 -47 24 -128 63 -180 87 -52 24 -127 59 -167 77
-39 19 -78 34 -86 34 -9 0 -18 4 -22 9 -8 15 -137 81 -155 81 -9 0 -25 8 -36
18 -10 10 -68 44 -127 75 -60 32 -158 92 -218 133 -60 41 -114 74 -119 74 -6
0 -26 16 -45 35 -20 19 -48 41 -64 49 -15 8 -61 49 -101 90 -40 41 -77 74 -83
73 -6 -1 -18 14 -28 33 -14 30 -58 72 -187 180 -12 10 -29 20 -38 22 -9 2 -22
12 -28 23 -6 11 -17 24 -23 28 -7 4 -13 16 -13 25 0 22 -65 104 -95 120 -20
10 -23 18 -19 41 3 16 1 39 -6 51 -10 19 -9 26 9 43 15 16 38 22 93 26 83 7
72 19 -27 28 -108 10 -155 -26 -155 -117 0 -34 -7 -45 -55 -91 -30 -29 -78
-65 -106 -81 -90 -52 -407 -188 -423 -182 -18 7 -46 48 -46 68 0 18 13 27 54
37 28 6 27 7 -15 8 -71 2 -100 -47 -64 -109 8 -14 14 -45 15 -70 0 -25 7 -81
15 -125 8 -44 24 -138 35 -210 41 -254 119 -515 225 -747 l63 -139 -181 -89
c-218 -106 -273 -142 -395 -254 -51 -48 -101 -86 -112 -86 -27 0 -205 -47
-231 -61 -19 -9 -25 -6 -52 26 -38 47 -81 65 -151 65 -30 0 -67 5 -82 10 -46
18 -50 -2 -15 -64 l31 -56 -40 -20 c-21 -11 -47 -20 -57 -20 -65 -1 -266 -172
-304 -258 -24 -55 -24 -71 1 -97 l20 -22 -62 -44 c-35 -24 -79 -51 -100 -61
-35 -16 -36 -15 -41 4 -4 14 -12 19 -33 16 -43 -5 -179 -188 -193 -260 -5 -29
-17 -90 -26 -136 -16 -80 -16 -84 1 -104 16 -17 26 -19 64 -13 25 3 55 7 67 7
14 0 20 4 16 12 -3 6 3 2 15 -8 21 -18 22 -18 22 -1 0 16 3 16 26 -6 l27 -24
-7 34 c-6 34 -6 34 14 16 18 -16 20 -16 26 -1 3 9 3 24 0 34 -4 10 3 6 19 -10
33 -35 48 -36 35 -2 -20 51 -9 57 20 11 16 -26 32 -47 36 -47 4 0 4 20 2 45
-6 45 5 62 16 27 8 -24 64 -77 72 -69 4 4 1 26 -6 51 -18 64 -8 75 23 27 27
-41 55 -57 42 -23 -26 69 -10 100 32 58 30 -31 48 -34 33 -7 -14 26 -13 51 2
51 7 0 25 -12 41 -27 l29 -28 -7 37 c-11 56 16 62 63 14 21 -21 30 -36 21 -34
-8 2 -34 -16 -58 -39 -31 -33 -37 -43 -24 -43 15 0 14 -4 -7 -20 -22 -17 -27
-17 -47 -4 -18 11 -23 12 -24 2 -2 -44 -10 -72 -21 -79 -20 -13 -26 -11 -34
13 -6 20 -7 19 -20 -12 -11 -26 -17 -31 -26 -22 -19 19 -31 14 -26 -13 3 -13
1 -22 -3 -19 -5 3 -9 0 -9 -6 0 -8 -6 -8 -21 0 -19 10 -20 10 -10 -9 16 -28
14 -33 -9 -21 -11 6 -25 8 -31 4 -7 -4 1 -12 20 -20 38 -16 39 -27 5 -43 -29
-13 -44 -7 -44 17 -1 15 -2 15 -11 -1 -7 -12 -17 -16 -31 -11 -24 7 -38 -9
-38 -47 0 -15 -7 -29 -15 -33 -8 -3 -14 -9 -13 -13 2 -4 -5 -19 -14 -32 -12
-17 -26 -24 -49 -23 -46 1 -82 -25 -74 -55 4 -16 2 -23 -7 -22 -7 1 -26 -3
-42 -10 -24 -10 -32 -9 -49 6 -18 16 -20 16 -14 1 4 -11 -5 -25 -29 -44 -19
-15 -30 -30 -25 -33 12 -9 1 -71 -13 -71 -7 0 -12 -10 -12 -22 1 -18 -4 -22
-19 -20 -11 2 -26 11 -33 20 -12 16 -14 16 -23 0 -5 -9 -21 -19 -37 -23 -15
-3 -32 -16 -38 -30 -11 -22 -10 -23 13 -14 39 15 44 11 22 -15 -13 -14 -28
-22 -36 -19 -12 5 -14 1 -8 -17 4 -14 3 -20 -3 -16 -14 9 -23 -19 -9 -33 18
-18 -2 -25 -22 -7 -19 17 -39 7 -26 -14 3 -5 -1 -10 -10 -10 -12 0 -15 -6 -10
-21 6 -18 4 -20 -13 -15 -14 5 -21 1 -25 -13 -4 -18 -8 -19 -34 -9 -18 7 -38
8 -49 3 -17 -7 -18 -8 -1 -12 9 -3 17 -11 17 -20 0 -10 -6 -13 -17 -8 -15 5
-16 4 -5 -6 31 -33 0 -79 -36 -53 -20 14 -22 14 -22 0 0 -9 -6 -16 -14 -16 -8
0 -17 -6 -19 -12 -4 -8 -8 -5 -12 9 -4 11 -17 23 -31 26 -14 2 -21 0 -17 -6 4
-6 0 -8 -10 -4 -11 4 -15 1 -12 -13 3 -17 1 -17 -30 -4 l-34 14 25 -37 c25
-37 25 -38 5 -41 -12 -2 -21 -9 -21 -17 0 -8 -7 -11 -19 -8 -12 3 -20 -2 -24
-16 -3 -12 -13 -24 -22 -27 -20 -8 -36 12 -28 34 5 12 2 12 -15 3 -23 -12 -62
-63 -62 -80 0 -14 -2 -14 -36 4 -16 8 -38 15 -49 15 -17 -1 -15 -3 8 -16 29
-16 28 -27 -4 -44 -16 -9 -21 -7 -28 12 -9 22 -10 22 -21 -10 -8 -21 -17 -31
-26 -28 -8 3 -11 0 -7 -10 4 -10 0 -12 -11 -8 -11 4 -16 1 -16 -11 0 -13 -6
-16 -26 -12 -22 4 -25 1 -21 -15 3 -11 1 -18 -6 -15 -14 4 -47 -23 -47 -40 0
-7 -10 -13 -22 -13 -13 0 -32 -7 -42 -15 -19 -14 -18 -15 10 -16 20 -1 23 -3
9 -6 -30 -7 -43 -23 -19 -24 32 -1 -78 -49 -113 -49 -42 0 -51 -16 -13 -24 21
-4 30 -11 30 -25 0 -27 -39 -39 -55 -17 -14 18 -25 11 -25 -16 0 -10 -4 -18
-10 -18 -5 0 -17 -14 -25 -31 -25 -47 -29 -28 -9 38 11 34 29 67 43 80 15 12
20 22 13 23 -9 0 -8 7 5 28 15 24 13 24 -21 -8 -21 -19 -45 -51 -53 -70 -13
-28 -17 -31 -20 -16 -3 10 1 23 9 28 10 8 9 9 -4 4 -25 -8 -22 7 7 34 13 12
22 27 19 31 -3 5 0 19 6 31 15 30 -56 -49 -75 -83 -13 -25 -59 -44 -77 -32 -5
2 -8 25 -9 51 l-1 47 -16 -52 c-10 -28 -20 -55 -24 -59 -5 -4 -8 -39 -8 -78 0
-54 -3 -67 -12 -58 -6 6 -12 34 -12 62 -1 27 -4 50 -8 50 -5 0 -8 12 -9 28 -1
19 -4 14 -10 -18 -5 -25 -7 -63 -4 -85 4 -37 3 -36 -9 10 -8 28 -17 77 -22
110 -7 60 -7 60 -17 25 -17 -65 -18 -67 -27 -45 -7 16 -9 12 -9 -17 -1 -46
-10 -68 -26 -68 -7 0 -16 -12 -20 -28 -14 -61 -50 -76 -74 -29 -9 18 -10 13
-5 -28 4 -27 10 -57 15 -67 12 -22 -17 -33 -30 -10 -14 23 -14 6 0 -20 15 -28
3 -35 -21 -13 -21 19 -21 19 -10 -10 10 -29 10 -30 -8 -10 -9 11 -25 26 -35
34 -17 14 -17 13 -6 -15 22 -50 90 -135 125 -156 19 -11 34 -21 34 -22 0 -2
-14 -1 -30 2 -18 2 -41 17 -57 36 -20 24 -24 26 -19 9 6 -18 4 -20 -13 -16
-31 8 -20 -26 19 -59 41 -34 37 -35 -25 -7 -25 11 -49 19 -51 16 -3 -2 11 -16
31 -31 25 -20 42 -25 58 -20 22 6 22 6 -2 -15 l-24 -21 48 0 c39 0 46 -3 41
-16 -3 -9 -6 -18 -6 -20 0 -2 -19 -4 -42 -5 -46 -1 -46 0 31 -25 11 -3 11 -7
1 -19 -11 -13 -8 -15 16 -15 l28 0 -34 -31 -35 -31 49 26 c56 30 63 32 47 12
-9 -11 -9 -15 1 -19 8 -3 4 -9 -12 -15 -32 -14 -10 -15 24 -2 18 7 26 6 26 -1
0 -8 5 -7 15 1 21 17 29 7 16 -18 -18 -33 -12 -39 10 -12 12 14 19 18 16 9 -3
-9 -1 -35 5 -58 9 -34 13 -39 25 -29 12 10 13 7 7 -18 -5 -24 -4 -27 7 -16 18
16 29 15 29 -3 0 -27 31 -14 45 20 8 18 9 17 13 -8 3 -23 6 -26 18 -16 8 6 14
20 14 30 0 10 5 21 11 25 9 5 10 -1 5 -22 -11 -44 -9 -63 8 -80 15 -14 16 -13
16 8 1 26 23 61 33 51 4 -3 7 -17 7 -30 0 -14 4 -21 10 -18 6 3 10 0 11 -7 0
-7 4 -4 8 7 5 11 4 25 -1 33 -20 23 8 12 33 -14 13 -14 33 -31 44 -37 18 -9
19 -9 6 6 -15 19 -8 22 20 6 14 -7 9 4 -16 36 -19 26 -35 50 -35 55 0 17 61
-12 77 -37 9 -13 25 -29 37 -35 17 -9 16 -6 -7 21 -38 46 -34 54 16 26 53 -31
66 -32 32 -2 l-26 22 32 2 c17 1 43 -4 58 -11 14 -8 46 -16 71 -20 44 -5 43
-5 -15 14 -33 11 -71 29 -85 40 l-25 20 47 0 c42 0 48 3 68 35 12 19 29 35 38
35 9 1 31 7 47 15 l30 14 -30 -6 -30 -6 26 29 c40 45 48 58 64 100 9 23 10 31
2 20 -71 -106 -100 -126 -182 -126 -49 0 -53 6 -29 51 8 17 13 36 11 42 -2 7
-14 -8 -27 -33 -12 -25 -24 -47 -26 -49 -6 -6 -64 21 -64 30 0 12 35 29 60 29
12 0 19 4 16 8 -5 9 47 65 58 63 10 -2 177 51 173 55 -2 2 -37 -5 -78 -16 -89
-24 -115 -25 -74 -3 42 22 95 74 95 92 -1 13 -3 13 -14 -2 -9 -12 -16 -14 -21
-8 -3 6 0 11 7 11 7 0 2 9 -12 20 -14 11 -20 20 -13 20 7 0 10 7 7 15 -4 8 -2
15 4 15 5 0 12 10 15 22 l6 21 33 -24 c38 -28 84 -51 113 -56 14 -2 9 7 -20
32 l-40 35 53 -26 c30 -14 56 -24 58 -21 8 8 -59 56 -94 68 -18 6 -32 15 -32
21 0 6 8 7 17 3 10 -3 40 -9 68 -12 27 -3 55 -8 60 -11 6 -3 1 5 -10 18 l-20
23 20 -5 c11 -3 29 -9 40 -13 31 -12 -29 34 -73 56 -27 13 -31 18 -17 19 18 1
19 1 2 11 -9 5 -17 15 -17 20 0 14 35 2 77 -27 53 -36 64 -29 13 8 -40 30 -42
33 -22 36 20 3 21 6 10 19 -12 15 -10 15 12 3 14 -7 43 -24 65 -38 l40 -24
-50 52 -50 52 55 -34 c76 -48 104 -56 60 -18 l-35 31 50 -26 50 -25 -35 30
c-19 17 -50 37 -69 45 -24 11 -31 19 -24 26 7 7 28 1 69 -20 l59 -31 -37 33
c-27 23 -35 36 -29 46 7 11 19 8 64 -18 30 -17 58 -31 63 -31 14 0 -47 48 -89
70 -43 24 -48 35 -10 25 23 -5 25 -4 14 9 -22 26 12 31 80 11 34 -9 63 -15 65
-13 8 9 -27 47 -40 42 -7 -3 -13 2 -13 11 0 12 9 16 31 15 60 -4 74 1 41 12
-16 6 -39 17 -50 25 -18 13 -15 14 28 9 l48 -6 -28 25 c-26 23 -27 24 -7 25
17 0 20 5 16 25 -4 24 -3 25 39 19 38 -5 42 -4 28 8 -9 7 -19 20 -22 29 -8 23
65 9 128 -25 l50 -27 -29 30 c-16 16 -41 35 -57 41 -30 13 -40 40 -14 40 8 0
15 4 15 10 0 5 6 7 14 4 15 -6 30 22 19 38 -4 8 4 9 23 5 26 -5 29 -3 30 19 2
33 8 37 46 36 31 0 32 0 9 9 -22 9 -23 11 -9 25 14 14 19 13 54 -5 64 -35 85
-24 39 19 -33 31 -32 43 6 35 30 -7 30 -6 27 32 -3 38 -3 38 32 35 31 -2 33
-1 18 11 -15 12 -11 15 35 27 49 13 51 14 25 22 -38 13 -42 34 -9 48 19 8 35
8 54 1 19 -7 27 -7 27 0 0 6 8 9 18 5 13 -4 13 -3 -3 9 -63 45 -62 44 -36 45
20 0 21 2 11 15 -9 11 -9 15 -1 15 6 0 14 -7 17 -15 5 -13 8 -13 21 0 8 9 19
13 24 10 5 -4 9 -1 9 5 0 8 6 8 23 0 21 -11 21 -10 -2 8 -24 20 -22 42 5 42
22 0 42 22 37 41 -4 13 8 19 54 28 32 6 89 25 127 41 38 16 74 26 80 22 6 -5
25 -14 41 -20 l30 -12 -27 24 c-33 30 -36 40 -8 31 13 -4 19 -2 18 4 -3 11
133 94 140 86 6 -6 -21 -85 -29 -85 -4 0 -5 -8 -3 -18 7 -24 -20 -98 -34 -94
-8 1 -12 -13 -12 -40 -1 -24 -3 -60 -6 -80 -6 -38 25 -128 44 -128 5 0 13 -24
16 -52 13 -98 27 -124 41 -78 11 33 34 23 40 -18 15 -93 39 -173 54 -185 10
-6 23 -33 30 -60 17 -58 48 -66 69 -17 19 41 58 60 110 53 51 -7 53 -2 49 159
l-2 117 60 -5 60 -5 -25 21 c-22 20 -25 30 -24 89 0 44 7 81 22 113 21 46 21
47 1 84 -10 21 -18 43 -16 49 2 5 -5 16 -14 25 -16 13 -17 21 -8 62 9 40 20
56 72 101 34 30 79 62 100 72 35 16 49 35 27 35 -16 0 -11 23 10 50 14 19 22
22 31 13 19 -18 28 -93 20 -166 -4 -42 -4 -64 2 -58 6 6 12 75 15 155 l5 146
74 0 c75 0 75 0 69 25 -5 21 -3 25 16 25 55 -1 199 -95 218 -144 6 -14 9 -16
9 -6 1 18 59 55 69 45 4 -4 13 -23 19 -43 l12 -37 -5 40 c-3 22 -6 44 -7 49
-3 15 67 34 129 35 122 2 325 -85 383 -163 19 -25 37 -44 39 -41 2 2 -9 21
-25 42 -42 53 -45 60 -59 120 -9 41 -10 53 0 53 14 0 342 -111 399 -135 48
-20 88 -81 122 -187 14 -44 44 -121 66 -171 22 -51 47 -117 54 -149 8 -31 31
-89 50 -130 20 -40 43 -98 51 -128 42 -157 68 -223 114 -295 76 -115 102 -172
108 -237 4 -52 1 -67 -31 -136 -47 -99 -62 -217 -52 -399 13 -241 11 -272 -17
-335 -15 -31 -44 -81 -66 -110 -38 -52 -145 -253 -197 -373 -15 -33 -58 -143
-96 -245 -38 -102 -86 -228 -108 -280 l-39 -94 -58 -11 c-43 -8 -73 -22 -113
-52 -30 -23 -88 -54 -130 -69 -42 -15 -105 -47 -141 -70 -97 -62 -139 -81
-318 -146 -101 -36 -178 -58 -205 -58 -23 0 -79 0 -123 1 -53 0 -94 -5 -119
-15 -21 -9 -54 -16 -74 -16 -128 0 -236 -111 -215 -219 7 -35 24 -42 24 -11 0
44 28 88 72 114 25 14 52 26 61 26 25 0 21 -36 -7 -73 -30 -39 -50 -111 -41
-146 7 -25 8 -23 35 29 37 73 65 98 90 82 11 -7 25 -12 31 -12 6 0 27 -14 46
-30 28 -25 43 -30 83 -30 l49 0 3 -42 3 -43 23 49 c12 28 34 65 48 84 l26 34
19 -31 c20 -33 66 -61 99 -61 31 0 61 18 95 57 27 32 36 35 87 36 55 2 60 4
111 55 53 53 55 54 99 47 57 -9 75 0 154 76 34 32 72 61 85 64 30 8 136 -19
160 -41 16 -14 16 -19 3 -56 -22 -63 -18 -105 12 -133 19 -18 28 -38 32 -72 4
-36 7 -43 13 -28 4 11 8 32 8 47 1 20 9 32 31 43 42 22 55 86 38 197 -7 44 -5
50 27 88 22 26 35 53 35 70 0 22 8 34 35 50 41 25 73 83 103 182 22 73 79 158
251 371 129 159 136 170 167 246 15 36 34 73 43 81 9 8 15 22 14 30 -2 8 31
69 72 135 41 66 98 163 125 217 27 53 67 118 88 145 53 67 56 72 32 66 l-20
-5 20 46 c28 67 48 150 65 273 8 60 23 140 32 179 l16 71 78 -28 c42 -15 123
-37 180 -49 57 -11 107 -26 111 -33 10 -15 78 -223 78 -238 0 -7 -12 -37 -27
-66 -25 -53 -26 -58 -15 -126 18 -117 75 -249 133 -308 l49 -50 -30 -70 c-34
-81 -68 -247 -105 -514 -32 -231 -56 -354 -85 -419 -22 -53 -40 -71 -80 -81
-14 -4 -45 -19 -70 -35 -25 -16 -63 -32 -85 -36 -22 -3 -49 -11 -60 -17 -11
-6 -60 -11 -110 -12 -59 -1 -100 -7 -120 -17 -19 -10 -37 -13 -50 -7 -54 21
-196 -7 -252 -51 -46 -35 -83 -99 -82 -139 0 -32 2 -34 12 -17 7 10 21 29 31
43 l19 25 12 -21 c11 -21 12 -20 28 13 17 37 50 53 86 41 21 -6 21 -7 -4 -49
-14 -24 -25 -56 -25 -71 l0 -29 36 42 36 42 34 -30 c19 -16 40 -30 47 -30 17
-1 -155 -90 -173 -90 -9 0 -25 -7 -37 -15 -12 -9 -48 -20 -80 -26 -32 -6 -68
-17 -80 -25 -12 -8 -38 -14 -57 -14 -89 0 -182 -114 -193 -238 -7 -78 7 -81
37 -7 21 51 86 125 110 125 6 0 10 -9 10 -20 0 -48 92 -96 137 -71 19 10 20 7
15 -64 -5 -83 8 -100 29 -37 27 83 69 142 69 97 0 -23 60 -55 103 -55 53 0 76
15 97 63 17 38 21 41 53 39 47 -4 101 25 162 87 57 59 76 66 46 17 -18 -29
-21 -49 -21 -155 0 -119 11 -152 24 -71 l6 40 45 -7 c42 -5 46 -3 81 33 90 96
103 111 118 141 12 24 20 30 36 26 38 -10 96 40 119 102 12 31 21 66 21 79 0
29 76 126 98 126 10 0 26 3 38 6 19 5 20 2 16 -54 -2 -33 0 -68 6 -78 9 -16
11 -13 17 21 10 55 31 92 62 112 21 14 27 15 31 4 23 -69 138 -81 184 -19 46
61 90 99 107 92 77 -33 93 -35 127 -19 19 9 39 26 45 38 7 12 20 28 31 35 10
7 18 19 18 27 0 24 182 200 241 233 31 17 88 38 128 47 83 17 177 52 272 102
57 29 69 41 88 81 11 26 22 63 24 82 1 24 23 65 65 127 34 51 62 95 62 98 0 4
-14 -3 -30 -15 -17 -12 -37 -20 -44 -17 -30 12 -66 77 -99 182 -53 168 -52
162 -14 168 123 22 121 22 149 -20 15 -21 65 -81 112 -133 95 -105 137 -179
166 -291 23 -88 27 -211 7 -228 -8 -6 -19 -28 -25 -49 -8 -24 -38 -66 -88
-117 -42 -44 -102 -106 -132 -138 -43 -45 -61 -57 -86 -57 -17 0 -51 -5 -76
-11 -25 -6 -55 -12 -67 -13 -12 -2 -43 -19 -70 -38 -26 -20 -68 -44 -93 -55
-25 -11 -63 -32 -84 -46 -26 -18 -52 -27 -80 -27 -51 0 -114 -35 -141 -77 -11
-18 -26 -32 -33 -33 -25 0 -63 -33 -82 -70 -27 -54 -43 -125 -35 -157 7 -27 8
-26 32 27 13 30 34 65 45 77 28 30 58 30 58 1 1 -48 54 -88 117 -88 47 0 85
34 106 95 12 34 18 40 46 42 17 2 44 9 60 17 l28 15 -13 -37 c-7 -20 -13 -68
-13 -107 -1 -78 12 -116 22 -66 6 29 7 30 34 16 74 -39 193 17 193 91 0 13 6
24 13 24 7 0 27 14 45 31 l32 31 44 -22 c49 -23 76 -17 104 22 24 33 31 19 12
-24 -11 -24 -20 -53 -20 -66 0 -31 26 -79 50 -92 11 -6 20 -18 21 -28 0 -10 3
-12 6 -4 7 19 41 14 48 -7 15 -50 32 -54 278 -67 127 -7 279 -15 337 -18 919
-52 1107 -56 1530 -32 347 21 785 74 1015 126 51 11 128 20 176 20 110 0 171
12 265 51 92 38 178 114 217 191 43 84 36 130 -43 293 -43 88 -61 112 -150
202 -145 147 -271 225 -560 347 -58 24 -177 76 -265 116 -88 39 -234 101 -325
137 -90 35 -180 73 -200 83 -19 10 -143 61 -275 115 -132 53 -258 106 -280
118 -71 36 -548 378 -615 441 -36 34 -86 80 -112 102 -30 26 -65 72 -94 125
-26 46 -86 145 -134 219 -47 74 -99 158 -115 185 -74 128 -154 205 -246 234
-22 7 -84 11 -150 9 -108 -3 -120 -1 -227 34 -77 24 -123 45 -143 64 -16 15
-27 29 -25 31 2 2 50 11 107 19 134 20 218 39 271 62 202 90 374 149 501 172
165 31 491 108 575 137 43 14 83 22 98 19 16 -4 22 -3 19 6 -3 9 40 29 133 62
75 27 207 76 292 108 85 32 211 77 280 100 69 22 150 53 180 68 31 16 80 33
110 39 97 18 422 118 525 161 55 23 163 64 240 91 122 44 147 49 195 45 30 -3
80 -5 112 -5 65 0 78 -11 46 -40 -28 -27 -13 -27 30 -1 27 16 33 26 30 48 -4
32 -45 49 -136 55 -32 3 -69 10 -83 18 -13 7 -28 12 -32 11 -5 -1 -6 2 -3 7 3
5 -17 27 -45 50 -27 22 -59 51 -70 66 -12 14 -24 23 -28 21 -4 -3 -8 4 -8 15
-2 27 -21 49 -51 60 -20 8 -22 12 -12 24 10 12 9 15 -9 15 -22 0 -28 14 -11
25 19 12 10 22 -17 18 -27 -3 -27 -3 -5 8 25 14 29 29 7 29 -8 0 -15 5 -15 10
0 6 7 10 15 10 8 0 15 9 15 20 0 11 -3 19 -7 19 -33 -5 -11 31 65 109 26 27
55 64 65 83 11 19 39 49 63 68 24 18 44 40 44 47 0 8 7 14 15 14 8 0 49 25 90
56 42 30 119 81 173 111 53 31 99 59 102 63 3 4 14 9 25 11 19 4 19 5 -4 28
-38 38 -15 46 74 26 43 -9 127 -18 189 -19 84 -1 119 -6 144 -19 36 -20 42
-49 15 -79 -28 -31 6 -21 38 11 53 53 27 117 -59 145 -52 17 -176 39 -207 37
-38 -2 -113 21 -131 40 -9 10 -22 19 -29 19 -6 0 -22 11 -35 25 -13 14 -29 24
-35 23 -6 -2 -11 1 -12 7 -1 5 -11 12 -22 17 -12 4 -21 14 -21 21 0 14 -36 33
-75 39 -11 2 -20 10 -20 18 -1 28 -16 40 -51 40 -19 0 -34 5 -34 11 0 7 -11 8
-29 4 -39 -8 -49 10 -15 28 l27 14 -59 41 c-67 45 -80 58 -85 87 -2 11 -14 24
-27 30 -12 5 -22 15 -22 22 0 7 -5 13 -11 13 -6 0 -9 6 -6 13 2 6 -6 26 -18
42 -12 17 -26 46 -29 65 -13 60 -17 70 -31 70 -7 0 -15 5 -17 11 -2 5 -22 13
-46 16 -51 7 -54 18 -7 27 24 5 32 11 29 21 -4 9 3 16 20 21 22 5 26 12 26 45
0 21 -4 39 -10 39 -5 0 -10 9 -10 20 0 16 7 20 32 20 24 0 41 10 75 45 48 51
52 61 23 70 -26 8 -25 21 3 29 18 5 20 8 7 16 -13 9 -12 12 5 26 11 8 31 17
45 21 14 3 39 18 55 34 17 15 68 46 115 67 76 35 114 46 201 57 14 1 52 12 85
24 32 11 87 25 121 30 98 15 193 -5 193 -40 0 -23 18 -25 26 -4 12 32 -6 65
-48 86 -63 32 -136 34 -296 9 l-142 -22 -44 21 c-36 16 -51 19 -71 11 -33 -13
-85 -13 -85 -1 0 5 5 11 12 13 7 3 9 12 5 22 -4 9 -12 14 -18 11 -5 -4 -19 1
-29 10 -13 12 -27 15 -45 11 -28 -7 -69 9 -60 24 3 5 -14 14 -37 21 -24 6 -55
15 -69 19 -14 4 -38 5 -54 2 -23 -4 -27 -2 -22 11 7 19 -19 37 -53 37 -12 0
-28 7 -36 15 -9 9 -34 15 -59 15 -25 0 -50 6 -58 15 -10 10 -25 13 -45 9 -20
-4 -38 -1 -53 10 -13 9 -39 16 -59 16 l-35 1 24 19 c23 20 23 20 2 20 -17 0
-20 4 -15 24 9 39 -45 52 -128 30 -72 -19 -92 -18 -84 3 4 9 1 20 -6 24 -17
11 0 40 30 54 26 12 28 21 6 29 -8 3 -13 10 -9 16 3 5 -3 15 -15 22 -11 7 -20
18 -20 25 0 7 -7 13 -15 13 -8 0 -15 7 -15 15 0 8 -11 17 -25 21 -21 5 -23 9
-14 21 10 11 8 20 -9 41 -11 15 -37 60 -57 100 -21 39 -44 72 -51 72 -8 0 -14
6 -14 14 0 8 -6 16 -12 19 -9 3 -5 13 12 31 21 23 23 30 12 47 -7 11 -10 24
-7 29 4 6 -3 10 -13 10 -28 0 -33 22 -11 51 24 30 26 123 4 145 -10 10 -12 21
-6 32 4 9 11 48 15 87 4 38 13 76 21 85 24 26 57 113 45 120 -6 4 -5 13 4 25
8 11 12 24 10 30 -2 5 25 30 60 55 35 25 75 62 91 83 83 115 318 250 433 248
50 0 55 13 11 28 -39 14 -57 13 -139 -5z m-6419 -1871 c13 -16 12 -17 -3 -4
-10 7 -18 15 -18 17 0 8 8 3 21 -13z m318 -77 c-2 -2 -19 14 -38 37 l-34 42
38 -37 c22 -21 37 -39 34 -42z m222 -93 c13 -16 12 -17 -3 -4 -10 7 -18 15
-18 17 0 8 8 3 21 -13z m44 -43 c10 -11 16 -20 13 -20 -3 0 -13 9 -23 20 -10
11 -16 20 -13 20 3 0 13 -9 23 -20z m-604 -57 c13 -16 12 -17 -3 -4 -10 7 -18
15 -18 17 0 8 8 3 21 -13z m670 -40 c13 -16 12 -17 -3 -4 -10 7 -18 15 -18 17
0 8 8 3 21 -13z m-41 -59 c48 -51 24 -35 -44 30 -23 21 -32 34 -21 28 11 -6
40 -32 65 -58z m81 19 c13 -16 12 -17 -3 -4 -10 7 -18 15 -18 17 0 8 8 3 21
-13z m197 -53 c7 -11 11 -20 9 -20 -2 0 -12 9 -22 20 -10 11 -14 20 -9 20 5 0
15 -9 22 -20z m-988 -82 c0 -6 -7 -5 -15 2 -8 7 -15 17 -15 22 0 6 7 5 15 -2
8 -7 15 -17 15 -22z m975 -49 c14 -22 -3 -18 -26 7 -23 25 -23 26 -2 15 12 -6
25 -16 28 -22z m159 -18 c-2 -3 -12 3 -22 13 -16 17 -16 18 5 5 12 -7 20 -15
17 -18z m151 -61 c10 -11 16 -20 13 -20 -3 0 -13 9 -23 20 -10 11 -16 20 -13
20 3 0 13 -9 23 -20z m-350 -10 c10 -11 16 -20 13 -20 -3 0 -13 9 -23 20 -10
11 -16 20 -13 20 3 0 13 -9 23 -20z m530 -80 c3 -5 2 -10 -4 -10 -5 0 -13 5
-16 10 -3 6 -2 10 4 10 5 0 13 -4 16 -10z m-1350 -30 c10 -11 16 -20 13 -20
-3 0 -13 9 -23 20 -10 11 -16 20 -13 20 3 0 13 -9 23 -20z m150 -38 c-3 -3
-11 0 -18 7 -9 10 -8 11 6 5 10 -3 15 -9 12 -12z m-9 -153 c3 -6 -5 -3 -20 6
-14 10 -26 19 -26 22 0 7 39 -17 46 -28z m1144 -19 c19 -11 29 -19 23 -20 -7
0 -27 9 -45 20 -42 25 -24 25 22 0z m-160 -16 c39 -20 0 -15 -45 6 -35 17 -36
19 -10 13 17 -3 41 -12 55 -19z m80 6 c8 -5 11 -10 5 -10 -5 0 -17 5 -25 10
-8 5 -10 10 -5 10 6 0 17 -5 25 -10z m45 0 c3 -6 -1 -7 -9 -4 -18 7 -21 14 -7
14 6 0 13 -4 16 -10z m386 -17 c13 -15 12 -15 -8 -4 -24 12 -29 21 -14 21 5 0
15 -7 22 -17z m-793 -23 c3 0 3 -3 0 -6 -7 -6 -78 22 -78 31 0 3 16 -2 36 -10
20 -8 39 -15 42 -15z m92 20 c8 -5 11 -10 5 -10 -5 0 -17 5 -25 10 -8 5 -10
10 -5 10 6 0 17 -5 25 -10z m-171 -46 c14 -12 -19 -1 -35 12 -18 14 -18 14 6
3 14 -6 27 -13 29 -15z m322 9 c13 -16 12 -17 -3 -4 -10 7 -18 15 -18 17 0 8
8 3 21 -13z m-85 -24 c4 -8 1 -8 -14 0 -12 6 -24 16 -28 22 -4 8 -1 8 14 0 12
-6 24 -16 28 -22z m249 -9 c3 -6 -1 -7 -9 -4 -18 7 -21 14 -7 14 6 0 13 -4 16
-10z m-369 -21 c19 -11 34 -23 34 -26 0 -4 -62 30 -79 44 -16 12 18 -1 45 -18z
m165 4 c13 -17 13 -17 -6 -3 -11 8 -22 16 -24 17 -2 2 0 3 6 3 6 0 17 -8 24
-17z m-1574 -126 c29 -50 59 -118 67 -149 17 -68 30 -94 54 -107 16 -10 15
-12 -8 -30 -14 -11 -45 -25 -69 -32 -38 -11 -41 -14 -23 -20 11 -4 45 -3 74 2
115 23 130 18 263 -96 33 -29 69 -57 80 -64 38 -23 -66 -2 -121 25 -56 26
-134 103 -134 130 0 11 -11 2 -28 -22 -57 -78 -161 -153 -214 -154 -21 0 -23
12 -7 43 7 16 5 15 -11 -5 -18 -23 -24 -26 -49 -17 -30 11 -41 38 -41 101 0
27 36 90 90 161 12 15 20 27 17 27 -7 0 -187 -76 -298 -125 -88 -40 -107 -45
-145 -39 -24 3 -46 10 -49 14 -5 8 123 127 290 268 66 55 138 118 160 140 22
22 42 40 45 40 3 1 28 -40 57 -91z m690 47 c-3 -3 -12 -4 -19 -1 -8 3 -5 6 6
6 11 1 17 -2 13 -5z m1107 -59 c11 -8 16 -15 10 -15 -5 0 -18 7 -28 15 -11 8
-16 15 -10 15 5 0 18 -7 28 -15z m-89 -35 c3 -6 -1 -7 -9 -4 -18 7 -21 14 -7
14 6 0 13 -4 16 -10z m50 0 c3 -6 -1 -7 -9 -4 -18 7 -21 14 -7 14 6 0 13 -4
16 -10z m1192 -16 c-3 -3 -12 -4 -19 -1 -8 3 -5 6 6 6 11 1 17 -2 13 -5z
m-1292 -104 c3 -6 -1 -7 -9 -4 -18 7 -21 14 -7 14 6 0 13 -4 16 -10z m220 0
c3 -6 -1 -7 -9 -4 -18 7 -21 14 -7 14 6 0 13 -4 16 -10z m-125 -10 c8 -5 11
-10 5 -10 -5 0 -17 5 -25 10 -8 5 -10 10 -5 10 6 0 17 -5 25 -10z m-485 -18
c-3 -3 -11 0 -18 7 -9 10 -8 11 6 5 10 -3 15 -9 12 -12z m450 -10 c-3 -3 -11
0 -18 7 -9 10 -8 11 6 5 10 -3 15 -9 12 -12z m655 -8 c0 -2 -9 0 -20 6 -11 6
-20 13 -20 16 0 2 9 0 20 -6 11 -6 20 -13 20 -16z m-550 6 c8 -5 11 -10 5 -10
-5 0 -17 5 -25 10 -8 5 -10 10 -5 10 6 0 17 -5 25 -10z m800 -77 c0 -7 -39 17
-46 28 -3 6 5 3 20 -6 14 -10 26 -19 26 -22z m-64 -41 c-5 -4 -106 46 -106 53
0 3 25 -7 55 -22 30 -15 53 -29 51 -31z m-1471 38 c3 -6 -1 -7 -9 -4 -18 7
-21 14 -7 14 6 0 13 -4 16 -10z m1475 -76 c0 -7 -138 64 -144 74 -3 5 28 -9
69 -30 41 -22 75 -41 75 -44z m-1360 50 c0 -2 -9 0 -20 6 -11 6 -20 13 -20 16
0 2 9 0 20 -6 11 -6 20 -13 20 -16z m95 16 c3 -6 -1 -7 -9 -4 -18 7 -21 14 -7
14 6 0 13 -4 16 -10z m1295 -16 c0 -2 -9 0 -20 6 -11 6 -20 13 -20 16 0 2 9 0
20 -6 11 -6 20 -13 20 -16z m-1065 6 c3 -6 -1 -7 -9 -4 -18 7 -21 14 -7 14 6
0 13 -4 16 -10z m120 -10 c3 -6 -1 -7 -9 -4 -18 7 -21 14 -7 14 6 0 13 -4 16
-10z m680 0 c3 -6 -1 -7 -9 -4 -18 7 -21 14 -7 14 6 0 13 -4 16 -10z m-1440
-20 c3 -6 -1 -7 -9 -4 -18 7 -21 14 -7 14 6 0 13 -4 16 -10z m1495 -6 l25 -15
-25 7 c-14 3 -29 10 -34 15 -16 14 6 10 34 -7z m-515 -4 c3 -6 -1 -7 -9 -4
-18 7 -21 14 -7 14 6 0 13 -4 16 -10z m165 -25 c33 -17 41 -28 13 -18 -35 14
-68 33 -55 33 7 0 26 -7 42 -15z m-244 -11 c18 -14 18 -14 -6 -3 -31 14 -36
19 -24 19 6 0 19 -7 30 -16z m509 -55 c44 -22 69 -37 55 -33 -30 8 -159 73
-145 73 6 0 46 -18 90 -40z m81 -4 c24 -18 7 -19 -26 0 -16 9 -19 14 -9 15 8
0 24 -7 35 -15z m-286 -5 c18 -12 2 -12 -25 0 -13 6 -15 9 -5 9 8 0 22 -4 30
-9z m174 -25 c31 -14 56 -27 56 -30 0 -3 -17 2 -37 11 -21 9 -48 20 -60 25
-13 5 -23 11 -23 14 0 8 4 7 64 -20z m-83 -11 c35 -14 69 -30 74 -36 12 -11
-17 -1 -95 35 -72 33 -60 34 21 1z m-21 -30 c33 -15 59 -29 57 -31 -2 -2 -33
10 -68 26 -80 37 -72 40 11 5z m300 -9 c14 -8 21 -14 15 -14 -5 0 -21 6 -35
14 -14 8 -20 14 -15 14 6 0 21 -6 35 -14z m45 5 c3 -6 -1 -7 -9 -4 -18 7 -21
14 -7 14 6 0 13 -4 16 -10z m-135 -10 c8 -5 11 -10 5 -10 -5 0 -17 5 -25 10
-8 5 -10 10 -5 10 6 0 17 -5 25 -10z m75 -31 c15 -14 -7 -10 -35 7 l-25 15 25
-7 c14 -3 29 -10 35 -15z m-265 1 c8 -5 11 -10 5 -10 -5 0 -17 5 -25 10 -8 5
-10 10 -5 10 6 0 17 -5 25 -10z m-180 -10 c8 -5 11 -10 5 -10 -5 0 -17 5 -25
10 -8 5 -10 10 -5 10 6 0 17 -5 25 -10z m335 -10 c28 -10 43 -19 34 -20 -9 0
-36 9 -60 20 -57 25 -39 26 26 0z m61 4 c19 -15 19 -15 -1 -6 -11 5 -27 12
-35 15 -13 5 -13 6 1 6 8 1 24 -6 35 -15z m-106 -24 c8 -5 11 -10 5 -10 -5 0
-17 5 -25 10 -8 5 -10 10 -5 10 6 0 17 -5 25 -10z m-1405 -66 c921 -320 1483
-538 2340 -911 88 -39 181 -78 208 -88 69 -26 50 -30 -35 -6 -215 59 -382 76
-451 47 -27 -11 -37 -11 -40 -2 -10 26 -130 95 -185 107 -81 16 -401 16 -672
-1 -323 -20 -389 -19 -478 9 -85 26 -121 55 -202 161 -32 42 -81 97 -110 123
-120 108 -442 322 -588 391 -41 20 -62 36 -62 47 0 31 61 189 73 189 6 0 97
-30 202 -66z m1590 26 c3 -5 2 -10 -4 -10 -5 0 -13 5 -16 10 -3 6 -2 10 4 10
5 0 13 -4 16 -10z m135 -15 c14 -8 21 -14 15 -14 -5 0 -21 6 -35 14 -14 8 -20
14 -15 14 6 0 21 -6 35 -14z m-25 -15 c3 -6 -1 -7 -9 -4 -18 7 -21 14 -7 14 6
0 13 -4 16 -10z m-285 -10 c8 -5 11 -10 5 -10 -5 0 -17 5 -25 10 -8 5 -10 10
-5 10 6 0 17 -5 25 -10z m362 -57 c43 -20 77 -38 75 -40 -2 -2 -42 15 -88 37
-46 22 -80 40 -74 40 5 0 44 -16 87 -37z m53 9 c-3 -3 -11 0 -18 7 -9 10 -8
11 6 5 10 -3 15 -9 12 -12z m40 -12 c3 -6 -1 -7 -9 -4 -18 7 -21 14 -7 14 6 0
13 -4 16 -10z m-240 -20 c3 -5 -4 -6 -15 -3 -11 3 -22 9 -25 13 -3 5 4 6 15 3
11 -3 22 -9 25 -13z m135 0 c19 -11 31 -19 25 -19 -5 0 -26 8 -45 19 -19 11
-30 19 -25 19 6 0 26 -8 45 -19z m160 -5 c17 -9 30 -18 30 -21 0 -4 -59 23
-69 32 -10 9 13 3 39 -11z m-240 -20 c14 -8 21 -14 15 -14 -5 0 -21 6 -35 14
-14 8 -20 14 -15 14 6 0 21 -6 35 -14z m235 -5 c3 -6 -1 -7 -9 -4 -18 7 -21
14 -7 14 6 0 13 -4 16 -10z m222 -31 c24 -12 42 -23 40 -25 -2 -3 -28 7 -58
21 -30 14 -48 25 -40 25 8 0 34 -10 58 -21z m-172 -40 c6 -6 -9 -2 -33 9 -55
25 -69 39 -17 18 22 -10 45 -22 50 -27z m299 22 c4 -5 -3 -7 -14 -4 -23 6 -26
13 -6 13 8 0 17 -4 20 -9z m-154 -21 c8 -5 11 -10 5 -10 -5 0 -17 5 -25 10 -8
5 -10 10 -5 10 6 0 17 -5 25 -10z m120 -10 c8 -5 11 -10 5 -10 -5 0 -17 5 -25
10 -8 5 -10 10 -5 10 6 0 17 -5 25 -10z m-4 -36 c47 -20 83 -38 81 -41 -4 -3
-167 64 -176 73 -11 11 17 1 95 -32z m349 10 c26 -19 19 -18 -40 6 -42 17 -44
19 -15 14 19 -4 44 -13 55 -20z m-176 -8 c21 -12 21 -14 6 -20 -10 -3 -20 -4
-23 -1 -3 3 1 5 9 5 8 1 3 7 -11 15 -14 8 -20 14 -15 14 6 0 21 -6 34 -13z
m317 -7 c27 -7 44 -17 44 -26 0 -12 -3 -13 -14 -4 -7 6 -31 17 -52 25 -48 18
-38 20 22 5z m-132 -19 c46 -19 66 -37 24 -21 -55 22 -92 40 -81 41 6 0 32 -9
57 -20z m-355 -11 c34 -12 60 -23 58 -25 -2 -2 -35 7 -73 20 -38 14 -64 25
-58 25 5 1 38 -8 73 -20z m197 -27 c-5 -4 -86 36 -86 43 0 3 20 -5 45 -17 24
-12 43 -23 41 -26z m94 26 c10 -6 7 -7 -10 -2 -14 3 -32 11 -40 16 -10 6 -7 7
10 2 14 -3 32 -11 40 -16z m483 -17 c86 -16 164 -34 174 -39 10 -5 23 -8 28
-6 6 3 159 -30 340 -71 234 -53 456 -113 760 -205 237 -71 452 -134 478 -141
26 -6 46 -13 45 -14 -8 -8 -293 -38 -653 -70 -220 -19 -465 -42 -545 -51
l-145 -17 -61 37 c-34 20 -71 38 -82 39 -11 0 -20 6 -19 11 1 6 -13 15 -30 20
-18 6 -33 15 -33 21 0 6 -48 36 -107 67 -68 35 -107 61 -106 70 2 8 -16 32
-38 53 -23 22 -39 33 -35 25 4 -8 -2 -4 -13 10 -11 14 -21 28 -21 33 0 4 -5 7
-12 7 -14 0 -48 30 -48 43 0 5 7 4 15 -3 16 -13 20 -3 7 16 -4 6 -41 23 -82
39 -41 15 -93 36 -115 45 -22 10 -58 25 -80 34 -31 13 -33 15 -10 11 16 -4 81
-27 143 -51 63 -25 116 -43 118 -41 7 6 -55 43 -86 52 -53 14 -80 28 -80 41 0
7 -13 20 -30 29 -42 21 -38 28 8 11 108 -38 122 -38 125 2 2 28 3 28 190 -7z
m-438 -1 c3 -6 -1 -7 -9 -4 -18 7 -21 14 -7 14 6 0 13 -4 16 -10z m-325 -30
c8 -5 11 -10 5 -10 -5 0 -17 5 -25 10 -8 5 -10 10 -5 10 6 0 17 -5 25 -10z
m190 0 c8 -5 11 -10 5 -10 -5 0 -17 5 -25 10 -8 5 -10 10 -5 10 6 0 17 -5 25
-10z m167 -34 c51 -20 97 -36 102 -36 5 0 30 -9 55 -20 26 -11 48 -19 51 -19
13 -1 66 -33 62 -38 -3 -2 -16 1 -29 8 -12 7 -27 14 -33 15 -5 1 -32 12 -60
23 -27 11 -98 39 -157 62 -60 22 -108 43 -108 46 0 3 6 3 13 0 6 -3 53 -21
104 -41z m-407 24 c8 -5 11 -10 5 -10 -5 0 -17 5 -25 10 -8 5 -10 10 -5 10 6
0 17 -5 25 -10z m-140 -22 c10 -6 7 -7 -10 -2 -14 3 -32 11 -40 16 -10 6 -7 7
10 2 14 -3 32 -11 40 -16z m275 1 c22 -10 29 -16 16 -13 -37 10 -88 33 -71 33
8 0 33 -9 55 -20z m198 -35 c34 -14 80 -34 102 -43 22 -10 55 -24 74 -31 19
-8 30 -15 24 -17 -9 -3 -259 101 -272 113 -11 10 15 2 72 -22z m71 0 c17 -7
24 -13 16 -13 -8 0 -33 9 -55 20 -43 20 -11 15 39 -7z m-129 -12 c-3 -3 -11 0
-18 7 -9 10 -8 11 6 5 10 -3 15 -9 12 -12z m-855 -7 c14 -8 21 -14 15 -14 -5
0 -21 6 -35 14 -14 8 -20 14 -15 14 6 0 21 -6 35 -14z m545 -5 c3 -6 -1 -7 -9
-4 -18 7 -21 14 -7 14 6 0 13 -4 16 -10z m400 -52 c12 -12 11 -12 -67 24 -32
15 -58 29 -58 32 0 8 113 -43 125 -56z m-488 26 c-5 -5 -57 13 -57 20 0 3 14
0 31 -6 16 -6 28 -12 26 -14z m4126 19 c-18 -2 -48 -2 -65 0 -18 2 -4 4 32 4
36 0 50 -2 33 -4z m-3898 -13 c13 -5 14 -9 5 -9 -8 0 -24 4 -35 9 -13 5 -14 9
-5 9 8 0 24 -4 35 -9z m409 -5 c11 -8 15 -15 10 -15 -6 0 -19 7 -30 15 -10 8
-14 14 -9 14 6 0 19 -6 29 -14z m-4928 -17 c10 -12 13 -18 7 -14 -8 4 -13 2
-13 -4 0 -7 -7 -9 -16 -6 -8 3 -12 2 -9 -4 3 -6 -1 -10 -10 -10 -16 0 -37 38
-28 53 9 15 51 6 69 -15z m4339 2 c3 -6 -1 -7 -9 -4 -18 7 -21 14 -7 14 6 0
13 -4 16 -10z m245 -5 c14 -8 21 -14 15 -14 -5 0 -21 6 -35 14 -14 8 -20 14
-15 14 6 0 21 -6 35 -14z m250 -5 c8 -5 11 -10 5 -10 -5 0 -17 5 -25 10 -8 5
-10 10 -5 10 6 0 17 -5 25 -10z m-660 -20 c81 -21 259 -81 264 -89 3 -4 -18 0
-47 10 -29 10 -106 34 -172 54 -65 20 -122 39 -125 42 -3 3 4 3 15 0 11 -3 40
-11 65 -17z m230 10 c8 -5 11 -10 5 -10 -5 0 -17 5 -25 10 -8 5 -10 10 -5 10
6 0 17 -5 25 -10z m125 0 c13 -5 14 -9 5 -9 -8 0 -24 4 -35 9 -13 5 -14 9 -5
9 8 0 24 -4 35 -9z m550 -27 c39 -15 77 -33 85 -40 8 -8 -30 5 -85 27 -55 23
-102 44 -105 48 -6 6 8 2 105 -35z m-149 -10 c-5 -5 -76 24 -76 31 0 2 18 -3
40 -11 22 -9 38 -18 36 -20z m-576 17 c18 -12 2 -12 -25 0 -13 6 -15 9 -5 9 8
0 22 -4 30 -9z m101 -7 c13 -15 12 -15 -8 -4 -24 12 -29 21 -14 21 5 0 15 -7
22 -17z m129 7 c8 -5 11 -10 5 -10 -5 0 -17 5 -25 10 -8 5 -10 10 -5 10 6 0
17 -5 25 -10z m405 0 c3 -6 -1 -7 -9 -4 -18 7 -21 14 -7 14 6 0 13 -4 16 -10z
m2672 4 c-3 -3 -12 -4 -19 -1 -8 3 -5 6 6 6 11 1 17 -2 13 -5z m666 -1 c-13
-2 -35 -2 -50 0 -16 2 -5 4 22 4 28 0 40 -2 28 -4z m-3783 -13 c8 -5 11 -10 5
-10 -5 0 -17 5 -25 10 -8 5 -10 10 -5 10 6 0 17 -5 25 -10z m145 0 c3 -6 -1
-7 -9 -4 -18 7 -21 14 -7 14 6 0 13 -4 16 -10z m170 -38 c22 -12 37 -21 34
-22 -10 0 -139 60 -139 65 0 6 51 -15 105 -43z m-400 12 c24 -11 25 -13 5 -8
-14 4 -38 13 -55 20 -24 11 -25 13 -5 8 14 -4 39 -13 55 -20z m605 4 c10 -6 7
-7 -10 -2 -14 3 -32 11 -40 16 -10 6 -7 7 10 2 14 -3 32 -11 40 -16z m-900 -3
c17 -9 32 -15 35 -15 17 1 55 -14 55 -21 0 -6 -10 -4 -22 2 -12 7 -29 13 -38
14 -20 2 -70 23 -70 30 0 8 9 6 40 -10z m468 -6 c42 -16 22 -18 -23 -2 -25 8
-45 17 -45 20 0 4 25 -2 68 -18z m97 -81 c5 -5 -19 2 -55 16 -90 34 -160 64
-160 70 0 6 202 -75 215 -86z m95 62 c19 -11 31 -19 25 -19 -5 0 -26 8 -45 19
-19 11 -30 19 -25 19 6 0 26 -8 45 -19z m3573 13 c-7 -2 -19 -2 -25 0 -7 3 -2
5 12 5 14 0 19 -2 13 -5z m192 -12 c-3 -6 -11 -11 -17 -11 -6 0 -6 6 2 15 14
17 26 13 15 -4z m-4130 -9 c-3 -3 -11 0 -18 7 -9 10 -8 11 6 5 10 -3 15 -9 12
-12z m-89 -29 c22 -8 41 -21 41 -28 0 -10 -6 -9 -24 5 -13 10 -41 21 -63 25
-21 4 -44 13 -50 20 -12 15 -10 14 96 -22z m323 -42 c47 -21 105 -47 129 -56
23 -10 40 -20 38 -22 -2 -2 -44 12 -92 33 -49 20 -96 37 -105 38 -8 0 -23 9
-33 19 -10 9 -23 17 -30 17 -7 0 -21 7 -32 15 -18 14 -17 14 10 5 16 -6 68
-28 115 -49z m-389 23 c0 -2 -9 0 -20 6 -11 6 -20 13 -20 16 0 2 9 0 20 -6 11
-6 20 -13 20 -16z m517 20 c-3 -3 -12 -4 -19 -1 -8 3 -5 6 6 6 11 1 17 -2 13
-5z m3293 -6 c0 -11 -22 -10 -40 2 -11 8 -9 9 13 8 15 -1 27 -6 27 -10z
m-3179 -15 c13 -17 13 -17 -6 -3 -11 8 -22 16 -24 17 -2 2 0 3 6 3 6 0 17 -8
24 -17z m-460 -18 c19 -8 29 -14 23 -15 -7 0 -27 7 -45 15 -19 8 -29 14 -23
15 7 0 27 -7 45 -15z m3552 8 c-7 -2 -19 -2 -25 0 -7 3 -2 5 12 5 14 0 19 -2
13 -5z m-3478 -13 c3 -6 -1 -7 -9 -4 -18 7 -21 14 -7 14 6 0 13 -4 16 -10z
m275 -26 c0 -2 -13 2 -30 11 -16 9 -30 18 -30 21 0 2 14 -2 30 -11 17 -9 30
-18 30 -21z m96 11 c25 -19 14 -19 -22 0 -16 8 -22 15 -13 15 8 0 24 -7 35
-15z m-4247 -48 c1 -10 -3 -15 -9 -12 -5 3 -10 21 -9 38 0 27 2 29 9 12 5 -11
9 -28 9 -38z m7324 46 c-7 -2 -21 -2 -30 0 -10 3 -4 5 12 5 17 0 24 -2 18 -5z
m-3492 -23 c31 -26 15 -26 -18 0 -14 11 -21 20 -15 20 5 0 20 -9 33 -20z
m4016 14 c-3 -3 -12 -4 -19 -1 -8 3 -5 6 6 6 11 1 17 -2 13 -5z m-3832 -25 c5
-5 -5 -4 -23 2 -17 6 -32 13 -32 16 0 7 43 -8 55 -18z m-75 -30 c28 -22 48
-44 44 -47 -4 -4 -9 -1 -11 5 -7 20 -93 74 -105 67 -7 -4 -8 -2 -4 4 11 18 21
15 76 -29z m390 31 c13 -9 13 -10 0 -10 -8 0 -22 5 -30 10 -13 9 -13 10 0 10
8 0 22 -5 30 -10z m-236 -30 c25 -10 46 -21 46 -24 0 -6 -73 19 -98 33 -30 18
4 12 52 -9z m141 -10 c3 -5 -1 -10 -9 -10 -8 0 -18 5 -21 10 -3 6 1 10 9 10 8
0 18 -4 21 -10z m3152 -20 c-14 -11 -31 -20 -39 -20 -7 0 1 9 17 19 40 26 54
26 22 1z m94 3 c-12 -10 -35 -28 -49 -39 -36 -29 -131 -80 -162 -88 -14 -4 8
10 48 31 39 21 84 48 100 60 46 38 67 52 77 53 5 0 -1 -8 -14 -17z m-3181 -61
c-10 -4 -140 54 -140 62 0 2 33 -10 74 -27 41 -18 71 -33 66 -35z m27 42 c46
-20 41 -26 -7 -9 -50 18 -88 40 -51 29 13 -3 39 -13 58 -20z m3020 20 c-3 -3
-12 -4 -19 -1 -8 3 -5 6 6 6 11 1 17 -2 13 -5z m181 -26 c-23 -25 -147 -98
-164 -98 -5 0 22 18 60 39 37 21 79 51 93 65 14 15 27 25 30 23 2 -3 -6 -16
-19 -29z m195 25 c-7 -2 -19 -2 -25 0 -7 3 -2 5 12 5 14 0 19 -2 13 -5z
m-3116 -62 c28 -25 79 -65 113 -89 34 -24 59 -46 56 -49 -4 -4 -21 7 -39 24
-17 17 -50 42 -72 55 -22 14 -57 42 -77 62 -20 20 -41 36 -46 36 -6 0 -14 4
-17 10 -14 22 33 -6 82 -49z m2643 50 c-29 -17 -245 -104 -278 -111 -23 -6
-32 -5 -29 3 2 7 12 14 23 15 10 2 33 10 49 17 17 7 68 25 115 40 47 15 92 31
100 36 8 5 20 8 25 8 6 0 3 -4 -5 -8z m390 6 c0 -2 -10 -12 -22 -23 l-23 -19
19 23 c18 21 26 27 26 19z m-50 -11 c0 -2 -8 -10 -17 -17 -16 -13 -17 -12 -4
4 13 16 21 21 21 13z m317 -2 c-3 -3 -12 -4 -19 -1 -8 3 -5 6 6 6 11 1 17 -2
13 -5z m-8607 -14 c0 -5 -5 -10 -11 -10 -5 0 -7 5 -4 10 3 6 8 10 11 10 2 0 4
-4 4 -10z m8019 -7 c-12 -15 -12 -16 4 -10 24 9 21 0 -4 -14 -15 -8 -19 -8
-15 0 10 16 1 14 -54 -14 -56 -28 -182 -76 -188 -71 -1 2 30 18 70 35 40 16
69 31 64 31 -5 0 -3 6 3 14 14 17 75 40 66 26 -9 -15 9 -12 31 5 26 20 40 19
23 -2z m-2879 -35 c0 -6 -6 -5 -15 2 -8 7 -15 14 -15 16 0 2 7 1 15 -2 8 -4
15 -11 15 -16z m250 -13 c0 -11 -19 -4 -41 15 l-24 21 33 -16 c17 -8 32 -18
32 -20z m3060 20 c-14 -8 -29 -14 -35 -14 -5 0 1 6 15 14 14 8 30 14 35 14 6
0 -1 -6 -15 -14z m-3394 -11 c18 -14 18 -14 -6 -3 -31 14 -36 19 -24 19 6 0
19 -7 30 -16z m3314 1 c-14 -8 -29 -14 -35 -14 -5 0 1 6 15 14 14 8 30 14 35
14 6 0 -1 -6 -15 -14z m-6477 -58 c37 -27 67 -51 67 -53 0 -2 -17 3 -37 12
-21 9 -57 23 -80 31 -38 13 -43 19 -43 45 0 34 -2 35 93 -35z m3312 43 c22
-10 33 -19 25 -19 -8 0 -31 8 -50 19 -45 24 -28 24 25 0z m2480 10 c-3 -5 -12
-10 -18 -10 -7 0 -6 4 3 10 19 12 23 12 15 0z m305 5 c0 -6 -76 -45 -87 -45
-4 1 12 12 37 25 50 27 50 27 50 20z m-195 -27 c-55 -29 -105 -49 -105 -43 0
7 122 65 135 65 6 -1 -8 -10 -30 -22z m505 18 c0 -2 -7 -7 -16 -10 -8 -3 -12
-2 -9 4 6 10 25 14 25 6z m-8340 -16 c0 -5 -34 -37 -76 -70 -58 -47 -83 -61
-104 -58 -15 1 -35 -4 -44 -11 -19 -16 -21 -8 -5 20 6 11 17 18 24 15 7 -2 19
2 25 10 10 11 10 14 1 14 -7 0 -9 5 -5 11 5 8 13 4 24 -11 18 -24 45 -18 45
10 0 8 10 16 23 18 15 2 22 10 22 24 0 12 3 19 6 15 4 -3 13 0 21 8 16 17 43
20 43 5z m5030 0 c0 -5 -2 -10 -4 -10 -3 0 -8 5 -11 10 -3 6 -1 10 4 10 6 0
11 -4 11 -10z m158 -10 c23 -11 42 -26 42 -32 0 -6 -9 -3 -20 7 -22 20 -28 8
-7 -15 6 -8 -6 1 -28 20 -22 19 -42 36 -44 38 -2 1 0 2 5 2 6 0 29 -9 52 -20z
m331 -19 c11 -7 21 -14 21 -17 0 -2 -9 0 -21 6 -40 22 -30 2 13 -24 24 -14 37
-26 29 -26 -11 0 -60 34 -104 70 -13 11 38 3 62 -9z m2791 9 c-8 -5 -19 -10
-25 -10 -5 0 -3 5 5 10 8 5 20 10 25 10 6 0 3 -5 -5 -10z m-3225 -10 c3 -6 -1
-7 -9 -4 -18 7 -21 14 -7 14 6 0 13 -4 16 -10z m-4545 -36 c0 -14 -6 -24 -14
-24 -22 0 -28 17 -16 40 14 26 30 17 30 -16z m4689 -48 c42 -45 17 -28 -44 30
-39 37 -46 46 -20 26 22 -16 51 -42 64 -56z m109 42 c34 -24 58 -44 53 -46 -5
-2 -37 17 -71 42 -78 58 -66 60 18 4z m2792 32 c-8 -5 -19 -10 -25 -10 -5 0
-3 5 5 10 8 5 20 10 25 10 6 0 3 -5 -5 -10z m110 -10 c-8 -5 -19 -10 -25 -10
-5 0 -3 5 5 10 8 5 20 10 25 10 6 0 3 -5 -5 -10z m-2650 -26 c0 -2 -9 0 -20 6
-11 6 -20 13 -20 16 0 2 9 0 20 -6 11 -6 20 -13 20 -16z m2120 16 c-8 -5 -19
-10 -25 -10 -5 0 -3 5 5 10 8 5 20 10 25 10 6 0 3 -5 -5 -10z m370 0 c-8 -5
-19 -10 -25 -10 -5 0 -3 5 5 10 8 5 20 10 25 10 6 0 3 -5 -5 -10z m-311 -4
c-10 -9 -69 -36 -69 -32 0 7 52 35 64 36 5 0 7 -2 5 -4z m-2484 -74 c-4 -5
-22 12 -45 43 -8 11 0 7 18 -9 17 -16 30 -32 27 -34z m38 9 c-2 -3 -16 8 -31
24 l-27 28 31 -24 c17 -13 30 -26 27 -28z m2582 29 c-3 -5 -12 -10 -18 -10 -7
0 -6 4 3 10 19 12 23 12 15 0z m85 0 c-8 -5 -19 -10 -25 -10 -5 0 -3 5 5 10 8
5 20 10 25 10 6 0 3 -5 -5 -10z m-2795 -10 c3 -6 -1 -7 -9 -4 -18 7 -21 14 -7
14 6 0 13 -4 16 -10z m2652 -16 c-3 -3 -12 -4 -19 -1 -8 3 -5 6 6 6 11 1 17
-2 13 -5z m33 -14 c-8 -5 -19 -10 -25 -10 -5 0 -3 5 5 10 8 5 20 10 25 10 6 0
3 -5 -5 -10z m-180 -9 c-8 -5 -26 -11 -40 -15 -21 -5 -20 -3 5 9 32 15 60 20
35 6z m-230 -21 c-19 -11 -39 -19 -45 -19 -5 0 6 8 25 19 19 11 40 19 45 19 6
0 -6 -8 -25 -19z m120 -20 c-8 -5 -19 -10 -25 -10 -5 0 -3 5 5 10 8 5 20 10
25 10 6 0 3 -5 -5 -10z m-210 -20 c-8 -5 -19 -10 -25 -10 -5 0 -3 5 5 10 8 5
20 10 25 10 6 0 3 -5 -5 -10z m480 -15 c-14 -8 -29 -14 -35 -14 -5 0 1 6 15
14 14 8 30 14 35 14 6 0 -1 -6 -15 -14z m-71 -29 c-2 -2 -15 -9 -29 -15 -24
-11 -24 -11 -6 3 16 13 49 24 35 12z m-9174 -616 c3 -5 -1 -10 -9 -10 -9 0
-16 5 -16 10 0 6 4 10 9 10 6 0 13 -4 16 -10z m-822 -507 c-23 -56 -25 -59
-35 -33 -7 18 -4 28 13 47 32 33 40 28 22 -14z m-74 -15 c-6 -23 -14 -48 -19
-57 -8 -13 -9 -11 -10 10 0 45 12 89 25 89 10 0 11 -10 4 -42z m-195 -91 c2
-15 12 -37 20 -49 20 -28 20 -38 1 -38 -20 0 -31 26 -39 90 -6 56 8 53 18 -3z
m-106 -48 c-3 -8 -7 -3 -11 10 -4 17 -3 21 5 13 5 -5 8 -16 6 -23z m774 -210
c-9 -37 -81 -58 -114 -34 -13 10 -16 15 -8 13 8 -3 26 -8 40 -12 l25 -7 -24
19 -24 19 29 10 c38 13 80 9 76 -8z m-867 -19 c3 -6 -1 -7 -9 -4 -18 7 -21 14
-7 14 6 0 13 -4 16 -10z m736 -29 l23 -18 -30 -17 c-16 -10 -21 -15 -11 -12
30 9 73 17 60 10 -7 -3 -13 -10 -13 -16 0 -15 -32 -37 -54 -38 -22 0 -86 37
-86 51 0 5 7 9 15 9 8 0 14 6 13 13 -2 7 9 13 26 15 22 3 26 6 15 13 -12 7
-11 9 2 9 9 0 27 -8 40 -19z m-66 -101 c3 -5 1 -10 -4 -10 -6 0 -11 5 -11 10
0 6 2 10 4 10 3 0 8 -4 11 -10z m28 -107 c-7 -2 -19 -2 -25 0 -7 3 -2 5 12 5
14 0 19 -2 13 -5z m137 -30 c-2 -38 -107 -67 -143 -41 -17 12 -13 14 34 13 54
0 80 20 37 28 -13 2 -2 5 25 6 26 0 47 -2 47 -6z m-553 -75 c-3 -8 -6 -5 -6 6
-1 11 2 17 5 13 3 -3 4 -12 1 -19z m8351 -641 c109 -103 180 -151 257 -172
107 -30 457 -145 590 -195 127 -47 590 -203 950 -319 99 -32 236 -79 305 -105
69 -26 188 -70 265 -97 77 -27 147 -52 155 -55 24 -9 -3 -19 -141 -57 -290
-80 -952 -193 -1264 -217 -119 -9 -712 -32 -1150 -45 -99 -3 -212 -8 -252 -11
l-72 -5 13 28 c8 15 46 93 85 173 53 110 80 181 111 294 32 115 48 157 70 182
74 85 64 232 -22 321 -30 31 -32 38 -36 123 -3 65 0 108 12 153 23 82 24 87
32 87 3 0 45 -37 92 -83z m-1496 -236 c40 -38 90 -77 112 -87 21 -11 39 -23
39 -29 1 -16 -540 -285 -647 -321 -55 -19 -101 -32 -103 -30 -2 1 6 23 17 48
25 56 108 134 201 189 103 60 298 147 347 155 50 8 50 11 -4 20 -38 6 -53 19
-65 59 -6 22 9 65 23 65 4 0 41 -31 80 -69z"/>
<path d="M10880 5495 c-14 -8 -20 -14 -15 -14 6 0 21 6 35 14 14 8 21 14 15
14 -5 0 -21 -6 -35 -14z"/>
</g>
</svg>
