<?xml version="1.0" standalone="no"?>
<!DOCTYPE svg PUBLIC "-//W3C//DTD SVG 20010904//EN"
 "http://www.w3.org/TR/2001/REC-SVG-20010904/DTD/svg10.dtd">
<svg version="1.0" xmlns="http://www.w3.org/2000/svg"
 width="1280.000000pt" height="1280.000000pt" viewBox="0 0 1280.000000 1280.000000"
 preserveAspectRatio="xMidYMid meet">
<metadata>
Created by potrace 1.15, written by Peter Selinger 2001-2017
</metadata>
<g transform="translate(0.000000,1280.000000) scale(0.100000,-0.100000)"
fill="#333333" stroke="none">
<path d="M5965 12514 c-159 -124 -346 -224 -529 -283 -194 -63 -363 -170 -593
-378 -90 -82 -93 -83 -99 -58 -20 81 30 210 131 343 31 41 55 75 53 77 -5 5
-325 -221 -428 -303 -52 -41 -155 -134 -229 -206 -135 -133 -181 -197 -181
-257 0 -35 -34 -76 -77 -94 -19 -8 -101 -33 -182 -56 -452 -126 -523 -176
-491 -346 13 -65 19 -73 40 -48 10 13 16 11 44 -9 17 -13 41 -29 53 -35 22
-11 22 -10 -4 46 l-26 56 29 24 c35 28 41 28 48 5 4 -11 18 -29 31 -42 l25
-23 0 60 0 61 41 16 c46 18 59 15 59 -17 0 -22 16 -55 22 -47 2 3 10 25 18 50
15 45 15 45 66 48 l51 3 19 -48 c13 -34 19 -42 22 -28 2 11 8 35 14 53 9 31
12 33 51 30 34 -2 43 -7 45 -24 2 -12 17 -36 33 -55 l30 -34 -6 36 c-8 51 16
77 78 85 43 6 47 5 47 -14 0 -26 20 -72 32 -72 4 0 8 13 8 30 0 48 20 78 69
102 25 12 77 53 115 91 l69 70 -5 -41 c-5 -31 -24 -63 -84 -139 -84 -105 -99
-123 -108 -123 -6 0 -46 -32 -78 -62 -17 -17 -18 -17 -18 2 0 31 -19 24 -37
-14 -9 -20 -29 -40 -45 -47 -22 -9 -26 -14 -16 -20 10 -7 10 -9 -2 -9 -8 0
-25 -3 -37 -6 -21 -6 -23 -3 -23 35 0 22 -4 41 -9 41 -12 0 -42 -47 -50 -79
-6 -20 -16 -27 -50 -34 -49 -10 -67 0 -76 44 -4 16 -10 29 -15 29 -10 0 -20
-36 -20 -73 0 -23 -7 -31 -37 -43 -34 -15 -38 -15 -50 3 -8 10 -16 28 -20 41
-3 12 -9 22 -13 22 -10 0 -33 -100 -25 -108 8 -8 -16 -32 -33 -32 -8 0 -30 16
-48 35 -20 21 -35 31 -39 24 -9 -14 3 -76 21 -111 8 -16 12 -33 8 -39 -3 -6 1
-18 9 -27 27 -31 45 -77 57 -142 14 -78 30 -109 70 -144 38 -32 66 -36 50 -7
-5 11 -10 46 -10 78 0 128 92 233 289 333 100 50 141 62 210 61 61 -1 176 23
196 40 12 12 82 11 127 -1 46 -13 55 -44 33 -115 -29 -98 -13 -151 53 -176 82
-32 220 -61 268 -57 69 6 94 24 153 112 53 77 84 105 139 124 32 11 32 11 26
-16 -10 -45 -62 -152 -93 -190 -16 -21 -94 -100 -173 -177 -281 -274 -475
-472 -579 -595 -311 -366 -486 -676 -544 -969 -39 -189 8 -573 105 -862 62
-188 178 -396 280 -504 16 -16 43 -57 60 -89 96 -185 274 -364 464 -471 239
-133 484 -199 1006 -270 504 -68 663 -97 842 -156 114 -38 266 -115 333 -169
28 -22 58 -43 67 -46 18 -7 47 -85 74 -199 21 -92 20 -285 -1 -390 -24 -117
-69 -244 -131 -372 -52 -105 -161 -280 -216 -346 l-23 -28 -41 18 -40 17 67
110 c37 61 66 113 63 117 -2 4 -52 34 -112 67 -394 219 -539 266 -1012 329
-192 26 -552 25 -670 -1 -257 -56 -455 -161 -630 -336 -197 -195 -320 -442
-367 -735 -23 -146 -14 -377 20 -508 46 -173 129 -325 245 -449 29 -31 53 -59
53 -62 -3 -17 64 -130 113 -193 156 -200 495 -375 871 -449 133 -27 429 -25
585 4 213 39 423 110 650 218 302 145 512 280 750 482 52 45 111 90 132 102
l36 20 14 -72 c8 -46 13 -145 12 -268 0 -161 -4 -213 -22 -300 -39 -184 -80
-295 -189 -508 -119 -232 -154 -321 -184 -465 -28 -132 -31 -342 -5 -470 42
-214 148 -433 293 -604 24 -29 56 -75 71 -103 45 -83 141 -207 217 -279 78
-74 195 -159 195 -141 0 6 14 -5 30 -24 17 -19 54 -49 83 -67 28 -19 54 -37
55 -41 2 -5 9 -5 14 -2 7 4 8 2 4 -5 -11 -17 59 -153 106 -206 l40 -45 276 0
277 0 -55 37 c-30 20 -78 55 -107 79 l-52 42 122 6 c67 4 174 14 237 22 111
15 360 68 389 84 8 4 -34 11 -95 15 -494 30 -785 140 -884 336 -16 31 -43 68
-60 82 -69 59 -234 43 -259 -25 -7 -19 -14 -15 -87 49 -88 78 -168 163 -224
238 -34 45 -38 58 -43 125 -7 100 8 240 39 356 34 133 96 284 218 534 165 338
231 524 283 789 23 121 26 161 27 356 1 236 -11 331 -61 505 -27 95 -80 217
-98 228 -7 4 -29 61 -49 127 -20 66 -43 138 -50 160 -16 46 -17 45 87 225 72
125 150 287 207 430 81 205 113 246 230 305 104 52 112 75 54 171 -62 102 -76
134 -62 138 7 2 45 9 84 16 105 17 191 45 168 54 -11 4 -50 19 -89 33 -38 14
-96 39 -128 56 -58 30 -58 31 -52 66 12 66 53 139 114 205 84 91 84 109 -7
207 -74 81 -102 117 -102 135 0 6 21 17 46 23 79 20 284 122 284 141 0 3 -57
11 -127 17 -72 6 -158 21 -197 33 l-68 21 7 46 c4 25 28 86 53 135 45 85 46
90 31 116 -10 18 -44 42 -100 69 -87 43 -179 114 -179 138 0 7 15 16 33 19 91
17 224 109 318 218 33 39 58 72 56 75 -3 2 -63 -10 -134 -28 -141 -37 -285
-45 -355 -21 -42 15 -47 29 -35 93 14 70 -5 102 -61 109 -40 5 -48 11 -106 83
l-61 77 50 54 c84 89 141 233 159 404 l5 52 -122 -124 c-118 -119 -179 -165
-255 -191 -34 -12 -38 -11 -98 30 -89 61 -176 107 -274 146 -47 18 -86 34 -88
35 -1 0 5 30 14 65 21 83 15 213 -16 329 -12 47 -26 89 -30 93 -4 5 -22 -35
-39 -89 -38 -118 -100 -246 -144 -297 l-32 -38 -100 16 c-55 8 -166 18 -246
22 l-147 6 -6 66 c-4 36 -14 93 -22 126 -19 73 -73 205 -84 205 -4 0 -11 -21
-15 -47 -12 -85 -53 -231 -81 -294 l-28 -62 -223 5 c-122 2 -225 6 -227 9 -2
2 2 29 10 59 18 71 18 202 -2 296 -25 125 -26 126 -58 42 -49 -125 -117 -248
-170 -306 l-51 -54 -60 12 c-104 21 -180 49 -224 80 -37 27 -40 33 -30 51 23
44 3 85 -71 144 -70 56 -107 99 -128 147 -11 26 -10 27 64 62 83 39 135 74
212 140 l53 46 -161 -7 -160 -6 19 44 c46 104 112 151 230 164 48 6 70 13 88
31 23 23 24 29 17 91 l-7 66 51 -5 51 -5 -29 37 c-16 20 -36 43 -45 50 -22 18
-19 35 17 102 55 104 137 165 267 198 24 6 55 23 69 37 23 23 24 29 18 91 -3
37 -8 77 -10 90 -5 21 -2 22 61 22 l66 0 -59 53 c-67 62 -67 35 0 222 19 55
45 145 57 200 33 153 59 193 156 238 72 33 83 44 83 84 0 35 -11 63 -39 99 -9
11 14 -11 51 -49 37 -38 93 -105 125 -149 32 -43 59 -75 61 -70 9 29 -148 333
-257 495 l-69 103 36 22 c21 13 62 35 92 50 30 15 56 32 58 39 1 6 -36 31 -84
54 -97 49 -140 91 -150 146 -4 21 -11 41 -16 44 -6 4 23 9 63 13 148 14 370
-27 543 -98 49 -20 91 -34 95 -30 11 11 -158 162 -228 204 -183 109 -325 143
-593 144 -102 1 -182 4 -176 7 5 3 9 10 8 15 -7 49 140 125 340 175 145 36
460 37 600 2 51 -12 5 15 -70 42 -118 42 -262 73 -396 86 -214 21 -453 -15
-637 -96 -45 -20 -88 -39 -94 -42 -18 -7 -16 30 4 96 28 87 103 161 222 218
123 59 169 90 260 177 94 90 249 287 225 285 -5 0 -40 -25 -79 -55z m-1618
-988 c-29 -63 -73 -94 -107 -76 -11 6 -20 15 -20 20 0 5 26 28 58 52 31 23 63
51 71 62 26 35 24 -1 -2 -58z m1703 -6975 c93 -21 247 -74 276 -95 17 -13 13
-20 -56 -97 -96 -106 -283 -276 -374 -341 -200 -141 -418 -198 -640 -169 -108
15 -227 51 -282 87 l-41 26 14 62 c7 33 33 102 58 152 70 143 190 248 365 317
80 31 205 64 296 76 96 14 282 4 384 -18z m1780 -4031 c8 -5 12 -11 10 -14 -3
-2 -14 2 -24 10 -22 15 -10 19 14 4z"/>
<path d="M3919 10347 c-44 -29 -64 -66 -55 -100 7 -29 40 -43 75 -32 28 8 78
62 90 96 20 57 -46 79 -110 36z"/>
</g>
</svg>
