<?xml version="1.0" standalone="no"?>
<!DOCTYPE svg PUBLIC "-//W3C//DTD SVG 20010904//EN"
 "http://www.w3.org/TR/2001/REC-SVG-20010904/DTD/svg10.dtd">
<svg version="1.0" xmlns="http://www.w3.org/2000/svg"
 width="1280.000000pt" height="1043.000000pt" viewBox="0 0 1280.000000 1043.000000"
 preserveAspectRatio="xMidYMid meet">
<metadata>
Created by potrace 1.15, written by Peter Selinger 2001-2017
</metadata>
<g transform="translate(0.000000,1043.000000) scale(0.100000,-0.100000)"
fill="#333333" stroke="none">
<path d="M4675 10414 c-481 -102 -1319 -619 -1656 -1022 -223 -267 -374 -567
-435 -869 -44 -220 -50 -441 -18 -713 l6 -55 -57 55 c-97 93 -186 234 -215
340 l-13 45 -10 -35 c-15 -57 -2 -168 31 -253 40 -103 130 -234 312 -457 174
-212 251 -322 307 -435 108 -214 151 -413 173 -788 10 -176 2 -367 -17 -402
-15 -26 87 79 159 165 157 187 223 321 291 596 67 265 82 370 81 569 0 255
-17 317 -218 807 -92 226 -125 342 -132 468 -8 140 11 201 121 388 49 83 90
150 92 148 2 -2 -4 -77 -12 -168 -12 -128 -13 -181 -5 -234 11 -71 39 -168 46
-161 2 2 16 48 30 103 66 254 179 488 337 699 119 157 389 402 539 489 21 11
38 25 38 29 0 5 -11 23 -24 40 -49 66 -69 120 -74 197 -4 63 0 85 18 127 56
130 240 240 510 303 l55 13 -30 13 c-40 17 -143 16 -230 -2z"/>
<path d="M6010 10129 c-343 -32 -846 -158 -1191 -300 -309 -126 -552 -289
-765 -512 -254 -266 -411 -579 -489 -972 -14 -71 -27 -134 -28 -139 -5 -17
-95 168 -117 241 -12 39 -25 111 -29 160 l-7 88 -22 -45 c-71 -153 -46 -329
93 -665 206 -496 233 -602 222 -895 -6 -168 -27 -301 -83 -524 -43 -170 -67
-241 -111 -330 -102 -204 -181 -293 -723 -821 -259 -253 -387 -416 -490 -630
-66 -136 -66 -136 -3 -157 167 -54 454 -67 763 -35 85 9 254 23 375 32 121 9
362 29 535 46 485 46 733 69 746 69 6 0 22 26 35 58 64 162 191 381 296 512
65 80 191 207 241 242 128 88 316 148 467 148 145 0 246 -36 340 -122 112
-102 152 -242 119 -411 -6 -28 -5 -28 37 -25 37 3 46 8 64 38 16 29 21 56 24
153 4 149 -8 255 -64 539 -73 372 -79 468 -34 564 28 58 100 138 154 169 144
85 357 33 554 -136 l84 -72 -7 39 c-4 21 -32 86 -63 143 -43 81 -63 135 -89
240 -19 75 -68 235 -109 356 -41 121 -82 261 -91 310 -25 125 -25 388 -1 508
55 274 205 501 394 594 139 69 252 57 400 -43 36 -24 67 -44 69 -44 11 0 2 45
-15 79 -68 132 -425 312 -886 445 -248 72 -376 141 -522 279 -137 131 -213
276 -214 410 -2 232 169 339 541 338 137 0 153 2 136 15 -85 62 -284 86 -536
63z"/>
<path d="M6160 9317 c0 -5 97 -77 104 -77 14 0 -6 21 -46 51 -36 25 -58 35
-58 26z"/>
<path d="M1451 8318 c-34 -87 -118 -169 -231 -227 -150 -77 -180 -112 -196
-230 l-7 -54 59 7 c175 20 197 20 253 -5 45 -19 57 -30 73 -65 20 -47 36 -55
145 -74 209 -36 382 -128 528 -282 120 -125 189 -252 236 -436 32 -122 33
-355 2 -487 -48 -206 -72 -251 -285 -560 -41 -60 -89 -137 -106 -170 -72 -145
-112 -306 -112 -454 0 -99 32 -288 62 -369 27 -72 110 -155 206 -205 l72 -38
10 25 c6 14 15 38 20 52 9 22 8 25 -7 20 -82 -25 -135 -24 -79 2 35 16 76 74
83 118 l6 38 -28 -22 c-39 -31 -96 -44 -156 -36 l-52 7 52 26 c31 16 61 40 73
60 l22 34 -22 -12 c-30 -16 -87 -14 -130 5 l-37 16 35 10 c42 11 57 25 65 60
7 26 6 27 -27 21 -37 -5 -84 13 -107 41 -12 14 -10 16 13 16 42 0 104 40 126
80 7 12 1 14 -34 12 -47 -4 -87 21 -118 75 l-17 29 58 -4 c51 -4 61 -1 89 23
18 15 32 30 32 33 0 4 -17 15 -38 24 -46 22 -72 63 -72 118 l0 42 39 -7 c45
-7 102 6 150 36 l34 21 -51 29 c-53 30 -72 53 -72 88 0 19 4 20 60 14 45 -4
71 -1 105 12 l46 17 -40 43 c-36 39 -61 94 -61 136 0 26 10 28 43 8 35 -21 87
-25 118 -9 19 11 19 11 -3 53 -13 27 -23 68 -26 113 l-4 71 74 -5 c79 -5 115
6 152 47 18 20 18 21 -8 31 -15 5 -31 10 -36 10 -22 0 -80 65 -90 98 -17 61
-16 62 53 62 78 0 128 14 167 46 35 30 38 44 10 44 -27 0 -90 32 -112 57 -22
23 -48 97 -48 132 0 24 3 26 50 28 58 3 94 19 136 65 34 35 70 98 57 98 -5 0
-37 5 -72 10 -111 19 -193 73 -225 152 -20 47 -21 43 14 58 41 17 97 81 109
127 6 21 11 66 11 100 l0 62 -57 -27 c-49 -22 -72 -26 -149 -27 -83 0 -94 2
-133 28 l-42 28 31 39 c47 59 71 124 77 206 3 41 2 74 -2 74 -4 0 -23 -14 -43
-31 -68 -60 -191 -97 -282 -84 l-47 7 19 51 c15 39 19 69 16 119 -2 37 -7 70
-11 74 -3 4 -21 -4 -39 -18 -112 -85 -239 -106 -360 -59 l-28 10 40 58 c74
105 98 239 64 354 -14 47 -60 149 -67 149 -1 0 -13 -28 -26 -62z"/>
<path d="M520 8028 c0 -3 11 -53 25 -111 38 -161 50 -317 36 -449 -6 -61 -18
-122 -25 -137 -8 -14 -35 -89 -60 -165 -50 -149 -83 -215 -141 -283 -29 -34
-41 -42 -60 -37 -45 11 -87 -25 -106 -90 -15 -55 1 -85 75 -139 34 -25 75 -64
90 -85 25 -37 91 -81 144 -97 16 -4 6 10 -33 49 -47 46 -101 133 -91 143 2 2
23 -8 47 -22 39 -22 125 -38 91 -17 -14 10 -62 73 -62 83 0 4 10 5 21 2 l22
-6 -22 30 c-13 17 -21 41 -19 54 2 20 10 25 41 27 31 3 37 7 37 26 0 46 40 61
58 22 6 -14 20 -30 31 -36 19 -10 20 -8 15 19 -8 36 11 49 37 25 18 -16 19
-16 19 3 0 17 8 21 51 25 65 7 98 31 130 98 25 53 26 54 39 31 22 -43 9 -130
-29 -185 -33 -48 -34 -50 -27 -125 4 -42 10 -101 14 -131 l7 -55 17 25 c9 14
21 64 27 112 10 82 29 135 66 182 17 23 16 23 44 -31 26 -51 28 -129 5 -154
-15 -17 -14 -21 15 -55 39 -43 37 -66 -7 -79 -17 -5 -32 -12 -32 -15 0 -3 11
-21 24 -39 34 -45 23 -77 -25 -74 l-34 3 35 -30 c38 -34 34 -47 -19 -52 l-34
-3 33 -32 34 -33 -43 0 c-23 0 -51 5 -62 11 -18 9 -19 8 -11 -8 14 -26 52 -58
90 -78 27 -13 47 -15 97 -10 77 9 71 -6 85 225 5 91 15 183 22 205 9 28 38 66
102 129 49 50 86 91 80 92 -5 2 -28 8 -51 14 -23 6 -56 22 -73 36 -25 21 -30
33 -30 67 0 53 26 96 72 121 36 19 36 20 43 104 4 47 15 113 25 148 l17 64
-24 0 c-52 0 -128 -53 -146 -102 -10 -28 -15 0 -7 37 26 116 138 154 324 111
228 -53 399 -225 479 -481 68 -216 58 -387 -33 -581 -98 -210 -262 -386 -530
-566 -518 -349 -674 -518 -764 -832 -50 -169 -53 -421 -10 -621 21 -93 91
-235 155 -313 121 -149 342 -282 586 -353 283 -83 678 -110 1059 -74 338 32
466 64 1094 275 511 171 693 224 920 270 381 78 708 79 1000 5 262 -67 657
-223 940 -372 559 -295 1072 -697 1548 -1213 l115 -125 206 -105 c1152 -588
1914 -855 2668 -935 176 -19 539 -19 703 -1 291 33 541 93 795 191 115 45 317
136 312 141 -1 2 -57 -6 -122 -17 -792 -129 -1466 -113 -2100 51 -295 76 -546
171 -840 316 -510 251 -1020 603 -2070 1425 -453 354 -669 518 -850 645 -423
297 -772 467 -1095 534 -169 35 -313 43 -659 37 -328 -5 -373 -8 -1056 -76
-165 -17 -403 -37 -530 -46 -126 -9 -297 -22 -380 -31 -230 -22 -455 -28 -578
-15 -334 37 -590 170 -675 353 -65 139 -94 438 -58 603 38 177 103 311 262
538 150 214 190 299 230 489 23 109 23 304 -1 413 -49 231 -184 433 -374 559
-95 63 -191 101 -333 131 -158 33 -188 49 -201 106 -9 36 -71 63 -129 56 -23
-4 -110 -11 -193 -17 -169 -12 -202 -20 -236 -56 -23 -24 -24 -33 -25 -147 0
-131 -9 -165 -51 -192 l-23 -15 0 87 c-1 183 -40 375 -101 493 -30 58 -69 120
-69 108z m152 -992 c0 -44 -16 -66 -48 -66 l-24 0 20 40 c11 21 20 52 20 67 0
25 1 26 16 11 9 -9 16 -32 16 -52z"/>
<path d="M1415 7288 c-18 -62 -37 -230 -27 -239 4 -4 24 -14 45 -23 37 -15 37
-15 54 12 49 80 68 108 118 167 l55 65 -40 20 c-36 18 -147 49 -177 50 -7 0
-19 -24 -28 -52z"/>
<path d="M1672 7215 c-34 -29 -121 -143 -146 -192 l-16 -32 50 -50 50 -51 63
51 c34 27 92 64 129 82 37 18 67 36 67 41 2 26 -136 176 -162 176 -3 0 -19
-11 -35 -25z"/>
<path d="M1827 6990 c-65 -33 -140 -86 -176 -123 -21 -23 -22 -29 -12 -58 6
-18 11 -47 11 -65 0 -39 -2 -39 105 -19 44 9 114 15 155 14 l75 -2 -3 34 c-8
70 -72 249 -90 249 -4 0 -33 -14 -65 -30z"/>
<path d="M1795 6690 c-27 -4 -69 -13 -92 -19 -44 -12 -45 -14 -57 -91 -3 -19
-8 -44 -11 -56 -6 -18 0 -22 52 -33 76 -17 136 -37 201 -68 29 -14 56 -23 59
-19 16 15 43 150 43 212 0 66 -2 72 -22 78 -29 7 -109 6 -173 -4z"/>
<path d="M1581 6408 c-17 -29 -38 -62 -46 -73 -14 -20 -11 -23 51 -64 37 -24
93 -70 125 -102 l60 -57 39 51 c49 66 110 167 110 184 0 25 -160 90 -266 107
l-42 7 -31 -53z"/>
<path d="M1420 6208 l-74 -70 39 -31 c48 -37 133 -121 163 -161 l22 -28 80 72
c44 40 80 78 80 85 0 29 -108 127 -200 182 l-35 21 -75 -70z"/>
<path d="M1235 6058 c-38 -27 -79 -56 -89 -64 -19 -13 -17 -17 41 -75 33 -33
75 -85 94 -115 19 -29 36 -54 39 -54 13 0 204 136 208 147 4 15 -151 171 -193
194 -30 17 -30 16 -100 -33z"/>
<path d="M996 5890 c-43 -33 -81 -62 -84 -65 -3 -3 22 -29 55 -59 33 -30 77
-80 98 -110 21 -31 41 -56 44 -56 4 0 38 23 76 51 39 28 76 54 84 59 12 6 8
18 -20 65 -39 65 -140 175 -161 175 -7 0 -49 -27 -92 -60z"/>
<path d="M774 5708 l-91 -81 82 -81 c45 -45 90 -95 100 -113 l18 -31 86 75
c47 42 90 80 95 84 14 13 -59 112 -127 175 -33 30 -63 54 -66 54 -3 0 -47 -37
-97 -82z"/>
<path d="M564 5500 c-43 -50 -82 -97 -86 -105 -6 -10 9 -24 53 -51 34 -20 90
-64 126 -97 56 -53 66 -59 74 -44 6 9 35 50 64 89 30 40 55 76 55 79 0 28
-176 219 -201 219 -3 0 -42 -41 -85 -90z"/>
<path d="M387 5273 c-43 -65 -115 -200 -136 -255 -9 -25 -9 -25 55 -32 74 -8
179 -38 246 -72 26 -13 49 -24 52 -24 2 0 14 32 26 71 12 39 32 96 46 126 l24
55 -23 28 c-45 58 -201 170 -236 170 -5 0 -30 -30 -54 -67z"/>
<path d="M5254 5074 c-104 -62 -165 -134 -200 -238 -18 -52 -26 -51 -54 4 -25
49 -25 95 -1 143 10 20 16 37 12 37 -3 0 -30 -14 -59 -30 -59 -35 -107 -94
-123 -154 -20 -72 -18 -69 -33 -57 -11 9 -15 7 -18 -7 -5 -18 8 -19 326 -18
264 0 356 -3 456 -17 230 -33 434 -95 658 -202 350 -168 660 -383 1467 -1015
857 -671 1359 -1030 1775 -1267 158 -90 320 -176 325 -171 3 2 -18 22 -46 43
-102 77 -159 184 -139 255 5 18 7 36 4 39 -3 3 -31 6 -63 5 -60 -1 -104 -18
-135 -53 -11 -12 -22 -21 -26 -21 -9 0 -46 85 -54 125 -3 17 -2 45 3 63 l10
32 -46 0 c-53 0 -106 -23 -133 -57 l-20 -25 -11 28 c-20 54 -22 117 -5 158 9
21 16 41 16 44 0 2 -30 2 -66 -1 -54 -4 -72 -10 -104 -36 -21 -17 -41 -31 -44
-31 -3 0 -12 13 -21 30 -20 38 -19 110 2 139 15 23 15 25 -2 37 -23 17 -78 18
-108 3 -12 -6 -35 -23 -50 -38 -23 -21 -29 -23 -37 -11 -20 31 -23 98 -6 131
19 39 13 45 -54 54 -47 7 -93 -5 -122 -32 -15 -14 -19 -10 -47 39 -41 71 -44
111 -11 139 19 16 18 17 -20 33 -60 24 -119 21 -162 -9 -41 -28 -48 -22 -48
41 0 41 14 73 43 96 21 16 21 16 -18 24 -69 14 -130 9 -169 -14 l-36 -21 0 69
c0 63 3 72 31 104 l30 35 -28 8 c-56 15 -110 7 -147 -20 l-34 -27 -11 32 c-18
51 -13 94 14 126 14 17 25 33 25 37 0 9 -88 -5 -125 -21 -17 -7 -43 -24 -58
-38 -15 -14 -30 -26 -33 -26 -2 0 -4 23 -4 51 0 45 4 55 36 87 39 39 35 47
-24 58 -45 9 -93 0 -157 -30 -44 -20 -55 -22 -55 -10 0 40 57 107 115 137 l30
15 -38 7 c-62 12 -177 0 -229 -23 -27 -11 -48 -18 -48 -15 0 4 9 26 21 49 22
46 70 82 123 94 l31 7 -38 16 c-98 42 -221 45 -270 6 -34 -26 -37 -24 -36 14
1 53 22 100 57 123 37 26 35 29 -30 39 -64 10 -111 0 -149 -32 -37 -31 -49
-21 -49 43 0 47 25 76 80 96 l34 11 -49 18 c-99 35 -193 20 -242 -39 l-23 -27
0 53 c0 91 42 161 125 205 l40 22 -52 3 c-109 6 -235 -34 -319 -103 -41 -34
-42 -34 -48 -12 -19 72 4 138 71 205 l55 55 -99 -6 c-118 -7 -184 -26 -252
-72 l-50 -35 -7 35 c-12 64 4 106 57 158 27 26 57 47 66 47 17 1 17 1 1 10 -9
6 -57 13 -106 16 -146 11 -255 -19 -341 -92 l-41 -35 -10 26 c-25 65 -5 137
54 203 20 22 36 41 36 44 0 2 -29 1 -64 -3 -133 -16 -240 -73 -295 -155 -17
-26 -31 -51 -31 -56 0 -23 -20 -3 -29 30 -26 91 -5 175 64 251 l37 40 -54 -15
c-132 -39 -243 -126 -294 -231 l-28 -57 -14 44 c-22 75 -8 158 46 263 8 15
-16 6 -74 -29z"/>
<path d="M220 4926 c-17 -47 -40 -176 -40 -230 l0 -54 39 5 c70 10 251 -23
342 -61 14 -6 17 8 23 101 4 59 8 119 9 133 2 20 -7 30 -50 53 -57 31 -225 77
-280 77 -26 0 -35 -5 -43 -24z"/>
<path d="M208 4603 c-16 -2 -28 -10 -28 -16 1 -28 48 -338 52 -342 3 -3 40 4
84 16 54 14 113 21 189 22 l110 2 -12 70 c-7 38 -12 89 -13 113 0 55 -21 75
-104 101 -83 26 -223 43 -278 34z"/>
<path d="M395 4235 c-5 -2 -35 -9 -66 -15 -94 -18 -94 -17 -60 -147 25 -94
103 -318 115 -330 2 -2 40 21 85 51 45 30 113 67 152 82 52 20 68 31 65 43 -3
9 -13 72 -22 141 -9 69 -23 137 -31 153 l-14 27 -107 -1 c-59 0 -111 -2 -117
-4z"/>
<path d="M4875 4103 c-127 -9 -496 -71 -511 -86 -2 -2 7 -57 20 -123 50 -247
58 -400 47 -919 -5 -184 -3 -206 17 -278 48 -171 106 -242 241 -298 42 -17
141 -60 221 -94 80 -35 273 -112 430 -171 445 -167 671 -275 762 -365 43 -43
50 -58 89 -180 23 -74 68 -213 101 -309 33 -96 70 -215 83 -264 24 -87 24 -91
9 -165 -35 -169 -112 -321 -209 -410 -60 -56 -100 -71 -182 -71 -90 0 -137
-14 -181 -55 -21 -18 -56 -50 -79 -70 -52 -45 -79 -88 -89 -140 l-7 -39 31 36
c38 43 81 62 124 56 28 -5 38 1 78 42 25 25 55 49 68 52 18 5 14 -3 -22 -43
-40 -44 -86 -142 -74 -155 3 -2 22 3 44 12 53 22 107 13 163 -28 l46 -33 160
0 c182 0 196 4 277 83 36 35 53 62 69 111 12 37 41 94 65 129 29 43 46 80 53
120 33 174 43 209 76 264 72 121 71 149 -14 333 -2 5 12 -5 33 -23 47 -41 59
-41 41 0 -7 18 -16 56 -20 83 -4 28 -22 88 -40 135 -18 47 -47 137 -65 200
-18 63 -57 191 -86 285 -30 93 -64 219 -76 280 -24 127 -48 184 -94 229 -18
17 -106 69 -196 115 -209 108 -262 145 -340 233 -165 188 -214 227 -341 273
-58 21 -183 47 -289 60 l-48 6 0 60 c0 207 217 421 735 724 83 48 153 90 158
94 10 10 -252 117 -450 185 -312 105 -542 139 -828 119z"/>
<path d="M740 3980 c0 -45 58 -303 93 -420 20 -63 57 -164 83 -225 26 -60 47
-123 46 -140 0 -16 -4 -71 -8 -121 -8 -109 10 -190 86 -391 27 -72 57 -168 66
-213 27 -136 10 -188 -112 -350 -78 -103 -225 -338 -359 -575 -90 -160 -136
-224 -256 -352 -93 -99 -138 -158 -286 -376 -148 -218 -112 -445 81 -502 66
-20 71 -19 52 10 -9 13 -16 39 -15 57 l0 33 19 -42 c20 -46 44 -63 87 -63 43
0 61 16 28 24 -42 11 -75 50 -75 88 1 27 2 30 11 16 10 -18 59 -26 59 -10 0 4
-9 25 -20 47 -24 47 -25 63 -5 85 9 9 22 53 30 96 32 178 63 224 192 277 48
20 111 56 140 79 66 55 403 454 606 718 52 69 139 172 192 230 205 224 234
301 261 690 21 311 48 440 148 709 25 69 46 126 46 127 0 1 -33 5 -72 9 -120
11 -307 43 -411 70 -268 70 -522 213 -646 366 -25 30 -48 58 -53 64 -4 5 -8
-2 -8 -15z"/>
<path d="M4190 3974 c-47 -14 -88 -29 -92 -33 -11 -10 9 -160 38 -281 33 -141
95 -330 108 -329 6 0 38 10 71 23 l60 23 -3 104 c-6 182 -61 520 -86 518 -6 0
-49 -12 -96 -25z"/>
<path d="M3830 3861 c-332 -112 -300 -97 -300 -141 0 -49 34 -249 60 -349 19
-77 65 -219 72 -227 5 -5 306 86 435 132 l101 35 -29 80 c-41 112 -86 293
-106 427 -9 61 -19 112 -22 112 -3 0 -98 -32 -211 -69z"/>
<path d="M584 3811 c-54 -28 -116 -65 -138 -84 l-38 -33 25 -50 c42 -83 141
-224 210 -299 l64 -69 46 89 46 89 -23 85 c-13 48 -36 136 -52 196 -15 61 -30
114 -34 118 -4 4 -51 -15 -106 -42z"/>
<path d="M6082 3683 c-83 -49 -152 -90 -152 -93 0 -7 189 -105 193 -99 2 2 20
31 40 64 19 33 59 85 86 117 28 31 51 59 51 62 0 5 -54 36 -62 36 -2 0 -72
-39 -156 -87z"/>
<path d="M3395 3714 c-38 -14 -140 -47 -225 -73 l-155 -48 -3 -58 c-2 -32 4
-108 13 -168 17 -116 70 -336 84 -350 5 -5 53 1 108 13 128 29 329 78 370 91
l32 10 -20 57 c-48 140 -109 425 -109 515 0 44 -1 44 -95 11z"/>
<path d="M6299 3663 c-47 -49 -94 -113 -122 -169 l-16 -32 122 -73 c67 -41
138 -84 158 -97 l37 -22 30 65 c33 70 81 145 119 186 l24 26 -43 26 c-82 48
-249 137 -256 137 -4 0 -28 -21 -53 -47z"/>
<path d="M2890 3564 c-79 -20 -289 -54 -332 -54 -32 0 -39 -4 -45 -27 -11 -37
-10 -488 0 -536 l8 -39 52 7 c131 17 473 77 480 84 5 5 -5 64 -22 132 -31 125
-54 257 -66 382 -4 37 -10 67 -13 66 -4 -1 -32 -7 -62 -15z"/>
<path d="M6658 3493 c-48 -52 -138 -210 -138 -243 0 -7 165 -110 301 -187 l35
-20 43 84 c24 46 61 106 82 133 l38 48 -142 95 c-131 87 -180 117 -189 117 -3
0 -16 -12 -30 -27z"/>
<path d="M2395 3494 c-11 -2 -76 -5 -145 -6 l-125 -3 -12 -49 c-26 -106 -44
-460 -27 -543 7 -35 -17 -34 232 -8 79 8 147 17 151 19 4 3 4 33 -1 68 -10 83
-12 398 -3 471 l7 57 -28 -1 c-16 -1 -38 -3 -49 -5z"/>
<path d="M1969 3408 c-79 -203 -128 -376 -152 -530 -4 -28 -3 -28 48 -28 29 0
79 3 112 6 l60 7 6 236 c4 133 12 268 20 308 8 40 12 75 9 78 -3 3 -20 5 -38
5 -32 0 -34 -3 -65 -82z"/>
<path d="M780 3328 c-17 -35 -30 -70 -30 -78 0 -8 31 -39 67 -67 70 -55 82
-55 84 -1 1 26 -72 208 -84 208 -4 0 -21 -28 -37 -62z"/>
<path d="M4290 3278 c-136 -52 -422 -145 -597 -193 -192 -54 -183 -46 -183
-155 0 -50 3 -57 132 -300 31 -58 90 -189 132 -291 42 -103 109 -263 150 -356
153 -349 177 -455 138 -623 -30 -130 -111 -437 -134 -510 -57 -177 -165 -314
-303 -381 -69 -34 -70 -34 -250 -40 -189 -5 -217 -12 -259 -58 -11 -12 -38
-30 -60 -40 -54 -24 -101 -76 -121 -130 -22 -64 -20 -82 8 -49 28 33 57 48 95
48 25 0 35 8 55 43 27 45 57 77 57 60 0 -6 -8 -17 -18 -27 -19 -17 -65 -103
-77 -143 l-6 -22 46 20 c51 23 80 18 134 -21 26 -18 44 -20 162 -20 73 0 215
-7 316 -16 137 -12 191 -13 215 -5 20 7 86 63 164 140 118 115 134 134 155
191 l22 62 15 -27 c9 -18 12 -41 8 -66 -3 -22 -4 -39 -1 -39 21 0 65 109 124
306 80 263 183 551 242 674 72 150 71 211 -6 452 -67 208 -74 244 -85 451
l-10 188 -35 30 c-46 41 -110 170 -130 266 -10 43 -29 102 -42 131 -21 44 -25
62 -20 108 3 30 14 69 25 87 16 26 21 54 24 154 1 67 1 123 -2 125 -3 3 -39
-8 -80 -24z"/>
<path d="M7033 3257 c-59 -66 -143 -222 -127 -236 5 -5 107 -58 227 -120 188
-96 218 -109 224 -94 3 10 22 51 41 92 l36 74 -49 44 c-53 46 -222 182 -291
232 l-41 31 -20 -23z"/>
<path d="M7425 2859 c-21 -45 -34 -84 -29 -89 16 -15 515 -272 520 -268 5 6
-432 438 -444 438 -5 0 -26 -36 -47 -81z"/>
<path d="M1918 2793 l-107 -4 -5 -52 c-3 -29 -8 -97 -11 -152 -8 -132 -31
-263 -61 -353 l-24 -73 21 -30 c37 -52 49 -114 49 -250 0 -140 22 -449 46
-634 19 -147 31 -289 40 -460 8 -148 -6 -220 -52 -275 -46 -54 -85 -64 -319
-80 -158 -12 -221 -27 -245 -60 -8 -12 -32 -41 -52 -66 -41 -49 -49 -92 -21
-115 12 -10 17 -11 20 -2 9 26 63 92 95 114 l33 24 -37 -44 c-20 -24 -42 -57
-47 -73 -10 -27 -9 -29 7 -22 36 15 80 15 116 0 24 -10 68 -16 116 -16 l78 0
7 31 c7 29 72 106 82 95 3 -2 -5 -17 -16 -33 -11 -15 -23 -42 -27 -59 l-6 -31
54 -1 c29 -1 117 -4 194 -8 l142 -5 51 68 c28 37 69 102 90 143 65 125 81 193
92 390 5 96 21 292 35 435 48 477 56 598 57 840 2 308 -5 339 -113 500 -60 89
-96 160 -111 219 -10 41 -14 46 -38 44 -14 -1 -74 -4 -133 -5z"/>
</g>
</svg>
