<?xml version="1.0" standalone="no"?>
<!DOCTYPE svg PUBLIC "-//W3C//DTD SVG 20010904//EN"
 "http://www.w3.org/TR/2001/REC-SVG-20010904/DTD/svg10.dtd">
<svg version="1.0" xmlns="http://www.w3.org/2000/svg"
 width="1280.000000pt" height="1280.000000pt" viewBox="0 0 1280.000000 1280.000000"
 preserveAspectRatio="xMidYMid meet">
<metadata>
Created by potrace 1.15, written by Peter Selinger 2001-2017
</metadata>
<g transform="translate(0.000000,1280.000000) scale(0.100000,-0.100000)"
fill="#000000" stroke="none">
<path d="M9511 7798 c-5 -13 -15 -41 -23 -63 -14 -40 -14 -40 -248 -148 -397
-183 -600 -257 -857 -311 -370 -78 -914 -110 -1143 -66 -165 31 -184 26 -105
-31 51 -37 54 -52 30 -154 -8 -33 -15 -77 -15 -97 0 -45 3 -43 -166 -104 -188
-67 -226 -89 -559 -315 -144 -98 -198 -123 -297 -134 -32 -4 -58 -10 -58 -15
0 -4 23 -16 51 -26 90 -33 92 -40 85 -249 -9 -241 -12 -265 -40 -265 -22 0
-96 46 -181 113 -27 22 -84 55 -125 74 -79 37 -83 37 -530 83 -100 11 -130 19
-230 60 -63 27 -176 67 -250 90 -279 85 -309 100 -553 269 -76 53 -113 57
-262 31 -597 -105 -742 -120 -970 -101 -155 13 -254 34 -459 101 -67 21 -155
43 -198 49 -42 6 -117 20 -167 31 -105 23 -165 26 -159 8 7 -23 368 -205 443
-224 39 -9 177 -48 308 -85 194 -56 259 -79 355 -128 260 -133 413 -240 442
-311 17 -40 -4 -72 -68 -104 -108 -55 -146 -60 -422 -57 -360 3 -367 -10 -63
-114 171 -58 208 -68 350 -85 176 -22 481 -66 558 -81 110 -21 704 -210 897
-285 285 -112 431 -229 600 -484 79 -120 206 -371 272 -540 25 -63 75 -206
111 -316 l66 -202 -73 -93 c-91 -116 -168 -237 -220 -342 -43 -88 -160 -227
-191 -227 -9 0 -43 -13 -75 -29 -67 -33 -324 -119 -469 -155 -121 -31 -176
-33 -224 -7 -20 11 -74 29 -120 40 -46 11 -111 29 -144 41 -33 12 -110 34
-172 50 -62 16 -147 45 -190 66 -43 20 -123 55 -178 79 -295 126 -359 158
-535 263 -233 138 -439 259 -640 375 -113 65 -199 122 -410 271 -74 52 -247
170 -385 262 -229 153 -264 181 -420 329 -398 379 -965 912 -1028 966 -37 33
-76 59 -87 59 -21 0 -60 -44 -60 -68 0 -47 654 -929 954 -1287 130 -155 280
-302 546 -538 576 -509 1130 -931 1655 -1259 514 -321 1050 -570 1370 -635
140 -28 577 -25 775 5 384 60 630 165 915 393 l90 71 8 -59 c4 -33 30 -134 58
-224 35 -115 52 -188 56 -245 6 -80 5 -83 -28 -139 -19 -31 -40 -66 -46 -78
-17 -29 -16 -90 1 -130 18 -43 76 -111 134 -157 88 -70 295 -325 374 -461 33
-57 44 -66 108 -89 66 -24 141 -81 165 -126 12 -23 28 -37 46 -41 19 -4 34
-19 54 -54 14 -27 29 -49 32 -49 14 0 -7 173 -27 216 -11 26 -20 48 -20 49 0
6 40 18 103 31 67 13 69 13 118 -14 28 -15 66 -42 84 -60 34 -33 62 -40 97
-21 18 9 27 4 70 -38 45 -42 50 -45 46 -23 -3 14 -8 32 -12 40 -5 12 5 15 55
17 59 2 63 1 98 -35 20 -20 44 -48 54 -62 l18 -25 -6 30 c-13 64 -54 128 -139
219 -49 53 -94 96 -99 96 -5 0 -32 16 -60 36 -27 20 -73 43 -101 51 -87 26
-164 71 -234 137 -37 35 -89 83 -117 108 -47 41 -165 162 -268 274 -68 74 -91
132 -90 224 2 91 54 397 87 512 27 94 46 248 46 374 0 78 2 85 23 93 51 19
203 53 246 55 l46 1 -3 -66 c-4 -78 27 -181 82 -277 20 -33 36 -69 36 -79 0
-36 -38 -139 -68 -187 -51 -80 -40 -157 30 -209 40 -30 136 -72 283 -125 147
-53 210 -82 310 -142 71 -43 94 -64 145 -133 78 -104 163 -192 198 -205 72
-26 193 -62 207 -62 25 0 18 13 -36 65 -28 28 -56 62 -62 77 -7 15 -36 44 -66
65 -30 21 -56 43 -58 49 -2 7 18 14 53 18 30 3 69 13 84 21 64 33 235 2 324
-59 41 -28 93 -34 128 -15 17 9 33 5 91 -25 39 -20 72 -34 74 -33 10 11 -68
92 -124 129 -36 24 -84 55 -107 70 -23 15 -45 28 -49 28 -16 0 -107 43 -107
50 0 30 133 35 239 8 37 -10 48 -9 77 7 19 10 34 22 34 27 0 13 78 9 117 -7
45 -19 49 -19 33 1 -25 29 -95 63 -170 80 -41 9 -79 21 -84 26 -14 12 42 10
65 -3 41 -21 42 -2 3 25 -75 49 -232 64 -370 34 -61 -13 -168 6 -308 54 -117
39 -437 179 -487 212 -47 31 -47 29 23 236 26 80 74 235 104 345 31 110 69
225 85 255 62 119 109 257 109 318 0 49 -28 100 -64 119 -17 9 -85 31 -151 49
-66 18 -133 37 -148 43 -27 11 -28 11 -11 33 34 44 144 118 175 118 16 0 57
14 90 30 33 17 120 46 193 65 73 19 163 45 199 59 78 29 338 152 514 243 67
35 131 63 141 63 11 0 41 -10 68 -22 32 -14 74 -23 119 -25 189 -7 216 -11
254 -39 20 -15 70 -62 111 -105 42 -42 91 -84 110 -92 19 -8 59 -35 88 -61 40
-37 52 -44 52 -29 -1 16 -27 77 -57 128 -7 11 -19 36 -28 57 -9 20 -50 72 -91
116 -41 44 -74 82 -74 84 0 3 17 10 38 17 27 9 44 10 65 2 16 -6 38 -11 49
-11 12 0 50 -13 85 -30 34 -16 67 -30 71 -30 5 0 21 -13 37 -30 32 -33 70 -45
106 -32 27 11 62 -3 120 -49 20 -16 40 -29 43 -29 10 0 -24 61 -57 103 -55 70
-5 56 77 -22 41 -40 47 -42 41 -21 -16 55 -58 110 -151 195 -53 50 -110 95
-125 102 -71 30 2 46 81 18 54 -19 66 -19 50 1 -22 25 -96 65 -152 80 -181 50
-425 82 -514 67 -47 -8 -196 -1 -256 13 -41 8 -27 16 97 55 55 17 121 42 148
55 77 40 258 166 462 324 273 211 258 202 330 188 33 -6 88 -24 121 -40 34
-15 67 -28 73 -28 17 0 14 -9 -14 -42 -43 -50 -29 -71 56 -84 24 -4 49 -11 55
-15 6 -5 60 -20 120 -33 128 -29 164 -43 164 -67 0 -19 19 -29 57 -29 46 0
361 -173 543 -298 107 -74 210 -173 235 -226 20 -41 34 -45 60 -16 28 31 123
82 158 85 18 2 35 3 38 4 3 1 11 12 17 26 9 20 8 35 -4 73 -9 26 -20 52 -25
58 -4 5 -6 20 -2 32 4 18 2 21 -11 16 -15 -6 -16 -2 -10 32 7 36 6 38 -10 24
-16 -12 -20 -11 -37 10 -23 31 -23 35 -3 66 21 31 14 38 -21 22 -24 -11 -29
-10 -46 12 -20 27 -24 55 -9 65 19 12 11 26 -9 15 -27 -14 -38 -13 -45 5 -5
14 6 15 82 9 77 -6 90 -4 111 13 22 18 23 22 10 48 -10 20 -26 33 -52 40 l-38
11 29 27 c37 35 86 35 77 0 -7 -29 5 -29 39 -2 30 24 86 19 86 -8 0 -14 2 -15
18 -1 9 9 41 18 70 22 82 11 180 44 192 66 8 16 5 32 -14 72 -14 29 -28 67
-32 83 -28 117 -102 210 -209 260 -39 19 -96 57 -128 84 -32 28 -80 60 -108
72 -44 19 -49 25 -49 54 0 42 -23 70 -110 136 -46 35 -85 76 -112 117 -40 62
-70 78 -82 46 -10 -25 -66 -13 -228 48 -33 13 -61 34 -202 159 -45 40 -96 69
-121 69 -11 0 -8 -10 15 -42 16 -22 30 -46 30 -53 0 -6 -29 3 -67 22 -122 59
-340 123 -418 122 -30 0 -30 0 28 -52 31 -29 57 -55 57 -59 0 -8 -136 -23
-175 -19 -35 3 -65 29 -141 123 -116 141 -188 287 -244 497 -52 192 -55 197
-318 461 -328 329 -399 423 -451 597 -24 80 -36 96 -50 61z m-373 -1610 l73
-46 -98 -32 c-54 -18 -156 -60 -228 -95 -71 -35 -185 -82 -253 -104 -68 -23
-151 -55 -185 -72 -148 -75 -308 -167 -388 -224 l-86 -62 -60 22 c-33 13 -75
30 -92 40 -18 9 -93 31 -168 50 -75 19 -157 47 -184 62 -116 67 -274 214 -251
234 16 14 223 61 472 108 414 78 490 87 1040 130 69 5 143 16 165 25 24 9 67
14 105 13 59 -2 73 -7 138 -49z m952 -931 c63 -13 108 -27 100 -30 -74 -32
-360 -122 -433 -137 -189 -40 -236 -55 -514 -164 -75 -29 -107 -36 -165 -37
-40 0 -97 -4 -125 -8 -40 -6 -53 -4 -53 5 0 21 112 95 285 190 220 121 353
182 427 199 94 22 331 13 478 -18z m1830 -319 c61 -12 72 -24 51 -57 -8 -12
-16 -12 -55 3 -25 10 -46 22 -46 28 0 5 -10 19 -22 30 -17 14 -18 18 -6 14 9
-3 44 -11 78 -18z m182 -58 c-4 -39 -16 -43 -72 -30 l-51 12 23 25 c18 19 31
23 63 21 36 -3 40 -5 37 -28z"/>
</g>
</svg>
