<?xml version="1.0" standalone="no"?>
<!DOCTYPE svg PUBLIC "-//W3C//DTD SVG 20010904//EN"
 "http://www.w3.org/TR/2001/REC-SVG-20010904/DTD/svg10.dtd">
<svg version="1.0" xmlns="http://www.w3.org/2000/svg"
 width="1280.000000pt" height="777.000000pt" viewBox="0 0 1280.000000 777.000000"
 preserveAspectRatio="xMidYMid meet">
<metadata>
Created by potrace 1.15, written by Peter Selinger 2001-2017
</metadata>
<g transform="translate(0.000000,777.000000) scale(0.100000,-0.100000)"
fill="#000000" stroke="none">
<path d="M9850 7753 c-512 -28 -1131 -125 -1560 -242 -384 -106 -633 -204
-1144 -450 -104 -50 -190 -90 -191 -89 -1 2 -12 25 -25 53 -64 135 -234 224
-404 213 -129 -9 -245 -67 -313 -157 -18 -23 -33 -46 -33 -51 0 -4 30 7 68 26
181 92 455 51 537 -80 63 -102 43 -279 -54 -482 -51 -106 -186 -324 -201 -324
-5 0 -30 18 -55 40 -194 168 -418 257 -717 285 -53 5 -67 10 -71 25 -9 33 59
40 151 16 29 -7 52 -9 52 -5 0 15 -90 70 -147 90 -31 10 -70 19 -88 19 -26 0
-37 8 -64 46 -45 62 -147 144 -231 185 -38 19 -69 36 -69 40 -2 18 338 51 439
42 36 -3 63 -3 60 -1 -3 3 -90 52 -193 108 -104 56 -185 106 -180 110 4 4 64
40 133 80 69 40 143 84 165 97 l40 23 -213 -2 c-116 -2 -212 -1 -212 1 0 2 40
87 90 189 49 102 90 186 90 188 0 1 -55 -54 -122 -123 -215 -220 -457 -398
-703 -518 -148 -72 -207 -88 -304 -79 -106 10 -161 -16 -161 -75 0 -12 -3 -21
-7 -21 -12 0 -115 -61 -111 -65 1 -2 25 2 52 9 l50 13 25 -50 25 -50 -35 -29
c-19 -16 -45 -32 -59 -35 -14 -3 -42 -15 -64 -26 -31 -16 -42 -18 -57 -9 -15
10 -26 8 -54 -7 -30 -16 -41 -17 -65 -8 -24 9 -38 7 -81 -10 -50 -22 -51 -22
-98 -3 -26 10 -63 18 -83 17 -73 -2 -136 72 -166 194 l-19 74 -22 -60 c-13
-33 -34 -105 -48 -160 -14 -55 -29 -104 -34 -110 -16 -16 -10 -89 10 -121 23
-38 62 -68 153 -117 69 -39 102 -70 139 -137 13 -22 25 -40 29 -40 3 0 4 18 2
41 -3 24 1 45 8 52 10 10 11 5 7 -23 l-7 -35 24 28 23 28 26 -40 c28 -41 33
-56 19 -47 -5 3 -6 -8 -4 -25 2 -16 0 -29 -6 -29 -6 0 -12 17 -14 38 l-3 37
-20 -32 c-13 -22 -28 -33 -43 -33 -77 0 -84 -59 -15 -131 46 -47 51 -49 118
-57 39 -5 63 -11 55 -15 -8 -3 -85 -24 -170 -47 -398 -107 -930 -314 -1360
-529 -451 -227 -955 -569 -1440 -980 -322 -273 -669 -612 -789 -771 -53 -71
-111 -167 -111 -185 0 -21 213 137 445 330 254 211 317 260 465 357 149 98
347 200 485 249 86 31 97 32 240 32 237 1 387 -41 490 -135 93 -85 154 -249
141 -383 -40 -445 -39 -439 -82 -600 -21 -79 -32 -165 -20 -165 9 0 180 72
267 113 219 102 332 131 519 131 156 0 220 -14 345 -74 150 -72 259 -200 369
-431 50 -106 121 -289 161 -420 l18 -56 -36 -129 c-55 -197 -62 -255 -62 -494
1 -241 12 -323 70 -516 167 -549 585 -1004 1081 -1177 162 -56 249 -71 424
-71 114 -1 177 4 240 18 526 114 942 558 1206 1285 51 139 137 431 130 438
-15 15 -201 -151 -491 -437 -451 -445 -598 -568 -802 -670 -166 -83 -352 -103
-484 -51 -152 59 -391 244 -504 391 -257 334 -209 696 153 1150 186 234 476
502 1073 996 438 362 585 491 744 649 305 304 410 493 441 794 8 74 8 74 174
147 386 169 899 210 1359 108 332 -73 630 -211 909 -418 160 -119 259 -211
466 -428 109 -115 202 -208 207 -208 18 0 11 34 -95 440 -95 366 -137 620
-137 840 0 206 33 322 129 454 68 93 227 203 387 267 116 46 213 67 398 84 92
8 190 20 217 26 l50 11 -22 31 c-13 18 -68 79 -123 137 -55 58 -140 163 -190
234 -49 70 -109 154 -131 186 -97 136 -129 328 -79 472 33 95 146 189 350 290
203 102 276 126 416 139 226 21 482 3 854 -62 286 -49 423 -68 530 -75 l100
-5 -25 22 c-144 128 -953 335 -1671 428 -440 57 -927 82 -1249 64z m-5570
-1469 c43 -47 48 -65 25 -84 -12 -10 -18 -10 -32 1 -13 11 -15 11 -9 1 4 -7 4
-21 0 -30 -6 -13 -9 -9 -14 18 l-6 35 -24 -39 -24 -39 -15 23 c-16 25 -17 99
0 141 14 37 49 28 99 -27z m-422 -25 c-2 -21 -1 -39 2 -39 3 0 21 25 39 55
l34 56 34 -60 c44 -79 53 -83 53 -22 0 55 7 81 22 81 6 0 8 -19 6 -45 -2 -25
-1 -45 2 -45 4 0 15 16 27 36 l20 36 29 -49 c22 -37 28 -58 26 -90 -3 -41 -5
-43 -34 -43 -30 0 -30 1 -26 45 2 25 1 45 -2 45 -3 0 -18 -20 -33 -45 -16 -25
-33 -45 -38 -45 -5 0 -21 19 -36 42 l-28 42 -3 -42 c-3 -37 -6 -42 -28 -42
-25 0 -29 12 -24 68 2 31 -5 28 -34 -14 l-24 -36 -13 23 c-14 27 -13 98 3 138
9 24 10 25 20 8 5 -10 8 -36 6 -58z m1643 -169 l57 0 89 -87 c95 -93 170 -188
209 -265 13 -26 24 -49 24 -52 0 -7 -177 91 -238 133 -96 65 -179 139 -226
202 -26 34 -46 66 -46 71 0 7 14 8 38 4 20 -3 62 -6 93 -6z"/>
</g>
</svg>
