<?xml version="1.0" standalone="no"?>
<!DOCTYPE svg PUBLIC "-//W3C//DTD SVG 20010904//EN"
 "http://www.w3.org/TR/2001/REC-SVG-20010904/DTD/svg10.dtd">
<svg version="1.0" xmlns="http://www.w3.org/2000/svg"
 width="1280.000000pt" height="872.000000pt" viewBox="0 0 1280.000000 872.000000"
 preserveAspectRatio="xMidYMid meet">
<metadata>
Created by potrace 1.15, written by Peter Selinger 2001-2017
</metadata>
<g transform="translate(0.000000,872.000000) scale(0.100000,-0.100000)"
fill="#333333" stroke="none">
<path d="M6185 7753 c-271 -13 -642 -98 -834 -192 -125 -61 -182 -67 -269 -26
-63 29 -78 31 -86 10 -12 -31 -55 -37 -116 -16 -32 11 -86 25 -121 31 -305 49
-688 -105 -861 -346 -29 -41 -55 -74 -58 -74 -4 0 -16 -9 -27 -19 -21 -20 -21
-20 -92 25 l-71 46 -52 -16 c-57 -16 -128 -68 -128 -92 0 -8 -7 -28 -15 -44
-12 -24 -24 -30 -72 -40 -32 -6 -94 -24 -138 -40 -44 -16 -141 -49 -215 -73
-253 -83 -497 -206 -782 -393 -212 -140 -386 -306 -480 -457 -61 -99 -61 -100
-45 -128 9 -17 12 -31 6 -34 -5 -4 -9 -15 -9 -25 0 -10 -6 -23 -13 -27 -7 -4
-31 -47 -54 -94 -46 -97 -94 -156 -150 -185 -58 -29 -123 -84 -123 -104 0 -20
30 -50 51 -50 9 0 24 -6 34 -14 18 -13 18 -15 -9 -47 -101 -123 -200 -329
-246 -514 -31 -125 -42 -361 -23 -510 19 -152 63 -321 116 -452 l25 -63 -25
-18 -25 -18 22 -75 c12 -40 33 -96 46 -123 13 -28 38 -100 55 -160 84 -305
236 -572 484 -849 339 -380 727 -658 1150 -822 61 -24 187 -77 280 -118 94
-41 215 -88 270 -105 153 -46 402 -94 558 -108 67 -6 82 -11 103 -33 13 -14
24 -29 24 -32 0 -4 18 -14 40 -23 30 -12 74 -16 168 -16 115 0 132 -3 182 -26
58 -27 107 -27 130 1 6 8 31 21 54 30 l43 17 129 -65 c401 -201 678 -267 1117
-267 285 0 468 29 712 112 83 28 171 61 196 75 53 27 79 22 79 -16 0 -36 10
-47 45 -55 42 -9 124 8 205 44 63 28 88 32 252 45 255 20 284 24 362 47 75 21
92 20 176 -11 75 -28 154 -27 243 3 155 52 246 75 341 86 190 23 439 116 616
231 36 23 115 92 175 153 l110 111 95 6 c146 10 286 77 473 226 126 101 363
346 395 410 24 46 73 88 203 174 252 167 345 259 497 492 93 144 166 307 200
448 25 106 27 129 26 334 0 211 -1 225 -32 357 -17 75 -43 162 -57 192 -34 75
-32 96 10 124 55 35 51 66 -28 202 -24 42 -50 162 -72 335 -4 27 -17 77 -30
112 -27 76 -24 98 26 158 32 38 39 55 39 89 0 54 -19 79 -83 111 -58 29 -54
25 -174 185 -300 401 -426 544 -613 700 -102 85 -278 205 -450 307 -47 28
-125 75 -175 105 -235 144 -410 203 -625 213 -99 4 -110 10 -110 56 0 32 -28
59 -61 59 -13 0 -42 -9 -64 -19 -22 -10 -64 -24 -93 -30 l-53 -13 -40 46 c-80
90 -248 197 -384 244 -232 79 -268 86 -470 88 -104 2 -193 3 -197 3 -5 1 -8
12 -8 25 0 44 -20 49 -106 26 -128 -33 -190 -28 -367 30 -326 108 -438 134
-646 150 -123 9 -333 11 -486 3z m104 -129 c53 -5 69 -11 93 -34 37 -38 35
-55 -9 -93 -20 -18 -89 -81 -152 -141 -144 -135 -154 -142 -186 -128 -30 14
-31 30 -4 111 14 41 18 66 11 73 -10 10 -41 -47 -61 -117 -6 -22 -23 -62 -39
-90 -48 -89 -98 -63 -90 48 2 26 1 47 -2 47 -3 0 -17 -62 -32 -137 -16 -75
-33 -140 -39 -143 -5 -4 -21 -5 -33 -3 -21 4 -24 12 -30 74 -11 104 -30 100
-56 -11 -14 -63 -25 -80 -50 -80 -24 0 -44 42 -37 82 6 34 -5 79 -15 62 -3 -5
-11 -25 -17 -45 -6 -20 -23 -46 -36 -59 l-24 -23 -40 26 c-46 30 -75 67 -125
155 -49 86 -42 94 116 155 144 54 178 63 276 72 55 5 80 13 99 30 26 21 26 23
13 70 -13 45 -12 49 7 65 12 9 57 22 100 29 43 7 85 14 93 16 17 4 174 -3 269
-11z m244 -118 c32 -13 159 -139 210 -207 16 -21 36 -71 48 -120 29 -113 22
-258 -16 -371 -27 -80 -96 -198 -115 -198 -6 0 -30 -21 -53 -46 -70 -78 -161
-140 -278 -189 -98 -41 -121 -47 -212 -53 -143 -10 -238 14 -329 81 l-28 21
-27 -26 c-21 -22 -25 -32 -19 -60 4 -22 15 -39 31 -48 13 -7 27 -19 30 -28 12
-31 -14 -39 -153 -46 -75 -4 -150 -11 -167 -16 -130 -38 -132 -37 -116 67 26
160 95 336 147 370 63 41 218 33 332 -17 53 -24 62 -25 62 -5 0 15 10 19 43
15 14 -1 89 -49 198 -129 16 -11 20 -11 25 4 5 11 -7 31 -38 63 -67 71 -99
113 -92 123 10 16 56 9 98 -15 102 -59 289 -156 293 -152 14 14 -36 65 -142
146 -128 98 -138 108 -126 129 7 11 46 6 197 -23 245 -47 242 -47 249 -37 13
22 -11 40 -78 59 -40 12 -120 38 -179 57 -104 35 -108 37 -108 65 0 23 5 31
23 35 49 10 248 36 346 45 58 5 109 15 115 21 8 9 7 10 -6 6 -10 -3 -39 0 -65
8 -38 12 -82 14 -209 8 -88 -3 -173 -3 -188 1 -62 15 -10 68 124 127 88 38
149 73 155 86 13 35 -13 37 -107 10 -51 -14 -111 -29 -133 -33 -22 -3 -50 -13
-63 -21 -18 -11 -27 -12 -37 -3 -18 15 -8 38 24 55 15 7 85 68 156 134 71 67
133 121 137 121 5 0 23 -6 41 -14z m797 -61 c23 -8 66 -15 95 -15 38 0 56 -5
69 -19 22 -24 14 -40 -44 -96 -54 -52 -148 -167 -187 -230 -84 -135 -103 -216
-103 -429 0 -130 -3 -174 -15 -196 -19 -37 -124 -88 -197 -97 -46 -6 -53 -10
-85 -55 -53 -73 -88 -85 -137 -47 -25 20 -31 21 -66 9 -45 -15 -49 -13 -74 34
l-19 36 69 73 c171 180 201 216 229 271 l30 60 62 0 c75 1 86 10 72 56 -15 53
-16 284 -1 303 7 9 31 18 53 22 32 6 39 11 39 30 0 13 -10 29 -25 39 -18 12
-25 25 -25 48 0 21 -11 43 -36 70 -65 73 -23 115 82 82 55 -17 57 -17 71 2 51
70 68 75 143 49z m-2636 -365 c36 -13 35 -59 -2 -113 -16 -23 -66 -108 -112
-189 -46 -82 -86 -148 -89 -148 -15 0 -51 32 -51 46 0 29 -43 10 -103 -44 -80
-75 -63 105 24 250 77 127 130 170 239 194 71 16 65 16 94 4z m4481 -140 c22
-5 88 -14 148 -20 166 -17 333 -76 503 -178 169 -101 379 -303 489 -470 65
-99 87 -162 112 -317 l8 -50 73 -1 c40 0 77 -5 82 -10 5 -5 27 -60 48 -122
l39 -112 -35 -20 c-19 -11 -42 -21 -51 -22 -45 -3 -49 1 -56 56 -6 49 -11 56
-47 80 -22 14 -46 26 -54 26 -8 0 -16 16 -20 42 -10 61 -47 97 -111 107 -70
11 -98 31 -146 108 -40 65 -40 65 -79 59 -32 -5 -44 -2 -73 21 -40 32 -42 45
-18 119 9 30 13 57 8 61 -4 5 -10 3 -12 -3 -16 -46 -51 -100 -66 -102 -10 -2
-29 7 -43 21 l-25 25 21 102 c12 56 19 104 16 107 -3 4 -15 -16 -27 -43 -25
-57 -65 -104 -90 -104 -24 0 -27 15 -19 90 4 36 6 66 5 68 -2 2 -16 -15 -31
-37 -53 -75 -94 -47 -94 64 0 70 -10 99 -25 74 -4 -6 -15 -43 -24 -82 -14 -61
-20 -72 -39 -75 -31 -5 -46 35 -84 217 -35 169 -52 212 -41 101 5 -41 8 -111
8 -155 0 -76 -1 -80 -24 -83 -50 -7 -69 6 -86 60 -16 50 -61 138 -70 138 -2 0
6 -21 17 -47 25 -57 36 -170 19 -201 -14 -27 -75 -30 -108 -7 -29 20 -53 102
-53 177 0 75 -26 190 -56 250 -24 47 -30 79 -17 91 9 10 81 8 128 -3z m-4188
-15 c3 -9 22 -24 42 -35 20 -10 54 -37 76 -60 68 -71 193 -140 255 -140 15 0
35 -9 45 -20 17 -19 17 -22 -23 -108 -22 -48 -50 -124 -62 -167 -47 -175 -95
-240 -205 -274 -79 -25 -142 -22 -186 10 -69 49 -169 87 -248 94 -72 6 -80 9
-85 30 -8 31 5 63 54 135 69 102 141 181 177 197 19 7 60 18 91 24 104 18 104
17 92 39 -5 10 -7 25 -4 34 7 17 -37 63 -74 77 -13 5 -41 9 -62 9 -21 0 -41 4
-45 10 -3 5 8 37 25 70 23 45 40 65 63 75 42 19 66 18 74 0z m3172 -229 c21
-23 22 -28 12 -76 -17 -80 -13 -148 15 -235 20 -62 24 -91 19 -128 -7 -57
-164 -457 -182 -464 -6 -3 -24 1 -40 9 -26 12 -29 19 -40 108 -7 61 -28 144
-58 230 -55 163 -68 240 -54 334 12 88 62 182 116 219 32 22 49 26 114 26 67
1 78 -2 98 -23z m-4974 -66 c26 -27 55 -45 91 -55 68 -20 87 -19 108 4 9 10
56 29 104 41 48 13 100 30 116 38 29 14 31 13 53 -14 12 -16 21 -36 18 -44 -2
-8 -11 -51 -19 -95 -29 -164 -98 -305 -193 -396 -109 -102 -163 -129 -163 -80
0 10 -7 24 -16 31 -11 10 -14 23 -9 51 10 57 -10 112 -54 152 -48 43 -87 52
-154 36 -78 -19 -104 -49 -121 -141 -4 -21 -10 -38 -14 -38 -20 0 -51 33 -57
60 -4 16 -11 32 -16 35 -13 9 -11 123 5 180 19 74 52 132 102 180 43 42 133
94 164 95 9 0 33 -18 55 -40z m-477 -412 c6 -7 13 -31 17 -53 4 -22 16 -56 26
-76 23 -47 115 -130 172 -157 47 -22 68 -55 48 -75 -14 -14 -125 -26 -252 -26
-210 -2 -473 -48 -709 -126 -117 -38 -180 -52 -180 -39 0 27 205 294 225 294
4 0 20 -11 37 -25 16 -14 38 -25 49 -25 20 0 132 70 144 90 14 22 35 8 62 -42
35 -64 72 -93 107 -84 22 5 26 12 26 45 0 84 63 263 100 286 5 3 19 1 31 -5
17 -10 24 -8 40 9 22 24 42 27 57 9z m3612 -85 c-1 -23 -149 -153 -232 -204
-35 -22 -84 -46 -110 -55 -42 -14 -51 -14 -102 1 -52 15 -60 15 -113 0 -62
-18 -168 -68 -178 -85 -8 -12 -55 -13 -74 -1 -11 7 -9 19 12 65 40 87 7 69
-48 -27 -23 -41 -32 -48 -54 -45 -24 3 -26 6 -26 58 -1 85 -17 97 -32 25 -7
-33 -12 -74 -13 -91 0 -24 -8 -37 -34 -55 -41 -28 -46 -43 -36 -100 5 -28 18
-52 39 -71 29 -28 30 -30 16 -56 -29 -54 -28 -53 -70 -32 -22 11 -53 20 -70
20 -22 0 -40 9 -61 31 -36 39 -90 66 -143 75 -36 6 -48 15 -84 63 -29 38 -73
76 -137 118 -171 114 -224 187 -199 277 28 100 104 112 258 42 140 -64 163
-69 250 -63 42 3 88 9 104 13 24 6 29 3 43 -31 8 -21 22 -49 31 -61 l15 -24
42 34 c56 45 136 65 296 72 289 12 498 45 627 99 70 29 83 30 83 8z m342 -50
c8 -10 18 -30 22 -45 4 -17 18 -34 36 -43 17 -9 31 -19 31 -23 1 -4 3 -60 4
-125 1 -90 5 -121 17 -133 13 -13 14 -12 10 15 -8 59 34 185 90 264 22 31 44
33 103 12 63 -22 103 -18 182 21 70 34 75 35 98 20 25 -16 39 -54 51 -136 4
-25 11 -51 17 -58 17 -21 -21 -61 -129 -135 -144 -99 -215 -139 -381 -214
-133 -61 -155 -67 -213 -68 l-65 0 -75 112 c-84 125 -157 205 -211 231 -60 28
-66 48 -30 91 17 20 46 55 64 78 32 42 105 82 125 69 6 -4 7 -20 1 -43 -10
-44 -12 -124 -3 -147 9 -25 24 -8 24 27 0 18 19 68 43 115 38 74 47 85 91 107
59 30 78 31 98 8z m-2157 -175 c9 -13 30 -46 45 -74 26 -46 39 -57 117 -98 90
-47 153 -110 153 -154 0 -11 -17 -35 -38 -54 -34 -31 -48 -36 -110 -42 -45 -5
-79 -3 -91 3 -11 6 -40 11 -65 11 -37 0 -51 -6 -76 -30 -17 -16 -33 -30 -35
-30 -2 0 -30 11 -61 25 -31 14 -60 25 -65 25 -21 0 -6 -21 31 -41 73 -41 50
-64 -74 -73 -94 -8 -106 -4 -106 39 0 27 46 113 80 150 15 17 69 98 120 180
51 83 99 158 108 168 21 23 48 21 67 -5z m5077 11 c105 -23 173 -72 237 -174
22 -35 45 -85 52 -112 19 -84 31 -103 91 -150 l60 -46 -7 -67 c-4 -44 -3 -75
4 -89 15 -28 139 -90 196 -98 37 -5 46 -10 54 -35 6 -16 8 -35 4 -43 -6 -17
-9 -18 -168 -45 -117 -19 -180 -36 -297 -79 -66 -24 -130 -27 -147 -7 -12 14
-8 28 25 89 8 15 19 51 24 80 7 46 5 57 -16 94 -29 50 -91 105 -153 135 -38
19 -63 23 -137 23 -107 0 -124 9 -124 65 0 27 -8 48 -26 70 -26 30 -91 70
-115 70 -21 0 -59 -42 -59 -65 0 -31 -94 -169 -144 -210 -66 -54 -72 -49 -81
50 -11 139 12 235 91 376 l54 96 87 6 c53 3 120 15 168 30 143 46 232 56 327
36z m-5459 -116 c-22 -96 -46 -157 -99 -248 -82 -140 -298 -337 -572 -522
-132 -90 -159 -93 -177 -20 -8 31 -58 77 -85 77 -11 0 -36 -25 -64 -64 -69
-97 -140 -153 -339 -272 -100 -59 -228 -141 -285 -182 l-103 -74 -64 16 c-79
20 -128 20 -164 2 -45 -24 -52 -39 -66 -153 -11 -91 -23 -153 -29 -153 0 0
-19 6 -41 14 -35 12 -43 21 -62 67 -40 97 -23 332 32 444 40 83 147 178 257
229 99 46 254 100 346 121 32 7 89 20 127 28 39 9 135 21 215 27 354 28 603
130 888 363 96 78 167 165 226 276 59 113 81 121 59 24z m6129 -105 c26 -21
108 -148 108 -167 0 -35 24 -43 112 -38 108 6 176 22 205 49 20 19 25 20 37 7
22 -22 56 -159 56 -224 0 -74 -18 -178 -34 -201 -12 -16 -18 -16 -102 0 -129
25 -328 107 -363 150 -8 9 -7 18 2 31 13 17 17 17 78 1 84 -21 219 -22 219 -2
0 10 -18 17 -57 21 -75 9 -192 67 -221 109 -18 26 -20 40 -15 87 5 56 5 58
-36 101 -39 43 -49 67 -34 81 10 11 28 8 45 -5z m-2308 -154 c3 -9 6 -48 6
-87 0 -129 75 -469 126 -570 111 -218 385 -483 633 -611 68 -35 91 -52 91 -67
0 -29 -24 -33 -77 -14 -63 23 -281 32 -363 16 -33 -7 -69 -10 -79 -6 -19 6
-41 45 -41 74 0 9 -6 26 -14 37 -14 18 -16 18 -53 -18 -21 -20 -60 -46 -86
-58 -28 -13 -65 -43 -89 -71 -50 -59 -84 -66 -101 -20 -6 16 -21 35 -34 42
-32 17 -38 50 -20 101 9 24 25 70 37 102 22 60 61 330 52 354 -3 8 -24 22 -48
32 -49 22 -51 26 -58 150 -6 116 -25 176 -69 220 -21 19 -37 42 -37 49 0 7 24
56 54 109 30 54 72 132 92 175 38 76 64 97 78 61z m-3676 -216 c39 -12 53 -49
28 -77 -26 -28 -19 -34 32 -28 63 9 120 -6 146 -36 27 -32 110 -76 159 -84 62
-10 126 -60 159 -126 l29 -57 18 22 c15 18 27 22 62 19 48 -2 54 -8 69 -63 6
-21 15 -38 20 -38 13 0 13 14 -2 62 -10 33 -9 41 3 49 30 19 49 7 102 -68 63
-89 157 -186 157 -162 0 9 -11 31 -24 50 -61 84 -98 153 -100 181 -2 60 57 63
113 6 17 -17 33 -29 36 -26 3 3 1 27 -5 53 -12 54 -2 75 36 75 40 0 71 -20 94
-62 32 -57 24 -150 -25 -283 -56 -150 -57 -154 -56 -232 1 -54 -6 -91 -25
-145 -64 -176 -126 -201 -212 -88 -19 25 -52 55 -73 68 -22 13 -39 27 -39 31
0 5 -18 29 -40 54 -30 34 -58 52 -110 73 -38 14 -71 32 -74 39 -2 7 0 30 5 51
4 22 9 59 9 84 0 95 -98 223 -214 280 -90 44 -287 82 -486 93 -67 3 -66 31 1
90 28 25 49 50 45 55 -3 6 -31 16 -61 22 -72 15 -74 38 -8 95 l47 42 76 -4
c41 -3 90 -9 108 -15z m5097 -111 c12 -19 13 -30 4 -56 -9 -26 -8 -41 11 -91
12 -33 28 -65 36 -71 19 -15 18 -45 -2 -53 -42 -16 -124 -3 -257 42 -63 21
-82 32 -93 54 -14 26 -13 31 7 59 29 41 119 98 189 120 75 23 87 23 105 -4z
m1723 -133 c71 -15 78 -22 90 -85 6 -36 24 -81 43 -110 31 -50 33 -79 4 -79
-9 0 -27 13 -41 29 -13 16 -36 32 -51 36 -16 3 -44 18 -63 33 -19 15 -57 38
-83 52 -26 14 -59 34 -72 45 -23 20 -24 22 -14 115 5 52 11 101 14 109 4 10
28 -11 76 -62 42 -46 81 -79 97 -83z m-3448 -19 c8 -10 11 -32 7 -64 -6 -49
-87 -277 -114 -320 -15 -23 -21 -24 -93 -6 l-26 7 3 -134 c2 -73 8 -164 13
-203 12 -78 -4 -158 -31 -163 -10 -2 -35 27 -69 79 -29 44 -60 83 -67 86 -16
6 -73 -44 -73 -63 0 -6 -8 -22 -18 -34 l-18 -23 -115 39 -114 39 -190 -1 -190
-2 -95 -37 c-93 -36 -125 -43 -280 -64 -41 -6 -117 -18 -169 -27 -80 -14 -104
-15 -162 -4 -61 10 -74 17 -109 53 -47 50 -55 97 -17 97 13 0 29 -6 36 -12 10
-11 12 -5 9 27 -3 34 0 40 23 48 38 14 67 3 128 -47 105 -86 145 -89 64 -4
-64 68 -85 101 -77 121 9 24 42 31 67 14 25 -16 215 -97 229 -97 4 0 31 -11
60 -25 56 -27 68 -30 68 -16 0 4 -48 34 -107 65 -60 32 -117 64 -127 72 -19
14 -19 14 4 39 13 14 30 25 38 25 15 0 288 -79 451 -131 122 -39 165 -34 51 5
-120 42 -350 153 -350 169 0 8 9 22 20 32 19 17 27 16 242 -24 123 -23 275
-53 338 -66 120 -26 171 -31 155 -17 -10 9 -230 74 -473 141 -79 21 -146 42
-149 45 -4 4 -2 10 3 15 15 13 260 40 514 56 227 15 295 26 287 48 -2 6 -19
16 -38 22 -46 16 -44 38 6 47 66 11 214 81 314 146 97 65 120 72 141 47z
m-3276 -163 c55 -17 111 -39 125 -50 14 -10 41 -26 59 -36 25 -13 32 -23 32
-46 0 -26 -6 -33 -38 -45 -76 -31 -97 -126 -42 -188 38 -44 39 -78 1 -110 -62
-51 -140 -41 -156 20 -11 47 -45 59 -45 16 0 -90 128 -156 210 -108 59 34 107
55 129 55 27 0 61 -26 61 -47 0 -7 -38 -54 -85 -104 -87 -93 -118 -147 -45
-77 53 50 102 53 125 8 15 -29 15 -31 -27 -84 -56 -71 -102 -145 -94 -153 6
-7 36 23 109 110 61 73 98 91 138 68 33 -18 35 -32 14 -91 -33 -94 -8 -95 39
-1 37 72 50 83 86 74 24 -6 24 -20 4 -125 -4 -25 -3 -38 4 -38 6 0 16 17 23
38 15 49 27 62 53 62 45 0 65 -26 68 -88 2 -31 8 -57 13 -57 6 0 16 28 24 63
12 53 18 62 37 62 12 0 26 -6 32 -13 14 -17 92 -235 92 -258 0 -13 -11 -19
-42 -24 -78 -13 -124 -49 -153 -118 -29 -70 -62 -70 -154 0 -42 32 -105 49
-138 39 -10 -3 -24 -19 -30 -36 -21 -56 -36 -44 -215 171 -137 164 -435 439
-476 439 -24 0 -52 30 -52 56 0 16 13 30 44 48 53 31 83 93 72 151 -8 40 -14
42 -59 18 -47 -26 -293 -24 -424 3 -18 3 -23 11 -23 34 0 25 6 33 35 47 43 21
45 38 4 52 -26 9 -30 15 -27 42 3 28 11 35 91 77 98 51 91 37 70 129 -4 16 2
25 23 37 25 14 58 16 219 12 178 -3 196 -6 289 -34z m-972 -536 c216 -42 574
-201 690 -307 42 -37 42 -39 24 -54 -27 -20 -82 -19 -149 4 -31 11 -102 29
-159 40 -313 63 -512 52 -998 -55 -155 -34 -173 -36 -295 -31 -206 7 -225 26
-127 129 142 150 359 244 647 281 78 10 299 6 367 -7z m6784 -229 c3 -8 1 -24
-4 -38 -12 -31 -207 -134 -342 -181 -87 -30 -105 -33 -210 -32 -89 0 -130 5
-184 22 -116 37 -234 120 -220 155 5 13 37 16 227 20 239 5 363 16 497 46 105
23 228 27 236 8z m-3241 -12 c122 -32 210 -104 273 -224 43 -81 55 -148 50
-262 -5 -91 -8 -106 -44 -175 -63 -123 -96 -134 -122 -40 -13 45 -14 46 -52
46 -51 0 -70 26 -70 100 0 76 -16 104 -61 108 -45 4 -52 -5 -74 -96 -14 -57
-23 -76 -45 -92 -17 -12 -31 -33 -35 -53 -15 -75 -52 -137 -82 -137 -16 0 -80
67 -89 92 -3 9 6 38 19 65 51 101 44 186 -20 241 -37 32 -41 34 -108 30 -55
-3 -77 -9 -103 -28 -26 -19 -36 -22 -50 -13 -26 17 -22 125 7 182 51 98 195
212 319 252 72 23 207 25 287 4z m-887 -27 c3 -25 -4 -30 -112 -82 -115 -54
-116 -55 -116 -89 0 -27 7 -41 31 -61 17 -14 38 -26 48 -26 20 0 41 -19 41
-37 0 -7 -18 -36 -40 -65 -53 -70 -52 -86 2 -90 60 -4 60 -26 2 -95 -106 -124
-251 -218 -359 -232 -117 -16 -263 20 -319 78 -19 20 -26 39 -28 76 -3 44 -1
50 18 53 11 2 27 -4 34 -13 7 -8 27 -15 44 -15 73 0 122 110 77 170 -11 16
-21 44 -21 62 0 18 -11 78 -25 133 -33 133 -33 135 9 135 32 0 37 -5 121 -135
48 -75 89 -134 91 -133 2 2 -25 71 -61 153 -63 150 -68 165 -66 198 1 18 35
24 46 7 5 -9 101 -60 112 -60 3 0 3 12 0 28 -10 52 11 61 131 55 59 -2 132 0
162 5 30 6 82 9 115 9 57 -2 60 -3 63 -29z m2755 -78 l66 -32 32 26 c34 29 33
29 89 -19 14 -12 45 -33 70 -47 25 -15 56 -38 69 -52 21 -22 23 -31 15 -54 -9
-25 -13 -27 -59 -25 -28 1 -118 5 -201 9 -140 6 -161 4 -278 -20 -177 -37
-400 -103 -469 -138 -74 -37 -98 -34 -109 12 -5 21 -24 48 -45 66 -35 30 -36
33 -24 62 25 59 159 137 337 196 153 51 183 55 319 52 114 -3 125 -5 188 -36z
m1673 22 c33 -26 64 -99 75 -178 9 -64 7 -78 -12 -130 -29 -77 -92 -144 -172
-180 -151 -70 -488 -29 -726 89 -53 27 -71 50 -55 74 8 13 36 21 110 29 106
13 232 45 362 93 114 42 163 69 276 150 55 39 105 71 110 71 6 0 21 -8 32 -18z
m-2626 -495 c0 -7 -14 -24 -31 -36 -70 -52 -186 -172 -272 -281 -50 -63 -122
-151 -160 -195 -38 -44 -78 -98 -89 -120 -11 -22 -28 -49 -38 -60 -11 -11 -83
-115 -162 -231 -128 -189 -153 -220 -236 -293 -51 -44 -101 -81 -110 -81 -9 0
-68 -29 -132 -64 -190 -105 -500 -182 -554 -137 -25 21 -19 40 29 88 49 50 59
74 75 181 11 78 26 117 56 144 37 32 231 127 334 163 228 79 438 218 697 463
94 90 189 185 210 210 107 133 205 219 281 247 49 18 102 19 102 2z m-1629
-58 c48 -89 128 -149 200 -149 19 0 40 -10 56 -26 24 -24 25 -31 21 -92 -6
-76 -37 -146 -90 -203 -38 -41 -142 -119 -158 -119 -6 0 -32 -12 -56 -26 -51
-30 -120 -41 -319 -51 -134 -6 -218 6 -259 38 -34 27 -35 59 -2 59 29 0 126
101 126 131 0 18 -5 19 -72 14 -62 -6 -80 -3 -120 15 -38 17 -48 26 -48 45 0
15 6 25 14 25 8 0 16 6 19 14 3 8 21 17 39 21 18 4 77 32 130 62 53 30 113 59
131 65 31 10 39 8 71 -17 42 -32 59 -28 82 16 9 18 38 62 64 98 26 36 50 75
54 86 6 21 51 54 73 55 6 0 26 -27 44 -61z m-4520 -125 c41 -31 95 -66 120
-79 29 -15 49 -33 53 -47 9 -36 7 -226 -3 -232 -5 -3 -28 10 -51 29 -45 38
-45 38 -105 35 l-41 -1 -16 53 c-9 29 -19 70 -23 91 -3 22 -19 63 -36 93 -67
124 -21 150 102 58z m1659 -154 c143 -11 146 -11 240 -57 80 -38 108 -59 176
-129 84 -85 211 -259 256 -349 49 -98 46 -125 -20 -170 -64 -44 -144 -28 -97
19 22 22 18 59 -13 129 -38 83 -109 159 -180 194 -53 26 -66 28 -179 28 l-123
1 -48 47 c-44 43 -91 67 -133 67 -12 0 -18 -13 -23 -48 -4 -28 -19 -69 -38
-98 -45 -71 -118 -224 -118 -248 -1 -21 -1 -21 -20 2 -10 12 -26 46 -36 75
-22 68 -28 75 -96 105 l-58 25 0 57 0 58 -67 43 c-74 48 -146 79 -180 79 -12
0 -35 12 -52 26 -67 56 -64 57 434 139 102 16 193 17 375 5z m-1180 -150 c126
-11 233 -35 290 -66 49 -27 100 -69 100 -83 0 -5 -38 -11 -85 -15 -87 -7 -145
-22 -145 -36 0 -9 26 -16 95 -25 106 -14 124 -23 146 -69 16 -35 27 -45 59
-55 37 -11 74 -46 65 -61 -3 -4 -46 -10 -97 -13 -51 -3 -127 -15 -168 -27 -41
-12 -106 -29 -144 -38 l-69 -16 -23 30 c-29 35 -103 177 -132 254 -24 62 -50
195 -44 223 3 15 9 18 30 12 15 -4 70 -10 122 -15z m2993 -175 c28 -19 86 -61
128 -92 93 -70 258 -178 386 -253 113 -66 178 -126 209 -195 29 -61 30 -84 5
-131 -21 -38 -19 -54 11 -93 10 -13 15 -28 12 -33 -13 -21 -136 2 -253 47
-143 55 -177 87 -216 210 -14 44 -38 97 -53 119 -35 51 -136 136 -191 160 -39
18 -47 29 -90 115 -54 108 -64 140 -55 175 5 22 9 24 30 16 14 -6 48 -25 77
-45z m3827 -103 c50 -10 205 -70 405 -157 227 -100 434 -157 675 -187 l105
-13 3 -31 c2 -24 -4 -39 -29 -64 -73 -72 -150 -104 -285 -116 -59 -5 -83 -3
-139 16 -58 19 -77 32 -124 82 -74 79 -100 92 -169 84 -87 -10 -142 -50 -156
-111 -4 -16 -12 -43 -18 -59 -10 -26 -14 -28 -52 -22 -23 3 -97 34 -166 68
-100 51 -139 77 -201 136 -42 40 -82 85 -88 100 -14 34 -46 55 -71 47 -10 -3
-27 -28 -39 -55 -12 -27 -27 -52 -34 -57 -6 -4 -101 -8 -210 -9 -155 0 -200 2
-204 12 -7 18 71 117 156 197 83 78 161 117 271 136 41 7 93 15 115 19 41 7
177 -1 255 -16z m-5321 -72 c59 -29 71 -83 24 -101 -74 -28 -85 -90 -28 -158
39 -48 37 -67 -8 -77 -46 -10 -191 -6 -261 7 -68 13 -152 54 -167 81 -20 38
60 138 164 205 100 64 204 80 276 43z m-1155 -232 c9 -12 16 -30 16 -38 0 -29
53 -70 90 -70 30 0 43 -9 101 -72 l66 -72 74 -6 c64 -6 81 -11 126 -43 52 -38
74 -76 88 -150 9 -45 2 -46 -75 -16 -77 30 -111 30 -127 -1 -25 -50 -97 -54
-169 -9 -27 17 -126 108 -221 203 -181 181 -204 214 -166 245 11 9 23 24 26
34 5 14 19 17 81 17 66 0 77 -3 90 -22z m6016 -200 c71 -14 140 -47 140 -69 0
-9 -11 -37 -25 -60 -44 -77 -25 -119 54 -120 25 0 95 -10 156 -23 77 -16 119
-21 139 -15 35 10 49 0 44 -32 -2 -17 -12 -25 -33 -29 -38 -8 -85 -38 -85 -55
0 -7 16 -22 35 -34 19 -11 35 -27 35 -35 0 -35 -38 -41 -270 -40 -212 1 -230
3 -311 27 -48 15 -109 40 -135 57 -27 16 -63 36 -80 44 -28 14 -31 19 -32 65
l-1 51 39 10 c86 23 128 93 117 197 -4 34 -1 55 6 61 26 21 95 21 207 0z
m-464 -163 c3 -13 -1 -53 -10 -88 -9 -35 -16 -76 -15 -93 1 -52 34 -113 102
-188 37 -41 67 -80 67 -86 0 -8 -18 -9 -59 -4 -65 7 -111 -5 -236 -59 -38 -17
-83 -33 -100 -36 -27 -6 -30 -11 -40 -66 l-10 -60 -148 -38 c-116 -30 -152
-35 -163 -26 -8 6 -14 17 -14 23 0 6 39 52 86 101 99 105 236 268 284 340 18
28 65 93 103 145 39 52 81 110 94 128 29 38 50 41 59 7z m-4719 -10 c62 -26
76 -55 82 -169 4 -66 10 -101 19 -104 8 -2 12 7 12 30 0 18 5 50 11 72 10 36
12 38 41 32 45 -9 55 -21 63 -77 4 -27 10 -49 15 -49 10 0 20 26 20 51 0 27
22 33 64 19 32 -10 36 -16 46 -68 17 -80 19 -84 31 -77 6 4 9 30 7 63 l-3 56
39 9 c45 11 44 12 81 -85 15 -36 33 -72 41 -78 17 -15 18 -7 2 60 -10 43 -9
53 3 61 44 28 70 4 167 -161 54 -93 92 -136 92 -106 0 9 -20 49 -44 89 -62
104 -96 169 -96 188 0 22 47 34 68 17 10 -7 40 -34 69 -60 85 -79 102 -58 25
31 -66 77 -102 126 -102 139 0 15 64 32 118 32 61 0 110 -23 118 -56 6 -24 71
-149 112 -213 9 -14 42 -60 74 -102 77 -100 76 -111 -9 -140 -160 -53 -508
-32 -728 43 -254 88 -379 172 -488 332 -49 73 -84 218 -54 229 24 10 67 7 104
-8z"/>
</g>
</svg>
