<?xml version="1.0" standalone="no"?>
<!DOCTYPE svg PUBLIC "-//W3C//DTD SVG 20010904//EN"
 "http://www.w3.org/TR/2001/REC-SVG-20010904/DTD/svg10.dtd">
<svg version="1.0" xmlns="http://www.w3.org/2000/svg"
 width="1280.000000pt" height="1280.000000pt" viewBox="0 0 1280.000000 1280.000000"
 preserveAspectRatio="xMidYMid meet">
<metadata>
Created by potrace 1.15, written by Peter Selinger 2001-2017
</metadata>
<g transform="translate(0.000000,1280.000000) scale(0.100000,-0.100000)"
fill="#ffffff" stroke="none">
<path d="M3337 11194 c-4 -4 -7 -41 -7 -83 -1 -138 -16 -207 -70 -316 -100
-201 -237 -373 -352 -442 -73 -44 -167 -67 -245 -60 -78 8 -106 22 -167 87
-26 28 -51 49 -53 46 -3 -3 4 -29 15 -58 33 -83 55 -208 37 -208 -17 0 -143
72 -220 125 -182 127 -394 329 -485 463 -32 48 -60 72 -60 53 0 -4 14 -48 31
-97 44 -125 44 -206 0 -334 -98 -288 -285 -557 -490 -709 -136 -100 -330 -187
-505 -226 -78 -17 -199 -17 -345 1 -73 9 -61 -5 42 -54 48 -22 94 -52 109 -70
35 -42 159 -268 199 -362 54 -131 70 -198 76 -322 8 -175 -19 -293 -108 -468
-122 -239 -317 -473 -452 -541 -54 -27 -97 -58 -97 -69 0 -4 17 -4 38 1 176
43 201 46 280 34 259 -42 523 -135 650 -229 130 -96 194 -219 195 -376 1 -102
-13 -136 -83 -205 -33 -33 -60 -63 -60 -67 0 -4 44 15 98 43 l98 51 54 -15
c30 -8 111 -30 180 -50 173 -48 337 -64 498 -48 202 20 411 80 552 158 76 42
178 113 204 142 11 12 37 22 69 26 29 4 65 14 81 22 28 15 28 14 23 -9 -18
-78 -29 -263 -23 -419 17 -507 28 -591 99 -809 42 -127 180 -407 251 -510 29
-41 69 -103 90 -137 77 -128 287 -299 768 -625 541 -367 793 -482 1298 -594
221 -49 353 -70 684 -110 401 -48 472 -51 696 -25 293 34 402 51 417 62 19 16
16 67 -5 78 -21 11 -159 27 -357 41 -222 16 -292 27 -448 71 -78 23 -243 67
-367 100 -440 116 -761 226 -937 319 -92 49 -348 209 -413 258 -49 37 -573
487 -648 557 -93 86 -152 184 -231 384 -71 180 -98 281 -87 325 5 21 13 25 62
32 69 8 94 -2 134 -57 25 -35 30 -51 30 -100 0 -107 52 -207 142 -274 72 -53
156 -134 174 -167 8 -16 14 -56 14 -97 0 -104 14 -112 190 -109 84 2 106 -2
188 -30 51 -18 103 -32 115 -32 12 0 46 11 75 25 30 14 58 23 63 20 5 -3 18
-1 29 5 14 8 26 8 41 -1 19 -10 20 -9 14 11 -6 18 -4 20 19 14 18 -4 35 0 54
12 15 10 50 21 77 24 l50 5 -30 17 c-17 9 -49 20 -70 24 l-40 8 40 7 c22 4 50
2 63 -4 18 -9 31 -7 57 7 33 18 57 18 100 1 20 -8 20 -8 0 14 -28 32 -47 41
-113 52 -82 14 -154 17 -173 8 -9 -5 -36 -11 -59 -14 -23 -3 -47 -8 -52 -11
-33 -20 -231 20 -342 70 -84 38 -113 79 -201 281 -31 72 -88 190 -126 263 -67
127 -77 158 -99 282 -5 30 -12 65 -16 78 -6 20 -3 22 25 22 48 0 69 -16 77
-58 19 -106 99 -184 220 -213 27 -6 60 -18 72 -26 30 -18 61 -87 62 -134 0
-74 46 -84 200 -44 52 14 139 30 192 35 93 10 102 9 182 -16 89 -27 125 -28
216 -5 25 7 49 16 53 20 9 9 -96 41 -135 41 -58 0 -60 10 -14 55 48 46 116 75
178 75 24 0 45 7 57 19 12 12 37 21 63 23 43 3 43 3 18 17 -27 15 -135 20
-207 10 -24 -3 -43 -2 -43 2 0 9 76 49 95 49 8 0 22 12 32 28 22 34 33 42 61
42 12 0 22 5 22 10 0 13 -76 13 -100 0 -11 -6 -42 -15 -71 -20 -60 -12 -147
-53 -171 -81 -34 -40 -130 -62 -291 -67 l-148 -4 -34 36 c-18 20 -55 70 -82
111 -26 41 -91 138 -144 215 -93 135 -110 172 -124 267 -4 23 -15 53 -26 67
-18 23 -24 24 -117 23 -94 -2 -100 0 -187 39 -49 23 -117 50 -150 60 -33 10
-61 19 -63 20 -1 1 13 36 33 79 33 72 36 77 53 63 28 -25 222 -32 367 -13 178
22 209 21 253 -14 20 -16 66 -41 102 -56 49 -21 81 -44 130 -94 64 -66 149
-135 157 -127 9 9 -54 114 -100 169 -51 59 -56 87 -16 87 25 0 119 -50 162
-86 16 -13 36 -24 44 -24 9 0 31 -10 50 -21 38 -23 54 -19 32 8 -78 100 -108
127 -221 197 -30 18 -37 36 -14 36 16 0 122 -55 155 -81 13 -11 33 -19 44 -19
11 0 40 -11 64 -25 23 -14 43 -24 43 -21 0 43 -111 143 -222 199 -73 37 -79
42 -55 45 16 2 41 -1 56 -6 20 -7 34 -6 52 4 30 17 64 18 92 2 20 -10 21 -10
8 6 -8 10 -26 23 -40 30 -41 20 -221 40 -277 31 -67 -12 -202 -9 -270 5 -30 7
-113 29 -182 50 -70 21 -148 41 -174 45 -40 6 -48 11 -57 36 -9 27 -8 30 23
43 18 8 52 28 76 45 24 17 54 31 68 31 14 0 60 13 101 29 42 16 103 37 136 46
33 9 148 60 256 111 172 83 199 94 222 85 15 -6 64 -11 110 -12 89 -1 118 -13
171 -68 17 -17 34 -31 39 -31 5 0 20 -9 34 -20 15 -11 28 -18 30 -16 9 9 -32
72 -80 123 l-50 53 44 0 c26 0 65 -11 94 -25 28 -14 61 -25 73 -25 13 0 37 -8
53 -17 15 -9 31 -14 34 -11 18 18 -61 107 -130 146 -17 10 -15 11 15 6 l35 -6
-30 20 c-16 11 -66 27 -110 36 -102 19 -347 20 -420 1 -28 -7 -108 -16 -176
-20 -152 -8 -264 -21 -346 -42 -56 -14 -67 -14 -125 1 -36 9 -78 16 -95 16
-33 0 -43 16 -63 99 -13 51 33 142 183 368 68 104 153 233 189 288 145 225
211 286 433 399 61 31 115 60 120 64 118 85 192 156 221 213 35 71 212 214
312 254 23 10 42 22 42 27 0 6 8 16 17 23 13 10 15 16 6 26 -6 8 -14 28 -18
46 -6 29 -9 32 -36 26 -26 -5 -28 -3 -23 13 4 11 16 29 26 41 l20 21 -39 26
c-44 29 -115 56 -148 56 -13 0 -47 -11 -77 -25 -29 -14 -61 -25 -71 -25 -10 0
-31 -7 -46 -15 -16 -8 -59 -17 -95 -19 -62 -5 -137 -33 -151 -56 -11 -18 -69
-43 -168 -71 -112 -33 -124 -38 -107 -49 9 -6 1 -16 -26 -33 -54 -35 -110 -95
-128 -139 -9 -22 -45 -62 -88 -100 -92 -80 -164 -154 -236 -243 -66 -81 -240
-290 -321 -385 -30 -36 -85 -96 -122 -135 -85 -91 -200 -246 -282 -382 l-65
-108 -84 -40 c-66 -32 -104 -60 -183 -135 -101 -96 -196 -165 -292 -214 -60
-30 -63 -30 -63 -14 0 15 109 293 153 388 54 117 256 444 296 477 34 30 44 29
86 -8 20 -18 38 -30 40 -28 9 10 21 128 17 171 -5 54 44 239 115 438 25 69 58
175 75 235 16 61 71 256 122 435 84 294 116 440 95 440 -4 0 -15 -22 -24 -49
-20 -61 -50 -101 -76 -101 -24 0 -72 24 -117 58 -41 31 -109 126 -150 207 -64
129 -172 460 -172 528 0 36 -39 208 -50 220 -3 4 -9 4 -13 1z"/>
<path d="M6554 10160 c-71 -10 -532 -96 -586 -111 -22 -5 -39 -17 -43 -28 -8
-28 4 -68 23 -76 10 -4 166 -13 347 -21 203 -8 355 -19 395 -28 195 -44 501
-130 596 -168 104 -40 475 -223 709 -349 120 -65 388 -252 499 -350 103 -89
619 -623 677 -699 49 -64 200 -358 254 -495 30 -75 41 -159 31 -227 l-6 -43
-163 -39 -163 -39 -50 35 c-27 20 -59 39 -71 42 -22 7 -25 16 -39 106 -14 93
-74 166 -178 215 -97 46 -146 121 -146 223 0 44 -5 63 -18 75 -23 21 -93 22
-187 2 -83 -18 -167 -19 -267 -4 -60 9 -81 8 -116 -4 -29 -10 -63 -13 -98 -10
-36 4 -59 2 -69 -7 -9 -7 -39 -18 -68 -25 l-52 -12 32 -16 c18 -10 43 -17 57
-17 18 0 24 -4 20 -15 -4 -11 -14 -13 -33 -8 -23 6 -25 5 -13 -10 12 -14 9
-17 -20 -25 -20 -5 -42 -5 -56 1 -18 8 -29 6 -53 -12 -25 -19 -39 -22 -73 -17
-41 6 -41 6 -17 -12 13 -9 45 -22 70 -29 46 -11 46 -11 11 -12 l-35 -2 28 -15
c21 -11 43 -14 80 -9 61 7 209 51 251 73 19 10 52 15 90 14 78 -3 235 -35 284
-59 35 -17 112 -106 112 -129 0 -16 -30 -22 -140 -30 -75 -4 -104 -2 -140 11
-71 25 -160 31 -198 11 -17 -9 -38 -16 -46 -16 -8 0 -27 -5 -43 -11 -22 -8
-25 -12 -13 -19 26 -14 140 -40 176 -40 36 0 41 -6 21 -30 -40 -50 -129 -90
-199 -90 -24 0 -44 -8 -63 -26 -24 -22 -35 -25 -69 -21 l-41 6 24 -20 c19 -16
39 -19 115 -19 50 1 111 5 136 10 25 4 47 7 48 5 6 -6 -76 -45 -92 -45 -9 0
-27 -18 -41 -40 -19 -30 -32 -40 -51 -40 -14 0 -23 -4 -19 -10 12 -19 73 -10
146 21 41 17 90 34 111 38 45 10 124 56 137 80 6 9 27 23 49 29 43 13 290 16
308 4 5 -4 38 -56 71 -117 59 -106 85 -182 96 -283 7 -55 20 -70 74 -84 36 -9
47 -17 58 -42 19 -47 35 -121 35 -167 0 -51 32 -107 66 -115 14 -4 42 -4 62
-1 49 8 100 -4 161 -40 l50 -28 -84 -150 -84 -149 -88 3 c-69 2 -100 8 -143
28 -52 24 -63 25 -215 24 -88 -1 -207 -9 -265 -17 -163 -22 -214 -21 -258 9
-20 14 -66 35 -101 46 -54 18 -79 36 -155 107 -50 47 -92 81 -94 76 -6 -18 38
-94 86 -150 36 -43 42 -56 31 -63 -21 -13 -29 -11 -99 28 -103 57 -182 95
-187 89 -11 -11 135 -144 187 -171 30 -16 50 -30 43 -32 -14 -5 -107 42 -124
63 -6 8 -22 14 -34 14 -12 0 -39 11 -59 25 -40 27 -45 23 -18 -17 32 -49 111
-110 192 -149 25 -12 40 -23 33 -26 -7 -2 -21 1 -33 7 -16 9 -27 7 -50 -6 -24
-15 -34 -16 -54 -6 -35 16 -33 0 2 -20 41 -23 127 -32 327 -33 173 0 186 -1
330 -37 83 -20 189 -42 238 -49 85 -12 88 -13 109 -48 12 -20 42 -57 65 -82
l42 -46 -57 -23 c-70 -28 -179 -86 -294 -157 -71 -44 -91 -52 -107 -44 -10 6
-55 11 -100 12 -74 1 -85 4 -119 31 -20 16 -42 35 -48 43 -6 8 -34 30 -63 49
-47 32 -52 33 -45 13 10 -33 52 -98 88 -135 26 -28 28 -34 16 -43 -20 -13 -74
-2 -136 27 -28 13 -62 24 -76 24 -14 0 -37 9 -52 21 -29 23 -34 15 -10 -19 25
-36 10 -36 -31 0 l-38 32 21 -40 c12 -23 45 -59 76 -83 31 -23 56 -44 56 -48
0 -3 -18 -3 -40 1 -47 7 -49 4 -15 -18 47 -31 163 -48 345 -51 148 -3 184 0
235 15 34 11 123 24 205 30 80 6 172 17 205 25 67 15 75 11 75 -43 0 -67 -46
-139 -289 -452 -309 -399 -327 -416 -531 -519 -167 -85 -176 -88 -183 -61 -9
37 -35 21 -84 -52 -26 -40 -70 -95 -98 -121 -124 -120 -294 -242 -351 -253
l-32 -6 5 -66 c4 -44 11 -71 21 -79 12 -10 12 -16 3 -26 -19 -24 -2 -45 62
-77 66 -33 122 -38 165 -16 39 20 137 39 207 41 103 3 185 17 185 31 0 7 19
24 43 38 37 22 73 31 157 40 62 7 99 36 45 36 -39 0 -30 16 21 35 53 20 194
112 194 126 0 6 -18 8 -46 3 -43 -6 -45 -5 -34 12 7 11 33 34 58 53 26 19 70
52 98 73 28 21 169 161 313 312 144 151 296 304 336 340 74 66 182 189 264
298 28 38 55 61 82 72 65 26 68 24 62 -46 -6 -72 -67 -227 -168 -428 -35 -69
-66 -136 -70 -150 -4 -13 -66 -162 -138 -330 -114 -270 -168 -420 -148 -420 3
0 24 30 46 67 48 81 83 99 168 89 127 -16 249 -179 292 -391 9 -44 18 -88 21
-97 10 -34 22 -18 29 39 13 107 43 179 124 301 78 116 236 312 257 319 18 6
-48 -270 -111 -467 -13 -41 -35 -131 -49 -200 -14 -69 -54 -251 -90 -405 -58
-256 -82 -412 -64 -430 3 -4 13 17 22 47 30 105 64 122 166 88 170 -57 336
-216 523 -500 85 -130 239 -428 288 -557 39 -103 47 -83 28 66 -15 111 -2 187
47 284 140 276 378 485 612 538 137 31 338 28 454 -6 31 -9 102 -45 159 -80
57 -36 107 -65 112 -65 17 0 4 21 -48 79 -74 83 -89 116 -129 280 -131 533
-102 806 119 1106 98 133 311 323 411 365 22 10 76 25 119 34 117 24 117 34
-3 46 -48 5 -97 17 -123 31 -67 33 -252 176 -365 280 -270 250 -367 432 -368
689 0 186 32 266 130 321 61 35 80 55 43 46 -152 -38 -176 -33 -275 54 -238
211 -398 310 -614 379 l-85 27 3 34 c11 128 72 265 153 345 32 32 59 62 59 66
0 4 -24 -4 -52 -17 -29 -14 -58 -25 -65 -25 -6 0 -41 36 -77 80 -51 61 -81 87
-129 112 -58 31 -68 33 -167 33 -88 0 -115 -4 -165 -24 -69 -28 -163 -81 -219
-125 l-39 -30 6 149 c3 83 14 229 22 325 20 213 11 335 -41 540 -28 112 -46
161 -111 289 -43 84 -106 197 -141 250 -35 53 -77 121 -93 152 -69 128 -318
367 -692 663 -34 27 -98 79 -142 116 -76 65 -122 99 -275 203 -125 86 -284
180 -354 209 -38 17 -79 36 -91 44 -38 25 -550 219 -749 285 -166 54 -203 62
-396 84 -288 32 -487 40 -606 25z"/>
</g>
</svg>
